<?xml version="1.0" encoding="UTF-8" standalone="no"?>
<!DOCTYPE svg PUBLIC "-//W3C//DTD SVG 1.1//EN"
 "http://www.w3.org/Graphics/SVG/1.1/DTD/svg11.dtd">
<!-- Generated by graphviz version 2.47.0 (20210316.0004)
 -->
<!-- Title: dependencies Pages: 1 -->
<svg width="1072pt" height="284pt"
 viewBox="0.00 0.00 1072.00 284.00" xmlns="http://www.w3.org/2000/svg" xmlns:xlink="http://www.w3.org/1999/xlink">
<g id="graph0" class="graph" transform="scale(1 1) rotate(0) translate(4 280)">
<title>dependencies</title>
<polygon fill="white" stroke="transparent" points="-4,4 -4,-280 1068,-280 1068,4 -4,4"/>
<text text-anchor="start" x="511.01" y="-42.4" font-family="Times-12" font-weight="bold" font-size="14.00">Legend</text>
<polygon fill="#ffffb3" stroke="transparent" points="298,-10 298,-30 318,-30 318,-10 298,-10"/>
<text text-anchor="start" x="321.63" y="-15.4" font-family="Times-12" font-size="14.00"> &#160;Declarations</text>
<polygon fill="#8dd3c7" stroke="transparent" points="411,-10 411,-30 431,-30 431,-10 411,-10"/>
<text text-anchor="start" x="434.73" y="-15.4" font-family="Times-12" font-size="14.00"> &#160;Module</text>
<polygon fill="#80b1d3" stroke="transparent" points="497,-10 497,-30 517,-30 517,-10 497,-10"/>
<text text-anchor="start" x="520.78" y="-15.4" font-family="Times-12" font-size="14.00"> &#160;Bootstrap</text>
<polygon fill="#fdb462" stroke="transparent" points="594,-10 594,-30 614,-30 614,-10 594,-10"/>
<text text-anchor="start" x="617.67" y="-15.4" font-family="Times-12" font-size="14.00"> &#160;Providers</text>
<polygon fill="#fb8072" stroke="transparent" points="690,-10 690,-30 710,-30 710,-10 690,-10"/>
<text text-anchor="start" x="713.73" y="-15.4" font-family="Times-12" font-size="14.00"> &#160;Exports</text>
<g id="clust1" class="cluster">
<title>cluster_SharedModule</title>
<polygon fill="none" stroke="black" stroke-dasharray="1,5" points="8,-70 8,-268 1056,-268 1056,-70 8,-70"/>
</g>
<g id="clust11" class="cluster">
<title>cluster_SharedModule_exports</title>
<polygon fill="none" stroke="black" points="16,-208 16,-260 1048,-260 1048,-208 16,-208"/>
</g>
<g id="clust2" class="cluster">
<title>cluster_SharedModule_declarations</title>
<polygon fill="none" stroke="black" points="29,-78 29,-130 1036,-130 1036,-78 29,-78"/>
</g>
<!-- AutoTabDirective -->
<g id="node1" class="node">
<title>AutoTabDirective</title>
<polygon fill="#ffffb3" stroke="black" points="1027.85,-122 910.15,-122 910.15,-86 1027.85,-86 1027.85,-122"/>
<text text-anchor="middle" x="969" y="-99.8" font-family="Times,serif" font-size="14.00">AutoTabDirective</text>
</g>
<!-- SharedModule -->
<g id="node8" class="node">
<title>SharedModule</title>
<polygon fill="#8dd3c7" stroke="black" points="592.42,-187 589.42,-191 568.42,-191 565.42,-187 493.58,-187 493.58,-151 592.42,-151 592.42,-187"/>
<text text-anchor="middle" x="543" y="-164.8" font-family="Times,serif" font-size="14.00">SharedModule</text>
</g>
<!-- AutoTabDirective&#45;&gt;SharedModule -->
<g id="edge1" class="edge">
<title>AutoTabDirective&#45;&gt;SharedModule</title>
<path fill="none" stroke="black" d="M914.2,-122.22C914.2,-140.83 914.2,-167 914.2,-167 914.2,-167 602.29,-167 602.29,-167"/>
<polygon fill="black" stroke="black" points="602.29,-163.5 592.29,-167 602.29,-170.5 602.29,-163.5"/>
</g>
<!-- ErrorComponent -->
<g id="node2" class="node">
<title>ErrorComponent</title>
<polygon fill="#ffffb3" stroke="black" points="892.37,-122 781.63,-122 781.63,-86 892.37,-86 892.37,-122"/>
<text text-anchor="middle" x="837" y="-99.8" font-family="Times,serif" font-size="14.00">ErrorComponent</text>
</g>
<!-- ErrorComponent&#45;&gt;SharedModule -->
<g id="edge2" class="edge">
<title>ErrorComponent&#45;&gt;SharedModule</title>
<path fill="none" stroke="black" d="M856.89,-122.03C856.89,-139.06 856.89,-162 856.89,-162 856.89,-162 602.39,-162 602.39,-162"/>
<polygon fill="black" stroke="black" points="602.39,-158.5 592.39,-162 602.39,-165.5 602.39,-158.5"/>
</g>
<!-- LoaderComponent -->
<g id="node3" class="node">
<title>LoaderComponent</title>
<polygon fill="#ffffb3" stroke="black" points="763.47,-122 642.53,-122 642.53,-86 763.47,-86 763.47,-122"/>
<text text-anchor="middle" x="703" y="-99.8" font-family="Times,serif" font-size="14.00">LoaderComponent</text>
</g>
<!-- LoaderComponent&#45;&gt;SharedModule -->
<g id="edge3" class="edge">
<title>LoaderComponent&#45;&gt;SharedModule</title>
<path fill="none" stroke="black" d="M723.58,-122.24C723.58,-137.57 723.58,-157 723.58,-157 723.58,-157 602.34,-157 602.34,-157"/>
<polygon fill="black" stroke="black" points="602.34,-153.5 592.34,-157 602.34,-160.5 602.34,-153.5"/>
</g>
<!-- MobileHeaderComponent -->
<g id="node4" class="node">
<title>MobileHeaderComponent</title>
<polygon fill="#ffffb3" stroke="black" points="624.18,-122 461.82,-122 461.82,-86 624.18,-86 624.18,-122"/>
<text text-anchor="middle" x="543" y="-99.8" font-family="Times,serif" font-size="14.00">MobileHeaderComponent</text>
</g>
<!-- MobileHeaderComponent&#45;&gt;SharedModule -->
<g id="edge4" class="edge">
<title>MobileHeaderComponent&#45;&gt;SharedModule</title>
<path fill="none" stroke="black" d="M543,-122.11C543,-122.11 543,-140.99 543,-140.99"/>
<polygon fill="black" stroke="black" points="539.5,-140.99 543,-150.99 546.5,-140.99 539.5,-140.99"/>
</g>
<!-- PaginatePipe -->
<g id="node5" class="node">
<title>PaginatePipe</title>
<polygon fill="#ffffb3" stroke="black" points="443.6,-122 354.4,-122 354.4,-86 443.6,-86 443.6,-122"/>
<text text-anchor="middle" x="399" y="-99.8" font-family="Times,serif" font-size="14.00">PaginatePipe</text>
</g>
<!-- PaginatePipe&#45;&gt;SharedModule -->
<g id="edge5" class="edge">
<title>PaginatePipe&#45;&gt;SharedModule</title>
<path fill="none" stroke="black" d="M413.02,-122.24C413.02,-137.57 413.02,-157 413.02,-157 413.02,-157 483.49,-157 483.49,-157"/>
<polygon fill="black" stroke="black" points="483.49,-160.5 493.49,-157 483.49,-153.5 483.49,-160.5"/>
</g>
<!-- PositioningDirective -->
<g id="node6" class="node">
<title>PositioningDirective</title>
<polygon fill="#ffffb3" stroke="black" points="336.87,-122 205.13,-122 205.13,-86 336.87,-86 336.87,-122"/>
<text text-anchor="middle" x="271" y="-99.8" font-family="Times,serif" font-size="14.00">PositioningDirective</text>
</g>
<!-- PositioningDirective&#45;&gt;SharedModule -->
<g id="edge6" class="edge">
<title>PositioningDirective&#45;&gt;SharedModule</title>
<path fill="none" stroke="black" d="M289.48,-122.03C289.48,-139.06 289.48,-162 289.48,-162 289.48,-162 483.52,-162 483.52,-162"/>
<polygon fill="black" stroke="black" points="483.52,-165.5 493.52,-162 483.52,-158.5 483.52,-165.5"/>
</g>
<!-- StylePaginatorDirective -->
<g id="node7" class="node">
<title>StylePaginatorDirective</title>
<polygon fill="#ffffb3" stroke="black" points="187.02,-122 36.98,-122 36.98,-86 187.02,-86 187.02,-122"/>
<text text-anchor="middle" x="112" y="-99.8" font-family="Times,serif" font-size="14.00">StylePaginatorDirective</text>
</g>
<!-- StylePaginatorDirective&#45;&gt;SharedModule -->
<g id="edge7" class="edge">
<title>StylePaginatorDirective&#45;&gt;SharedModule</title>
<path fill="none" stroke="black" d="M182.63,-122.22C182.63,-140.83 182.63,-167 182.63,-167 182.63,-167 483.65,-167 483.65,-167"/>
<polygon fill="black" stroke="black" points="483.65,-170.5 493.65,-167 483.65,-163.5 483.65,-170.5"/>
</g>
<!-- AutoTabDirective  -->
<g id="node9" class="node">
<title>AutoTabDirective </title>
<polygon fill="#fb8072" stroke="black" points="1039.85,-252 918.15,-252 918.15,-216 1039.85,-216 1039.85,-252"/>
<text text-anchor="middle" x="979" y="-229.8" font-family="Times,serif" font-size="14.00">AutoTabDirective </text>
</g>
<!-- SharedModule&#45;&gt;AutoTabDirective  -->
<g id="edge8" class="edge">
<title>SharedModule&#45;&gt;AutoTabDirective </title>
<path fill="none" stroke="black" stroke-dasharray="5,2" d="M592.34,-172C705.32,-172 973.12,-172 973.12,-172 973.12,-172 973.12,-205.73 973.12,-205.73"/>
<polygon fill="black" stroke="black" points="969.63,-205.73 973.12,-215.73 976.63,-205.73 969.63,-205.73"/>
</g>
<!-- ErrorComponent  -->
<g id="node10" class="node">
<title>ErrorComponent </title>
<polygon fill="#fb8072" stroke="black" points="900.37,-252 785.63,-252 785.63,-216 900.37,-216 900.37,-252"/>
<text text-anchor="middle" x="843" y="-229.8" font-family="Times,serif" font-size="14.00">ErrorComponent </text>
</g>
<!-- SharedModule&#45;&gt;ErrorComponent  -->
<g id="edge9" class="edge">
<title>SharedModule&#45;&gt;ErrorComponent </title>
<path fill="none" stroke="black" stroke-dasharray="5,2" d="M592.44,-177C672.43,-177 821.36,-177 821.36,-177 821.36,-177 821.36,-205.96 821.36,-205.96"/>
<polygon fill="black" stroke="black" points="817.86,-205.96 821.36,-215.96 824.86,-205.96 817.86,-205.96"/>
</g>
<!-- LoaderComponent  -->
<g id="node11" class="node">
<title>LoaderComponent </title>
<polygon fill="#fb8072" stroke="black" points="768.48,-252 643.52,-252 643.52,-216 768.48,-216 768.48,-252"/>
<text text-anchor="middle" x="706" y="-229.8" font-family="Times,serif" font-size="14.00">LoaderComponent </text>
</g>
<!-- SharedModule&#45;&gt;LoaderComponent  -->
<g id="edge10" class="edge">
<title>SharedModule&#45;&gt;LoaderComponent </title>
<path fill="none" stroke="black" stroke-dasharray="5,2" d="M592.6,-182C633.1,-182 683.67,-182 683.67,-182 683.67,-182 683.67,-205.81 683.67,-205.81"/>
<polygon fill="black" stroke="black" points="680.17,-205.81 683.67,-215.81 687.17,-205.81 680.17,-205.81"/>
</g>
<!-- MobileHeaderComponent  -->
<g id="node12" class="node">
<title>MobileHeaderComponent </title>
<polygon fill="#fb8072" stroke="black" points="625.68,-252 460.32,-252 460.32,-216 625.68,-216 625.68,-252"/>
<text text-anchor="middle" x="543" y="-229.8" font-family="Times,serif" font-size="14.00">MobileHeaderComponent </text>
</g>
<!-- SharedModule&#45;&gt;MobileHeaderComponent  -->
<g id="edge11" class="edge">
<title>SharedModule&#45;&gt;MobileHeaderComponent </title>
<path fill="none" stroke="black" stroke-dasharray="5,2" d="M543,-187.11C543,-187.11 543,-205.99 543,-205.99"/>
<polygon fill="black" stroke="black" points="539.5,-205.99 543,-215.99 546.5,-205.99 539.5,-205.99"/>
</g>
<!-- PaginatePipe  -->
<g id="node13" class="node">
<title>PaginatePipe </title>
<polygon fill="#fb8072" stroke="black" points="442.1,-252 349.9,-252 349.9,-216 442.1,-216 442.1,-252"/>
<text text-anchor="middle" x="396" y="-229.8" font-family="Times,serif" font-size="14.00">PaginatePipe </text>
</g>
<!-- SharedModule&#45;&gt;PaginatePipe  -->
<g id="edge12" class="edge">
<title>SharedModule&#45;&gt;PaginatePipe </title>
<path fill="none" stroke="black" stroke-dasharray="5,2" d="M493.48,-182C446.73,-182 383.73,-182 383.73,-182 383.73,-182 383.73,-205.81 383.73,-205.81"/>
<polygon fill="black" stroke="black" points="380.23,-205.81 383.73,-215.81 387.23,-205.81 380.23,-205.81"/>
</g>
<!-- PositioningDirective  -->
<g id="node14" class="node">
<title>PositioningDirective </title>
<polygon fill="#fb8072" stroke="black" points="331.87,-252 196.13,-252 196.13,-216 331.87,-216 331.87,-252"/>
<text text-anchor="middle" x="264" y="-229.8" font-family="Times,serif" font-size="14.00">PositioningDirective </text>
</g>
<!-- SharedModule&#45;&gt;PositioningDirective  -->
<g id="edge13" class="edge">
<title>SharedModule&#45;&gt;PositioningDirective </title>
<path fill="none" stroke="black" stroke-dasharray="5,2" d="M493.5,-177C409.31,-177 247.27,-177 247.27,-177 247.27,-177 247.27,-205.96 247.27,-205.96"/>
<polygon fill="black" stroke="black" points="243.77,-205.96 247.27,-215.96 250.77,-205.96 243.77,-205.96"/>
</g>
<!-- StylePaginatorDirective  -->
<g id="node15" class="node">
<title>StylePaginatorDirective </title>
<polygon fill="#fb8072" stroke="black" points="178.01,-252 23.99,-252 23.99,-216 178.01,-216 178.01,-252"/>
<text text-anchor="middle" x="101" y="-229.8" font-family="Times,serif" font-size="14.00">StylePaginatorDirective </text>
</g>
<!-- SharedModule&#45;&gt;StylePaginatorDirective  -->
<g id="edge14" class="edge">
<title>SharedModule&#45;&gt;StylePaginatorDirective </title>
<path fill="none" stroke="black" stroke-dasharray="5,2" d="M493.45,-172C379.28,-172 107.38,-172 107.38,-172 107.38,-172 107.38,-205.73 107.38,-205.73"/>
<polygon fill="black" stroke="black" points="103.88,-205.73 107.38,-215.73 110.88,-205.73 103.88,-205.73"/>
</g>
</g>
</svg>
