<?xml version="1.0" encoding="UTF-8" standalone="no"?>
<!DOCTYPE svg PUBLIC "-//W3C//DTD SVG 1.1//EN"
 "http://www.w3.org/Graphics/SVG/1.1/DTD/svg11.dtd">
<!-- Generated by graphviz version 2.47.0 (20210316.0004)
 -->
<!-- Title: dependencies Pages: 1 -->
<svg width="703pt" height="211pt"
 viewBox="0.00 0.00 703.00 211.00" xmlns="http://www.w3.org/2000/svg" xmlns:xlink="http://www.w3.org/1999/xlink">
<g id="graph0" class="graph" transform="scale(1 1) rotate(0) translate(4 207)">
<title>dependencies</title>
<polygon fill="white" stroke="transparent" points="-4,4 -4,-207 699,-207 699,4 -4,4"/>
<text text-anchor="start" x="326.51" y="-42.4" font-family="Times-12" font-weight="bold" font-size="14.00">Legend</text>
<polygon fill="#ffffb3" stroke="transparent" points="113.5,-10 113.5,-30 133.5,-30 133.5,-10 113.5,-10"/>
<text text-anchor="start" x="137.13" y="-15.4" font-family="Times-12" font-size="14.00"> &#160;Declarations</text>
<polygon fill="#8dd3c7" stroke="transparent" points="226.5,-10 226.5,-30 246.5,-30 246.5,-10 226.5,-10"/>
<text text-anchor="start" x="250.23" y="-15.4" font-family="Times-12" font-size="14.00"> &#160;Module</text>
<polygon fill="#80b1d3" stroke="transparent" points="312.5,-10 312.5,-30 332.5,-30 332.5,-10 312.5,-10"/>
<text text-anchor="start" x="336.28" y="-15.4" font-family="Times-12" font-size="14.00"> &#160;Bootstrap</text>
<polygon fill="#fdb462" stroke="transparent" points="409.5,-10 409.5,-30 429.5,-30 429.5,-10 409.5,-10"/>
<text text-anchor="start" x="433.17" y="-15.4" font-family="Times-12" font-size="14.00"> &#160;Providers</text>
<polygon fill="#fb8072" stroke="transparent" points="505.5,-10 505.5,-30 525.5,-30 525.5,-10 505.5,-10"/>
<text text-anchor="start" x="529.23" y="-15.4" font-family="Times-12" font-size="14.00"> &#160;Exports</text>
<g id="clust1" class="cluster">
<title>cluster_PublicModule</title>
<polygon fill="none" stroke="black" stroke-dasharray="1,5" points="8,-70 8,-195 687,-195 687,-70 8,-70"/>
</g>
<g id="clust4" class="cluster">
<title>cluster_PublicModule_imports</title>
<polygon fill="none" stroke="black" points="158,-78 158,-130 679,-130 679,-78 158,-78"/>
</g>
<g id="clust2" class="cluster">
<title>cluster_PublicModule_declarations</title>
<polygon fill="none" stroke="black" points="16,-78 16,-130 150,-130 150,-78 16,-78"/>
</g>
<!-- PublicComponent -->
<g id="node1" class="node">
<title>PublicComponent</title>
<polygon fill="#ffffb3" stroke="black" points="141.61,-122 24.39,-122 24.39,-86 141.61,-86 141.61,-122"/>
<text text-anchor="middle" x="83" y="-99.8" font-family="Times,serif" font-size="14.00">PublicComponent</text>
</g>
<!-- PublicModule -->
<g id="node2" class="node">
<title>PublicModule</title>
<polygon fill="#8dd3c7" stroke="black" points="378.83,-187 375.83,-191 354.83,-191 351.83,-187 283.17,-187 283.17,-151 378.83,-151 378.83,-187"/>
<text text-anchor="middle" x="331" y="-164.8" font-family="Times,serif" font-size="14.00">PublicModule</text>
</g>
<!-- PublicComponent&#45;&gt;PublicModule -->
<g id="edge1" class="edge">
<title>PublicComponent&#45;&gt;PublicModule</title>
<path fill="none" stroke="black" d="M83,-122.28C83,-143.32 83,-175 83,-175 83,-175 273.18,-175 273.18,-175"/>
<polygon fill="black" stroke="black" points="273.18,-178.5 283.18,-175 273.18,-171.5 273.18,-178.5"/>
</g>
<!-- ConsultasModule -->
<g id="node3" class="node">
<title>ConsultasModule</title>
<polygon fill="#8dd3c7" stroke="black" points="671.27,-122 668.27,-126 647.27,-126 644.27,-122 556.73,-122 556.73,-86 671.27,-86 671.27,-122"/>
<text text-anchor="middle" x="614" y="-99.8" font-family="Times,serif" font-size="14.00">ConsultasModule</text>
</g>
<!-- ConsultasModule&#45;&gt;PublicModule -->
<g id="edge2" class="edge">
<title>ConsultasModule&#45;&gt;PublicModule</title>
<path fill="none" stroke="black" d="M614,-122.28C614,-143.32 614,-175 614,-175 614,-175 388.69,-175 388.69,-175"/>
<polygon fill="black" stroke="black" points="388.69,-171.5 378.69,-175 388.69,-178.5 388.69,-171.5"/>
</g>
<!-- PublicRoutingModule -->
<g id="node4" class="node">
<title>PublicRoutingModule</title>
<polygon fill="#8dd3c7" stroke="black" points="538.45,-122 535.45,-126 514.45,-126 511.45,-122 397.55,-122 397.55,-86 538.45,-86 538.45,-122"/>
<text text-anchor="middle" x="468" y="-99.8" font-family="Times,serif" font-size="14.00">PublicRoutingModule</text>
</g>
<!-- PublicRoutingModule&#45;&gt;PublicModule -->
<g id="edge3" class="edge">
<title>PublicRoutingModule&#45;&gt;PublicModule</title>
<path fill="none" stroke="black" d="M468,-122.02C468,-139.37 468,-163 468,-163 468,-163 388.92,-163 388.92,-163"/>
<polygon fill="black" stroke="black" points="388.92,-159.5 378.92,-163 388.92,-166.5 388.92,-159.5"/>
</g>
<!-- SharedModule -->
<g id="node5" class="node">
<title>SharedModule</title>
<polygon fill="#8dd3c7" stroke="black" points="380.42,-122 377.42,-126 356.42,-126 353.42,-122 281.58,-122 281.58,-86 380.42,-86 380.42,-122"/>
<text text-anchor="middle" x="331" y="-99.8" font-family="Times,serif" font-size="14.00">SharedModule</text>
</g>
<!-- SharedModule&#45;&gt;PublicModule -->
<g id="edge4" class="edge">
<title>SharedModule&#45;&gt;PublicModule</title>
<path fill="none" stroke="black" d="M331,-122.11C331,-122.11 331,-140.99 331,-140.99"/>
<polygon fill="black" stroke="black" points="327.5,-140.99 331,-150.99 334.5,-140.99 327.5,-140.99"/>
</g>
<!-- VentasModule -->
<g id="node6" class="node">
<title>VentasModule</title>
<polygon fill="#8dd3c7" stroke="black" points="264.42,-122 261.42,-126 240.42,-126 237.42,-122 165.58,-122 165.58,-86 264.42,-86 264.42,-122"/>
<text text-anchor="middle" x="215" y="-99.8" font-family="Times,serif" font-size="14.00">VentasModule</text>
</g>
<!-- VentasModule&#45;&gt;PublicModule -->
<g id="edge5" class="edge">
<title>VentasModule&#45;&gt;PublicModule</title>
<path fill="none" stroke="black" d="M215,-122.02C215,-139.37 215,-163 215,-163 215,-163 273.15,-163 273.15,-163"/>
<polygon fill="black" stroke="black" points="273.15,-166.5 283.15,-163 273.15,-159.5 273.15,-166.5"/>
</g>
</g>
</svg>
