<?xml version="1.0" encoding="UTF-8" standalone="no"?>
<!DOCTYPE svg PUBLIC "-//W3C//DTD SVG 1.1//EN"
 "http://www.w3.org/Graphics/SVG/1.1/DTD/svg11.dtd">
<!-- Generated by graphviz version 2.47.0 (20210316.0004)
 -->
<!-- Title: dependencies Pages: 1 -->
<svg width="1270pt" height="284pt"
 viewBox="0.00 0.00 1270.00 284.00" xmlns="http://www.w3.org/2000/svg" xmlns:xlink="http://www.w3.org/1999/xlink">
<g id="graph0" class="graph" transform="scale(1 1) rotate(0) translate(4 280)">
<title>dependencies</title>
<polygon fill="white" stroke="transparent" points="-4,4 -4,-280 1266,-280 1266,4 -4,4"/>
<text text-anchor="start" x="610.01" y="-42.4" font-family="Times-12" font-weight="bold" font-size="14.00">Legend</text>
<polygon fill="#ffffb3" stroke="transparent" points="397,-10 397,-30 417,-30 417,-10 397,-10"/>
<text text-anchor="start" x="420.63" y="-15.4" font-family="Times-12" font-size="14.00"> &#160;Declarations</text>
<polygon fill="#8dd3c7" stroke="transparent" points="510,-10 510,-30 530,-30 530,-10 510,-10"/>
<text text-anchor="start" x="533.73" y="-15.4" font-family="Times-12" font-size="14.00"> &#160;Module</text>
<polygon fill="#80b1d3" stroke="transparent" points="596,-10 596,-30 616,-30 616,-10 596,-10"/>
<text text-anchor="start" x="619.78" y="-15.4" font-family="Times-12" font-size="14.00"> &#160;Bootstrap</text>
<polygon fill="#fdb462" stroke="transparent" points="693,-10 693,-30 713,-30 713,-10 693,-10"/>
<text text-anchor="start" x="716.67" y="-15.4" font-family="Times-12" font-size="14.00"> &#160;Providers</text>
<polygon fill="#fb8072" stroke="transparent" points="789,-10 789,-30 809,-30 809,-10 789,-10"/>
<text text-anchor="start" x="812.73" y="-15.4" font-family="Times-12" font-size="14.00"> &#160;Exports</text>
<g id="clust1" class="cluster">
<title>cluster_BingazoModule</title>
<polygon fill="none" stroke="black" stroke-dasharray="1,5" points="8,-70 8,-268 1254,-268 1254,-70 8,-70"/>
</g>
<g id="clust2" class="cluster">
<title>cluster_BingazoModule_declarations</title>
<polygon fill="none" stroke="black" points="138,-78 138,-130 1246,-130 1246,-78 138,-78"/>
</g>
<g id="clust11" class="cluster">
<title>cluster_BingazoModule_exports</title>
<polygon fill="none" stroke="black" points="64,-208 64,-260 1198,-260 1198,-208 64,-208"/>
</g>
<g id="clust10" class="cluster">
<title>cluster_BingazoModule_imports</title>
<polygon fill="none" stroke="black" points="16,-78 16,-130 130,-130 130,-78 16,-78"/>
</g>
<!-- BoletinComponent -->
<g id="node1" class="node">
<title>BoletinComponent</title>
<polygon fill="#ffffb3" stroke="black" points="1238.06,-122 1115.94,-122 1115.94,-86 1238.06,-86 1238.06,-122"/>
<text text-anchor="middle" x="1177" y="-99.8" font-family="Times,serif" font-size="14.00">BoletinComponent</text>
</g>
<!-- BingazoModule -->
<g id="node8" class="node">
<title>BingazoModule</title>
<polygon fill="#8dd3c7" stroke="black" points="722.21,-187 719.21,-191 698.21,-191 695.21,-187 615.79,-187 615.79,-151 722.21,-151 722.21,-187"/>
<text text-anchor="middle" x="669" y="-164.8" font-family="Times,serif" font-size="14.00">BingazoModule</text>
</g>
<!-- BoletinComponent&#45;&gt;BingazoModule -->
<g id="edge1" class="edge">
<title>BoletinComponent&#45;&gt;BingazoModule</title>
<path fill="none" stroke="black" d="M1152.88,-122.22C1152.88,-140.83 1152.88,-167 1152.88,-167 1152.88,-167 732.17,-167 732.17,-167"/>
<polygon fill="black" stroke="black" points="732.17,-163.5 722.17,-167 732.17,-170.5 732.17,-163.5"/>
</g>
<!-- ConsultaComponent -->
<g id="node2" class="node">
<title>ConsultaComponent</title>
<polygon fill="#ffffb3" stroke="black" points="1097.61,-122 966.39,-122 966.39,-86 1097.61,-86 1097.61,-122"/>
<text text-anchor="middle" x="1032" y="-99.8" font-family="Times,serif" font-size="14.00">ConsultaComponent</text>
</g>
<!-- ConsultaComponent&#45;&gt;BingazoModule -->
<g id="edge2" class="edge">
<title>ConsultaComponent&#45;&gt;BingazoModule</title>
<path fill="none" stroke="black" d="M1006.38,-122.03C1006.38,-139.06 1006.38,-162 1006.38,-162 1006.38,-162 732.46,-162 732.46,-162"/>
<polygon fill="black" stroke="black" points="732.46,-158.5 722.46,-162 732.46,-165.5 732.46,-158.5"/>
</g>
<!-- SorteoComponent -->
<g id="node3" class="node">
<title>SorteoComponent</title>
<polygon fill="#ffffb3" stroke="black" points="948.88,-122 831.12,-122 831.12,-86 948.88,-86 948.88,-122"/>
<text text-anchor="middle" x="890" y="-99.8" font-family="Times,serif" font-size="14.00">SorteoComponent</text>
</g>
<!-- SorteoComponent&#45;&gt;BingazoModule -->
<g id="edge3" class="edge">
<title>SorteoComponent&#45;&gt;BingazoModule</title>
<path fill="none" stroke="black" d="M862.38,-122.24C862.38,-137.57 862.38,-157 862.38,-157 862.38,-157 732.35,-157 732.35,-157"/>
<polygon fill="black" stroke="black" points="732.35,-153.5 722.35,-157 732.35,-160.5 732.35,-153.5"/>
</g>
<!-- TicketConsultaComponent -->
<g id="node4" class="node">
<title>TicketConsultaComponent</title>
<polygon fill="#ffffb3" stroke="black" points="813.37,-122 646.63,-122 646.63,-86 813.37,-86 813.37,-122"/>
<text text-anchor="middle" x="730" y="-99.8" font-family="Times,serif" font-size="14.00">TicketConsultaComponent</text>
</g>
<!-- TicketConsultaComponent&#45;&gt;BingazoModule -->
<g id="edge4" class="edge">
<title>TicketConsultaComponent&#45;&gt;BingazoModule</title>
<path fill="none" stroke="black" d="M684.33,-122.11C684.33,-122.11 684.33,-140.99 684.33,-140.99"/>
<polygon fill="black" stroke="black" points="680.83,-140.99 684.33,-150.99 687.83,-140.99 680.83,-140.99"/>
</g>
<!-- TicketVentasComponent -->
<g id="node5" class="node">
<title>TicketVentasComponent</title>
<polygon fill="#ffffb3" stroke="black" points="628.97,-122 473.03,-122 473.03,-86 628.97,-86 628.97,-122"/>
<text text-anchor="middle" x="551" y="-99.8" font-family="Times,serif" font-size="14.00">TicketVentasComponent</text>
</g>
<!-- TicketVentasComponent&#45;&gt;BingazoModule -->
<g id="edge5" class="edge">
<title>TicketVentasComponent&#45;&gt;BingazoModule</title>
<path fill="none" stroke="black" d="M622.44,-122.11C622.44,-122.11 622.44,-140.99 622.44,-140.99"/>
<polygon fill="black" stroke="black" points="618.94,-140.99 622.44,-150.99 625.94,-140.99 618.94,-140.99"/>
</g>
<!-- UltimoResultadoComponent -->
<g id="node6" class="node">
<title>UltimoResultadoComponent</title>
<polygon fill="#ffffb3" stroke="black" points="455.49,-122 278.51,-122 278.51,-86 455.49,-86 455.49,-122"/>
<text text-anchor="middle" x="367" y="-99.8" font-family="Times,serif" font-size="14.00">UltimoResultadoComponent</text>
</g>
<!-- UltimoResultadoComponent&#45;&gt;BingazoModule -->
<g id="edge6" class="edge">
<title>UltimoResultadoComponent&#45;&gt;BingazoModule</title>
<path fill="none" stroke="black" d="M430.88,-122.24C430.88,-137.57 430.88,-157 430.88,-157 430.88,-157 605.86,-157 605.86,-157"/>
<polygon fill="black" stroke="black" points="605.86,-160.5 615.86,-157 605.86,-153.5 605.86,-160.5"/>
</g>
<!-- VentaComponent -->
<g id="node7" class="node">
<title>VentaComponent</title>
<polygon fill="#ffffb3" stroke="black" points="260.26,-122 145.74,-122 145.74,-86 260.26,-86 260.26,-122"/>
<text text-anchor="middle" x="203" y="-99.8" font-family="Times,serif" font-size="14.00">VentaComponent</text>
</g>
<!-- VentaComponent&#45;&gt;BingazoModule -->
<g id="edge7" class="edge">
<title>VentaComponent&#45;&gt;BingazoModule</title>
<path fill="none" stroke="black" d="M234.07,-122.03C234.07,-139.06 234.07,-162 234.07,-162 234.07,-162 605.67,-162 605.67,-162"/>
<polygon fill="black" stroke="black" points="605.67,-165.5 615.67,-162 605.67,-158.5 605.67,-165.5"/>
</g>
<!-- BoletinComponent  -->
<g id="node10" class="node">
<title>BoletinComponent </title>
<polygon fill="#fb8072" stroke="black" points="1190.06,-252 1063.94,-252 1063.94,-216 1190.06,-216 1190.06,-252"/>
<text text-anchor="middle" x="1127" y="-229.8" font-family="Times,serif" font-size="14.00">BoletinComponent </text>
</g>
<!-- BingazoModule&#45;&gt;BoletinComponent  -->
<g id="edge9" class="edge">
<title>BingazoModule&#45;&gt;BoletinComponent </title>
<path fill="none" stroke="black" stroke-dasharray="5,2" d="M722.41,-172C833.82,-172 1080.76,-172 1080.76,-172 1080.76,-172 1080.76,-205.73 1080.76,-205.73"/>
<polygon fill="black" stroke="black" points="1077.26,-205.73 1080.76,-215.73 1084.26,-205.73 1077.26,-205.73"/>
</g>
<!-- ConsultaComponent  -->
<g id="node11" class="node">
<title>ConsultaComponent </title>
<polygon fill="#fb8072" stroke="black" points="1046.11,-252 911.89,-252 911.89,-216 1046.11,-216 1046.11,-252"/>
<text text-anchor="middle" x="979" y="-229.8" font-family="Times,serif" font-size="14.00">ConsultaComponent </text>
</g>
<!-- BingazoModule&#45;&gt;ConsultaComponent  -->
<g id="edge10" class="edge">
<title>BingazoModule&#45;&gt;ConsultaComponent </title>
<path fill="none" stroke="black" stroke-dasharray="5,2" d="M722.2,-177C798.6,-177 930.32,-177 930.32,-177 930.32,-177 930.32,-205.96 930.32,-205.96"/>
<polygon fill="black" stroke="black" points="926.82,-205.96 930.32,-215.96 933.82,-205.96 926.82,-205.96"/>
</g>
<!-- SorteoComponent  -->
<g id="node12" class="node">
<title>SorteoComponent </title>
<polygon fill="#fb8072" stroke="black" points="893.88,-252 772.12,-252 772.12,-216 893.88,-216 893.88,-252"/>
<text text-anchor="middle" x="833" y="-229.8" font-family="Times,serif" font-size="14.00">SorteoComponent </text>
</g>
<!-- BingazoModule&#45;&gt;SorteoComponent  -->
<g id="edge11" class="edge">
<title>BingazoModule&#45;&gt;SorteoComponent </title>
<path fill="none" stroke="black" stroke-dasharray="5,2" d="M722.25,-182C755.83,-182 792.87,-182 792.87,-182 792.87,-182 792.87,-205.81 792.87,-205.81"/>
<polygon fill="black" stroke="black" points="789.37,-205.81 792.87,-215.81 796.37,-205.81 789.37,-205.81"/>
</g>
<!-- TicketConsultaComponent  -->
<g id="node13" class="node">
<title>TicketConsultaComponent </title>
<polygon fill="#fb8072" stroke="black" points="754.37,-252 583.63,-252 583.63,-216 754.37,-216 754.37,-252"/>
<text text-anchor="middle" x="669" y="-229.8" font-family="Times,serif" font-size="14.00">TicketConsultaComponent </text>
</g>
<!-- BingazoModule&#45;&gt;TicketConsultaComponent  -->
<g id="edge12" class="edge">
<title>BingazoModule&#45;&gt;TicketConsultaComponent </title>
<path fill="none" stroke="black" stroke-dasharray="5,2" d="M669,-187.11C669,-187.11 669,-205.99 669,-205.99"/>
<polygon fill="black" stroke="black" points="665.5,-205.99 669,-215.99 672.5,-205.99 665.5,-205.99"/>
</g>
<!-- TicketVentasComponent  -->
<g id="node14" class="node">
<title>TicketVentasComponent </title>
<polygon fill="#fb8072" stroke="black" points="565.97,-252 406.03,-252 406.03,-216 565.97,-216 565.97,-252"/>
<text text-anchor="middle" x="486" y="-229.8" font-family="Times,serif" font-size="14.00">TicketVentasComponent </text>
</g>
<!-- BingazoModule&#45;&gt;TicketVentasComponent  -->
<g id="edge13" class="edge">
<title>BingazoModule&#45;&gt;TicketVentasComponent </title>
<path fill="none" stroke="black" stroke-dasharray="5,2" d="M615.83,-182C572.82,-182 519.38,-182 519.38,-182 519.38,-182 519.38,-205.81 519.38,-205.81"/>
<polygon fill="black" stroke="black" points="515.88,-205.81 519.38,-215.81 522.88,-205.81 515.88,-205.81"/>
</g>
<!-- UltimoResultadoComponent  -->
<g id="node15" class="node">
<title>UltimoResultadoComponent </title>
<polygon fill="#fb8072" stroke="black" points="388.49,-252 207.51,-252 207.51,-216 388.49,-216 388.49,-252"/>
<text text-anchor="middle" x="298" y="-229.8" font-family="Times,serif" font-size="14.00">UltimoResultadoComponent </text>
</g>
<!-- BingazoModule&#45;&gt;UltimoResultadoComponent  -->
<g id="edge14" class="edge">
<title>BingazoModule&#45;&gt;UltimoResultadoComponent </title>
<path fill="none" stroke="black" stroke-dasharray="5,2" d="M615.82,-177C521.18,-177 333.38,-177 333.38,-177 333.38,-177 333.38,-205.96 333.38,-205.96"/>
<polygon fill="black" stroke="black" points="329.88,-205.96 333.38,-215.96 336.88,-205.96 329.88,-205.96"/>
</g>
<!-- VentaComponent  -->
<g id="node16" class="node">
<title>VentaComponent </title>
<polygon fill="#fb8072" stroke="black" points="190.26,-252 71.74,-252 71.74,-216 190.26,-216 190.26,-252"/>
<text text-anchor="middle" x="131" y="-229.8" font-family="Times,serif" font-size="14.00">VentaComponent </text>
</g>
<!-- BingazoModule&#45;&gt;VentaComponent  -->
<g id="edge15" class="edge">
<title>BingazoModule&#45;&gt;VentaComponent </title>
<path fill="none" stroke="black" stroke-dasharray="5,2" d="M615.85,-172C486.87,-172 167.88,-172 167.88,-172 167.88,-172 167.88,-205.73 167.88,-205.73"/>
<polygon fill="black" stroke="black" points="164.38,-205.73 167.88,-215.73 171.38,-205.73 164.38,-205.73"/>
</g>
<!-- SharedModule -->
<g id="node9" class="node">
<title>SharedModule</title>
<polygon fill="#8dd3c7" stroke="black" points="122.42,-122 119.42,-126 98.42,-126 95.42,-122 23.58,-122 23.58,-86 122.42,-86 122.42,-122"/>
<text text-anchor="middle" x="73" y="-99.8" font-family="Times,serif" font-size="14.00">SharedModule</text>
</g>
<!-- SharedModule&#45;&gt;BingazoModule -->
<g id="edge8" class="edge">
<title>SharedModule&#45;&gt;BingazoModule</title>
<path fill="none" stroke="black" d="M97.04,-122.22C97.04,-140.83 97.04,-167 97.04,-167 97.04,-167 605.71,-167 605.71,-167"/>
<polygon fill="black" stroke="black" points="605.71,-170.5 615.71,-167 605.71,-163.5 605.71,-170.5"/>
</g>
</g>
</svg>
