<?xml version="1.0" encoding="UTF-8" standalone="no"?>
<!DOCTYPE svg PUBLIC "-//W3C//DTD SVG 1.1//EN"
 "http://www.w3.org/Graphics/SVG/1.1/DTD/svg11.dtd">
<!-- Generated by graphviz version 2.47.0 (20210316.0004)
 -->
<!-- Title: dependencies Pages: 1 -->
<svg width="728pt" height="284pt"
 viewBox="0.00 0.00 728.00 284.00" xmlns="http://www.w3.org/2000/svg" xmlns:xlink="http://www.w3.org/1999/xlink">
<g id="graph0" class="graph" transform="scale(1 1) rotate(0) translate(4 280)">
<title>dependencies</title>
<polygon fill="white" stroke="transparent" points="-4,4 -4,-280 724,-280 724,4 -4,4"/>
<text text-anchor="start" x="339.01" y="-42.4" font-family="Times-12" font-weight="bold" font-size="14.00">Legend</text>
<polygon fill="#ffffb3" stroke="transparent" points="126,-10 126,-30 146,-30 146,-10 126,-10"/>
<text text-anchor="start" x="149.63" y="-15.4" font-family="Times-12" font-size="14.00"> &#160;Declarations</text>
<polygon fill="#8dd3c7" stroke="transparent" points="239,-10 239,-30 259,-30 259,-10 239,-10"/>
<text text-anchor="start" x="262.73" y="-15.4" font-family="Times-12" font-size="14.00"> &#160;Module</text>
<polygon fill="#80b1d3" stroke="transparent" points="325,-10 325,-30 345,-30 345,-10 325,-10"/>
<text text-anchor="start" x="348.78" y="-15.4" font-family="Times-12" font-size="14.00"> &#160;Bootstrap</text>
<polygon fill="#fdb462" stroke="transparent" points="422,-10 422,-30 442,-30 442,-10 422,-10"/>
<text text-anchor="start" x="445.67" y="-15.4" font-family="Times-12" font-size="14.00"> &#160;Providers</text>
<polygon fill="#fb8072" stroke="transparent" points="518,-10 518,-30 538,-30 538,-10 518,-10"/>
<text text-anchor="start" x="541.73" y="-15.4" font-family="Times-12" font-size="14.00"> &#160;Exports</text>
<g id="clust1" class="cluster">
<title>cluster_AdministracionModule</title>
<polygon fill="none" stroke="black" stroke-dasharray="1,5" points="8,-70 8,-268 712,-268 712,-70 8,-70"/>
</g>
<g id="clust2" class="cluster">
<title>cluster_AdministracionModule_declarations</title>
<polygon fill="none" stroke="black" points="348,-78 348,-130 704,-130 704,-78 348,-78"/>
</g>
<g id="clust5" class="cluster">
<title>cluster_AdministracionModule_imports</title>
<polygon fill="none" stroke="black" points="16,-78 16,-130 340,-130 340,-78 16,-78"/>
</g>
<g id="clust6" class="cluster">
<title>cluster_AdministracionModule_exports</title>
<polygon fill="none" stroke="black" points="247,-208 247,-260 421,-260 421,-208 247,-208"/>
</g>
<!-- AdministracionComponent -->
<g id="node1" class="node">
<title>AdministracionComponent</title>
<polygon fill="#ffffb3" stroke="black" points="696.43,-122 527.57,-122 527.57,-86 696.43,-86 696.43,-122"/>
<text text-anchor="middle" x="612" y="-99.8" font-family="Times,serif" font-size="14.00">AdministracionComponent</text>
</g>
<!-- AdministracionModule -->
<g id="node3" class="node">
<title>AdministracionModule</title>
<polygon fill="#8dd3c7" stroke="black" points="407.14,-187 404.14,-191 383.14,-191 380.14,-187 260.86,-187 260.86,-151 407.14,-151 407.14,-187"/>
<text text-anchor="middle" x="334" y="-164.8" font-family="Times,serif" font-size="14.00">AdministracionModule</text>
</g>
<!-- AdministracionComponent&#45;&gt;AdministracionModule -->
<g id="edge1" class="edge">
<title>AdministracionComponent&#45;&gt;AdministracionModule</title>
<path fill="none" stroke="black" d="M612,-122.11C612,-141.34 612,-169 612,-169 612,-169 417.4,-169 417.4,-169"/>
<polygon fill="black" stroke="black" points="417.4,-165.5 407.4,-169 417.4,-172.5 417.4,-165.5"/>
</g>
<!-- PopupPromoComponent -->
<g id="node2" class="node">
<title>PopupPromoComponent</title>
<polygon fill="#ffffb3" stroke="black" points="510.45,-122 355.55,-122 355.55,-86 510.45,-86 510.45,-122"/>
<text text-anchor="middle" x="433" y="-99.8" font-family="Times,serif" font-size="14.00">PopupPromoComponent</text>
</g>
<!-- PopupPromoComponent&#45;&gt;AdministracionModule -->
<g id="edge2" class="edge">
<title>PopupPromoComponent&#45;&gt;AdministracionModule</title>
<path fill="none" stroke="black" d="M381.55,-122.11C381.55,-122.11 381.55,-140.99 381.55,-140.99"/>
<polygon fill="black" stroke="black" points="378.05,-140.99 381.55,-150.99 385.05,-140.99 378.05,-140.99"/>
</g>
<!-- PopupPromoComponent  -->
<g id="node6" class="node">
<title>PopupPromoComponent </title>
<polygon fill="#fb8072" stroke="black" points="412.95,-252 255.05,-252 255.05,-216 412.95,-216 412.95,-252"/>
<text text-anchor="middle" x="334" y="-229.8" font-family="Times,serif" font-size="14.00">PopupPromoComponent </text>
</g>
<!-- AdministracionModule&#45;&gt;PopupPromoComponent  -->
<g id="edge5" class="edge">
<title>AdministracionModule&#45;&gt;PopupPromoComponent </title>
<path fill="none" stroke="black" stroke-dasharray="5,2" d="M334,-187.11C334,-187.11 334,-205.99 334,-205.99"/>
<polygon fill="black" stroke="black" points="330.5,-205.99 334,-215.99 337.5,-205.99 330.5,-205.99"/>
</g>
<!-- AdministracionRoutingModule -->
<g id="node4" class="node">
<title>AdministracionRoutingModule</title>
<polygon fill="#8dd3c7" stroke="black" points="331.76,-122 328.76,-126 307.76,-126 304.76,-122 140.24,-122 140.24,-86 331.76,-86 331.76,-122"/>
<text text-anchor="middle" x="236" y="-99.8" font-family="Times,serif" font-size="14.00">AdministracionRoutingModule</text>
</g>
<!-- AdministracionRoutingModule&#45;&gt;AdministracionModule -->
<g id="edge3" class="edge">
<title>AdministracionRoutingModule&#45;&gt;AdministracionModule</title>
<path fill="none" stroke="black" d="M296.28,-122.11C296.28,-122.11 296.28,-140.99 296.28,-140.99"/>
<polygon fill="black" stroke="black" points="292.78,-140.99 296.28,-150.99 299.78,-140.99 292.78,-140.99"/>
</g>
<!-- SharedModule -->
<g id="node5" class="node">
<title>SharedModule</title>
<polygon fill="#8dd3c7" stroke="black" points="122.42,-122 119.42,-126 98.42,-126 95.42,-122 23.58,-122 23.58,-86 122.42,-86 122.42,-122"/>
<text text-anchor="middle" x="73" y="-99.8" font-family="Times,serif" font-size="14.00">SharedModule</text>
</g>
<!-- SharedModule&#45;&gt;AdministracionModule -->
<g id="edge4" class="edge">
<title>SharedModule&#45;&gt;AdministracionModule</title>
<path fill="none" stroke="black" d="M73,-122.11C73,-141.34 73,-169 73,-169 73,-169 250.6,-169 250.6,-169"/>
<polygon fill="black" stroke="black" points="250.6,-172.5 260.6,-169 250.6,-165.5 250.6,-172.5"/>
</g>
</g>
</svg>
