<?xml version="1.0" encoding="UTF-8" standalone="no"?>
<!DOCTYPE svg PUBLIC "-//W3C//DTD SVG 1.1//EN"
 "http://www.w3.org/Graphics/SVG/1.1/DTD/svg11.dtd">
<!-- Generated by graphviz version 2.47.0 (20210316.0004)
 -->
<!-- Title: dependencies Pages: 1 -->
<svg width="642pt" height="211pt"
 viewBox="0.00 0.00 642.00 211.00" xmlns="http://www.w3.org/2000/svg" xmlns:xlink="http://www.w3.org/1999/xlink">
<g id="graph0" class="graph" transform="scale(1 1) rotate(0) translate(4 207)">
<title>dependencies</title>
<polygon fill="white" stroke="transparent" points="-4,4 -4,-207 638,-207 638,4 -4,4"/>
<text text-anchor="start" x="296.01" y="-42.4" font-family="Times-12" font-weight="bold" font-size="14.00">Legend</text>
<polygon fill="#ffffb3" stroke="transparent" points="83,-10 83,-30 103,-30 103,-10 83,-10"/>
<text text-anchor="start" x="106.63" y="-15.4" font-family="Times-12" font-size="14.00"> &#160;Declarations</text>
<polygon fill="#8dd3c7" stroke="transparent" points="196,-10 196,-30 216,-30 216,-10 196,-10"/>
<text text-anchor="start" x="219.73" y="-15.4" font-family="Times-12" font-size="14.00"> &#160;Module</text>
<polygon fill="#80b1d3" stroke="transparent" points="282,-10 282,-30 302,-30 302,-10 282,-10"/>
<text text-anchor="start" x="305.78" y="-15.4" font-family="Times-12" font-size="14.00"> &#160;Bootstrap</text>
<polygon fill="#fdb462" stroke="transparent" points="379,-10 379,-30 399,-30 399,-10 379,-10"/>
<text text-anchor="start" x="402.67" y="-15.4" font-family="Times-12" font-size="14.00"> &#160;Providers</text>
<polygon fill="#fb8072" stroke="transparent" points="475,-10 475,-30 495,-30 495,-10 475,-10"/>
<text text-anchor="start" x="498.73" y="-15.4" font-family="Times-12" font-size="14.00"> &#160;Exports</text>
<g id="clust1" class="cluster">
<title>cluster_CodigosPromocionalesModule</title>
<polygon fill="none" stroke="black" stroke-dasharray="1,5" points="8,-70 8,-195 626,-195 626,-70 8,-70"/>
</g>
<g id="clust2" class="cluster">
<title>cluster_CodigosPromocionalesModule_declarations</title>
<polygon fill="none" stroke="black" points="390,-78 390,-130 618,-130 618,-78 390,-78"/>
</g>
<g id="clust4" class="cluster">
<title>cluster_CodigosPromocionalesModule_imports</title>
<polygon fill="none" stroke="black" points="16,-78 16,-130 382,-130 382,-78 16,-78"/>
</g>
<!-- CodigosPromocionalesComponent -->
<g id="node1" class="node">
<title>CodigosPromocionalesComponent</title>
<polygon fill="#ffffb3" stroke="black" points="609.71,-122 398.29,-122 398.29,-86 609.71,-86 609.71,-122"/>
<text text-anchor="middle" x="504" y="-99.8" font-family="Times,serif" font-size="14.00">CodigosPromocionalesComponent</text>
</g>
<!-- CodigosPromocionalesModule -->
<g id="node2" class="node">
<title>CodigosPromocionalesModule</title>
<polygon fill="#8dd3c7" stroke="black" points="351.93,-187 348.93,-191 327.93,-191 324.93,-187 162.07,-187 162.07,-151 351.93,-151 351.93,-187"/>
<text text-anchor="middle" x="257" y="-164.8" font-family="Times,serif" font-size="14.00">CodigosPromocionalesModule</text>
</g>
<!-- CodigosPromocionalesComponent&#45;&gt;CodigosPromocionalesModule -->
<g id="edge1" class="edge">
<title>CodigosPromocionalesComponent&#45;&gt;CodigosPromocionalesModule</title>
<path fill="none" stroke="black" d="M504,-122.11C504,-141.34 504,-169 504,-169 504,-169 361.79,-169 361.79,-169"/>
<polygon fill="black" stroke="black" points="361.79,-165.5 351.79,-169 361.79,-172.5 361.79,-165.5"/>
</g>
<!-- CodigosPromocionalesRoutingModule -->
<g id="node3" class="node">
<title>CodigosPromocionalesRoutingModule</title>
<polygon fill="#8dd3c7" stroke="black" points="374.04,-122 371.04,-126 350.04,-126 347.04,-122 139.96,-122 139.96,-86 374.04,-86 374.04,-122"/>
<text text-anchor="middle" x="257" y="-99.8" font-family="Times,serif" font-size="14.00">CodigosPromocionalesRoutingModule</text>
</g>
<!-- CodigosPromocionalesRoutingModule&#45;&gt;CodigosPromocionalesModule -->
<g id="edge2" class="edge">
<title>CodigosPromocionalesRoutingModule&#45;&gt;CodigosPromocionalesModule</title>
<path fill="none" stroke="black" d="M257,-122.11C257,-122.11 257,-140.99 257,-140.99"/>
<polygon fill="black" stroke="black" points="253.5,-140.99 257,-150.99 260.5,-140.99 253.5,-140.99"/>
</g>
<!-- SharedModule -->
<g id="node4" class="node">
<title>SharedModule</title>
<polygon fill="#8dd3c7" stroke="black" points="122.42,-122 119.42,-126 98.42,-126 95.42,-122 23.58,-122 23.58,-86 122.42,-86 122.42,-122"/>
<text text-anchor="middle" x="73" y="-99.8" font-family="Times,serif" font-size="14.00">SharedModule</text>
</g>
<!-- SharedModule&#45;&gt;CodigosPromocionalesModule -->
<g id="edge3" class="edge">
<title>SharedModule&#45;&gt;CodigosPromocionalesModule</title>
<path fill="none" stroke="black" d="M73,-122.11C73,-141.34 73,-169 73,-169 73,-169 152.04,-169 152.04,-169"/>
<polygon fill="black" stroke="black" points="152.04,-172.5 162.04,-169 152.04,-165.5 152.04,-172.5"/>
</g>
</g>
</svg>
