<svg id="Capa_1" data-name="Capa 1" xmlns="http://www.w3.org/2000/svg" xmlns:xlink="http://www.w3.org/1999/xlink" viewBox="0 0 500 170"><defs><style>.cls-1{fill:#eae9ce;}.cls-2{fill:red;}.cls-3{clip-path:url(#clip-path);}.cls-4{clip-path:url(#clip-path-2);}.cls-5{clip-path:url(#clip-path-3);}.cls-6{clip-path:url(#clip-path-4);}.cls-7{fill:#8200ff;}.cls-8{clip-path:url(#clip-path-5);}.cls-9{clip-path:url(#clip-path-6);}.cls-10{clip-path:url(#clip-path-7);}.cls-11{clip-path:url(#clip-path-8);}.cls-12{fill:#39b200;}.cls-13{clip-path:url(#clip-path-9);}.cls-14{clip-path:url(#clip-path-10);}.cls-15{clip-path:url(#clip-path-11);}.cls-16{clip-path:url(#clip-path-12);}.cls-17{fill:#00d1cb;}.cls-18{clip-path:url(#clip-path-13);}.cls-19{clip-path:url(#clip-path-14);}.cls-20{clip-path:url(#clip-path-15);}.cls-21{clip-path:url(#clip-path-16);}.cls-22{fill:#ff6d00;}.cls-23{clip-path:url(#clip-path-17);}.cls-24{clip-path:url(#clip-path-18);}.cls-25{clip-path:url(#clip-path-19);}.cls-26{clip-path:url(#clip-path-20);}.cls-27{fill:#04b865;}.cls-28{fill:#333;}</style><clipPath id="clip-path"><path class="cls-1" d="M155.44,49.87a7.4,7.4,0,0,0-5.82,8.26,12.7,12.7,0,0,0,5.82-8.26Z"/></clipPath><clipPath id="clip-path-2"><path class="cls-1" d="M130.49,44.64a7.4,7.4,0,0,0,5.82-8.26,12.79,12.79,0,0,0-5.82,8.26Z"/></clipPath><clipPath id="clip-path-3"><path class="cls-1" d="M145.58,34.77a7.37,7.37,0,0,0,8.26,5.82,12.72,12.72,0,0,0-3.53-3.76A12.89,12.89,0,0,0,145.58,34.77Z"/></clipPath><clipPath id="clip-path-4"><path class="cls-1" d="M140.35,59.73a7.38,7.38,0,0,0-8.25-5.82,12.7,12.7,0,0,0,3.52,3.76A12.56,12.56,0,0,0,140.35,59.73Z"/></clipPath><clipPath id="clip-path-5"><path class="cls-1" d="M85.56,26.23a11,11,0,0,0-5.3,6.94,11,11,0,0,0,.88,8.7,20.45,20.45,0,0,0,4.42-15.64Z"/></clipPath><clipPath id="clip-path-6"><path class="cls-1" d="M44.9,31.62a11,11,0,0,0,5.31-6.94,11,11,0,0,0-.88-8.7A20.51,20.51,0,0,0,44.9,31.62Z"/></clipPath><clipPath id="clip-path-7"><path class="cls-1" d="M62.54,8.59a11,11,0,0,0,6.95,5.31A11,11,0,0,0,78.18,13a20.36,20.36,0,0,0-7.36-3.83A20.71,20.71,0,0,0,62.54,8.59Z"/></clipPath><clipPath id="clip-path-8"><path class="cls-1" d="M67.93,49.26A11,11,0,0,0,61,44a11,11,0,0,0-8.7.88,20.54,20.54,0,0,0,15.64,4.43Z"/></clipPath><clipPath id="clip-path-9"><path class="cls-1" d="M110.81,3.44a7.68,7.68,0,0,0,3.25,5.17A7.67,7.67,0,0,0,120,10.15a14.36,14.36,0,0,0-9.16-6.71Z"/></clipPath><clipPath id="clip-path-10"><path class="cls-1" d="M104.41,31.39a8.31,8.31,0,0,0-9.16-6.72,14.33,14.33,0,0,0,9.16,6.72Z"/></clipPath><clipPath id="clip-path-11"><path class="cls-1" d="M93.64,14.21A7.68,7.68,0,0,0,98.81,11a7.67,7.67,0,0,0,1.54-5.91,14.36,14.36,0,0,0-6.71,9.16Z"/></clipPath><clipPath id="clip-path-12"><path class="cls-1" d="M121.59,20.6a7.68,7.68,0,0,0-5.17,3.26,7.72,7.72,0,0,0-1.55,5.91,14.31,14.31,0,0,0,6.72-9.17Z"/></clipPath><clipPath id="clip-path-13"><path class="cls-1" d="M119.81,32.83a6.11,6.11,0,0,0,6.37,5.42,10.57,10.57,0,0,0-6.37-5.42Z"/></clipPath><clipPath id="clip-path-14"><path class="cls-1" d="M113.62,53a6.11,6.11,0,0,0-6.36-5.42,10.39,10.39,0,0,0,2.62,3.36A10.53,10.53,0,0,0,113.62,53Z"/></clipPath><clipPath id="clip-path-15"><path class="cls-1" d="M106.64,39.81a6.11,6.11,0,0,0,5.42-6.37,10.57,10.57,0,0,0-5.42,6.37Z"/></clipPath><clipPath id="clip-path-16"><path class="cls-1" d="M126.8,46a6.11,6.11,0,0,0-5.42,6.36A10.6,10.6,0,0,0,126.8,46Z"/></clipPath><clipPath id="clip-path-17"><path class="cls-1" d="M85.86,50.19a5,5,0,0,0,1.44-6.73,8.64,8.64,0,0,0-1.44,6.73Z"/></clipPath><clipPath id="clip-path-18"><path class="cls-1" d="M102.89,46.81a5,5,0,0,0-1.44,6.73,8.73,8.73,0,0,0,1.44-6.73Z"/></clipPath><clipPath id="clip-path-19"><path class="cls-1" d="M96.06,57a5,5,0,0,0-6.72-1.44A8.71,8.71,0,0,0,96.06,57Z"/></clipPath><clipPath id="clip-path-20"><path class="cls-1" d="M92.68,40a5,5,0,0,0,6.73,1.44A8.64,8.64,0,0,0,92.68,40Z"/></clipPath></defs><title>iconos new menu loteria nacional carrito</title><circle class="cls-2" cx="142.97" cy="47.25" r="12.75" transform="translate(39.15 156.31) rotate(-64.7)"/><path class="cls-1" d="M147.91,50.74a6.09,6.09,0,1,1-1.47-8.48A6.09,6.09,0,0,1,147.91,50.74Z"/><path class="cls-1" d="M155.44,49.87a7.4,7.4,0,0,0-5.82,8.26,12.7,12.7,0,0,0,5.82-8.26Z"/><g class="cls-3"><path d="M150.94,56.34a.8.8,0,0,1-.29-.29.76.76,0,0,1-.11-.37,1.16,1.16,0,0,1,.08-.43,1.64,1.64,0,0,1,.24-.45,1.83,1.83,0,0,1,.38-.4,1.1,1.1,0,0,1,.39-.22,1,1,0,0,1,.36,0,.57.57,0,0,1,.3.11.79.79,0,0,1,.19.17.48.48,0,0,1,.08.18.5.5,0,0,1,0,.21,1.12,1.12,0,0,1-.06.23c.31-.27.59-.32.82-.16a.58.58,0,0,1,.21.26.69.69,0,0,1,0,.32,1,1,0,0,1-.1.36,1.68,1.68,0,0,1-.21.36,1.72,1.72,0,0,1-.26.32,1.86,1.86,0,0,1-.28.21,1.05,1.05,0,0,1-.31.12,1.44,1.44,0,0,1-.37,0l.1-.29a.43.43,0,0,1,.11-.2.38.38,0,0,1,.16-.09.87.87,0,0,0,.31-.1.59.59,0,0,0,.2-.19.54.54,0,0,0,.1-.18.39.39,0,0,0,0-.15.17.17,0,0,0,0-.12.16.16,0,0,0-.08-.08.38.38,0,0,0-.13-.06.17.17,0,0,0-.14,0,.7.7,0,0,0-.19.14,2,2,0,0,0-.26.32l-.36-.18a1.23,1.23,0,0,0,.19-.31.48.48,0,0,0,.06-.21.16.16,0,0,0,0-.14.4.4,0,0,0-.12-.1.36.36,0,0,0-.3,0,.48.48,0,0,0-.28.22.53.53,0,0,0-.11.29.35.35,0,0,0,.07.23.22.22,0,0,1,.06.18.63.63,0,0,1-.13.21Z"/><path d="M154.93,53.07a.32.32,0,0,1,.13-.11.09.09,0,0,1,.11,0l.18.21L154.06,55l-.12-.08a.28.28,0,0,1-.06-.08.27.27,0,0,1,0-.13l0-1.25c0-.11,0-.21,0-.31a1.17,1.17,0,0,0-.1-.47,1.09,1.09,0,0,0-.13-.17.27.27,0,0,0-.26-.11.43.43,0,0,0-.27.2.63.63,0,0,0-.12.3.55.55,0,0,0,0,.27.34.34,0,0,1,0,.21.5.5,0,0,1-.14.22l-.29.31a1.14,1.14,0,0,1-.28-.81,1.32,1.32,0,0,1,.1-.47,2,2,0,0,1,.26-.47,1.55,1.55,0,0,1,.37-.39.83.83,0,0,1,.38-.18.56.56,0,0,1,.34,0,.66.66,0,0,1,.29.21.91.91,0,0,1,.17.28,1.57,1.57,0,0,1,.08.31,2,2,0,0,1,0,.35c0,.11,0,.24,0,.36l0,.87a1.63,1.63,0,0,1,.11-.23,1.57,1.57,0,0,1,.12-.19Z"/></g><path class="cls-1" d="M130.49,44.64a7.4,7.4,0,0,0,5.82-8.26,12.79,12.79,0,0,0-5.82,8.26Z"/><g class="cls-4"><path d="M135,38.26a.78.78,0,0,1,.29.28.83.83,0,0,1,.11.37,1.12,1.12,0,0,1-.08.43,1.91,1.91,0,0,1-.25.46,1.79,1.79,0,0,1-.37.4,1.54,1.54,0,0,1-.39.22,1,1,0,0,1-.37,0,.64.64,0,0,1-.3-.11.57.57,0,0,1-.18-.16.47.47,0,0,1-.09-.39,1,1,0,0,1,.06-.23c-.32.26-.59.31-.82.15a.53.53,0,0,1-.21-.26.57.57,0,0,1,0-.32,1.09,1.09,0,0,1,.1-.36,2.16,2.16,0,0,1,.2-.36,2.86,2.86,0,0,1,.27-.31,1,1,0,0,1,.27-.21,1.27,1.27,0,0,1,.32-.13,2,2,0,0,1,.37-.05l-.1.3a.41.41,0,0,1-.12.19.26.26,0,0,1-.15.1.81.81,0,0,0-.31.09.63.63,0,0,0-.21.19,1,1,0,0,0-.09.18.44.44,0,0,0,0,.15.28.28,0,0,0,0,.13.24.24,0,0,0,.09.08l.13.06a.18.18,0,0,0,.14,0,.54.54,0,0,0,.19-.14,2.44,2.44,0,0,0,.26-.31l.35.17c-.08.13-.15.23-.19.31a1.5,1.5,0,0,0-.06.22.19.19,0,0,0,.05.14.52.52,0,0,0,.11.1.44.44,0,0,0,.31.05.53.53,0,0,0,.28-.23.5.5,0,0,0,.11-.29.32.32,0,0,0-.07-.22.22.22,0,0,1-.06-.18.5.5,0,0,1,.13-.21Z"/><path d="M131,41.52a.26.26,0,0,1-.13.11.11.11,0,0,1-.12,0l-.17-.21,1.29-1.81.11.09a.11.11,0,0,1,.06.07.21.21,0,0,1,0,.14l0,1.24v.31a1.59,1.59,0,0,0,0,.26,1.42,1.42,0,0,0,.07.22.7.7,0,0,0,.13.17.32.32,0,0,0,.26.11.43.43,0,0,0,.27-.2.67.67,0,0,0,.12-.31.49.49,0,0,0-.05-.27.41.41,0,0,1,0-.21A.63.63,0,0,1,133,41l.3-.31a1,1,0,0,1,.22.37,1.09,1.09,0,0,1,.06.44,1.65,1.65,0,0,1-.1.47,2.42,2.42,0,0,1-.26.47,2,2,0,0,1-.37.39,1.09,1.09,0,0,1-.38.18.69.69,0,0,1-.35,0,.79.79,0,0,1-.29-.21.92.92,0,0,1-.16-.27,1.67,1.67,0,0,1-.08-.32c0-.11,0-.22,0-.34s0-.24,0-.36l0-.87a1.51,1.51,0,0,1-.11.22,1.76,1.76,0,0,1-.12.2Z"/></g><path class="cls-1" d="M145.58,34.77a7.37,7.37,0,0,0,8.26,5.82,12.72,12.72,0,0,0-3.53-3.76A12.89,12.89,0,0,0,145.58,34.77Z"/><g class="cls-5"><path d="M152,39.43a.89.89,0,0,1-.29.29.79.79,0,0,1-.37.1,1.11,1.11,0,0,1-.43-.07,2,2,0,0,1-.45-.25,1.81,1.81,0,0,1-.4-.37,1.23,1.23,0,0,1-.22-.4.77.77,0,0,1,0-.36.64.64,0,0,1,.11-.3.59.59,0,0,1,.17-.18.38.38,0,0,1,.18-.09.49.49,0,0,1,.21,0l.23.07c-.27-.32-.32-.6-.16-.82a.47.47,0,0,1,.26-.21.69.69,0,0,1,.32,0,1.21,1.21,0,0,1,.36.1l.36.21a2.12,2.12,0,0,1,.31.26,1.42,1.42,0,0,1,.22.28,1.17,1.17,0,0,1,.12.31,1.52,1.52,0,0,1,0,.38l-.29-.1a.56.56,0,0,1-.2-.12A.33.33,0,0,1,152,38a.81.81,0,0,0-.1-.3.54.54,0,0,0-.19-.21.38.38,0,0,0-.18-.09l-.15,0-.12,0a.2.2,0,0,0-.08.08.49.49,0,0,0-.06.13.2.2,0,0,0,0,.15.65.65,0,0,0,.14.19,2.78,2.78,0,0,0,.32.25l-.18.36a2,2,0,0,0-.31-.19.52.52,0,0,0-.21-.06.2.2,0,0,0-.14,0,.4.4,0,0,0-.1.12.36.36,0,0,0,0,.3.53.53,0,0,0,.22.29.62.62,0,0,0,.29.11.36.36,0,0,0,.23-.08.21.21,0,0,1,.18,0,.51.51,0,0,1,.21.13Z"/><path d="M148.77,35.43a.22.22,0,0,1-.11-.13.1.1,0,0,1,0-.11l.2-.18,1.81,1.29-.08.12-.08.06-.13,0-1.25,0h-.31a1.86,1.86,0,0,0-.26,0,1,1,0,0,0-.21.08.52.52,0,0,0-.17.12.31.31,0,0,0-.12.26.46.46,0,0,0,.21.27.63.63,0,0,0,.3.12.46.46,0,0,0,.27,0,.27.27,0,0,1,.21,0,.47.47,0,0,1,.22.13l.31.29a1.08,1.08,0,0,1-.38.23,1.56,1.56,0,0,1-.44.06,1.54,1.54,0,0,1-.46-.11,2.37,2.37,0,0,1-.47-.25,1.75,1.75,0,0,1-.39-.37.87.87,0,0,1-.18-.38.59.59,0,0,1,0-.35.66.66,0,0,1,.21-.29,1.17,1.17,0,0,1,.28-.17,1.55,1.55,0,0,1,.31-.07,2,2,0,0,1,.35,0h.36l.87,0-.23-.12-.19-.12Z"/></g><path class="cls-1" d="M140.35,59.73a7.38,7.38,0,0,0-8.25-5.82,12.7,12.7,0,0,0,3.52,3.76A12.56,12.56,0,0,0,140.35,59.73Z"/><g class="cls-6"><path d="M133.88,55.12a.78.78,0,0,1,.28-.29.83.83,0,0,1,.37-.11,1.12,1.12,0,0,1,.43.08,1.91,1.91,0,0,1,.46.25,1.79,1.79,0,0,1,.4.37,1.54,1.54,0,0,1,.22.39,1,1,0,0,1,0,.37.64.64,0,0,1-.11.3.57.57,0,0,1-.16.18.66.66,0,0,1-.19.09h-.2a1,1,0,0,1-.23-.06c.26.32.31.59.15.82a.53.53,0,0,1-.26.21.57.57,0,0,1-.32,0,1.09,1.09,0,0,1-.36-.1,2.16,2.16,0,0,1-.36-.2,2.86,2.86,0,0,1-.31-.27,1,1,0,0,1-.21-.27,1.27,1.27,0,0,1-.13-.32,2,2,0,0,1,0-.37l.3.1a.47.47,0,0,1,.19.12.26.26,0,0,1,.1.15.81.81,0,0,0,.09.31.63.63,0,0,0,.19.21l.18.09a.44.44,0,0,0,.15,0,.28.28,0,0,0,.13,0,.24.24,0,0,0,.08-.09l.06-.13a.18.18,0,0,0,0-.14.54.54,0,0,0-.14-.19,2,2,0,0,0-.32-.26l.18-.35.31.19.22.06a.24.24,0,0,0,.14-.05.52.52,0,0,0,.1-.11.44.44,0,0,0,.05-.31.53.53,0,0,0-.23-.28.5.5,0,0,0-.29-.11.32.32,0,0,0-.22.07.22.22,0,0,1-.18.06.5.5,0,0,1-.21-.13Z"/><path d="M137.14,59.11a.26.26,0,0,1,.11.13.11.11,0,0,1,0,.12l-.21.17-1.81-1.29.09-.11a.11.11,0,0,1,.07-.06.21.21,0,0,1,.14,0l1.24,0h.31l.26,0,.22-.07a.7.7,0,0,0,.17-.13.32.32,0,0,0,.11-.26.43.43,0,0,0-.2-.27.67.67,0,0,0-.31-.12.49.49,0,0,0-.27.05.41.41,0,0,1-.21,0,.63.63,0,0,1-.21-.13l-.31-.3a1,1,0,0,1,.37-.22,1.09,1.09,0,0,1,.44-.06,1.65,1.65,0,0,1,.47.1,2.75,2.75,0,0,1,.47.26,2,2,0,0,1,.39.37,1.09,1.09,0,0,1,.18.38.69.69,0,0,1,0,.35.79.79,0,0,1-.21.29.92.92,0,0,1-.27.16,1.67,1.67,0,0,1-.32.08l-.34,0h-.36l-.87,0a1.51,1.51,0,0,1,.22.11l.2.12Z"/></g><path d="M140.15,44.05a2.27,2.27,0,0,1,.65-.47,1.77,1.77,0,0,1,.69-.18,1.85,1.85,0,0,1,.69.11,2.87,2.87,0,0,1,.67.35,2.42,2.42,0,0,1,.55.56,1.6,1.6,0,0,1,.27.6,1.51,1.51,0,0,1,0,.6,1.32,1.32,0,0,1-.24.54,1.69,1.69,0,0,1-.34.36,1,1,0,0,1-.35.2.92.92,0,0,1-.37.05,2.07,2.07,0,0,1-.41-.07,1.31,1.31,0,0,1,0,1.64,1.91,1.91,0,0,1-.62.56,1.76,1.76,0,0,1-.7.2,2.06,2.06,0,0,1-.73-.11,2.77,2.77,0,0,1-.7-.37,2.48,2.48,0,0,1-.55-.51,1.65,1.65,0,0,1-.3-.57,1.74,1.74,0,0,1-.07-.65,3.31,3.31,0,0,1,.14-.77l.59.14a.69.69,0,0,1,.35.21.35.35,0,0,1,.1.3,1.52,1.52,0,0,0,0,.62.81.81,0,0,0,.29.4,1.15,1.15,0,0,0,.34.16.81.81,0,0,0,.31,0,.75.75,0,0,0,.28-.11.8.8,0,0,0,.21-.2,3.31,3.31,0,0,0,.18-.29.48.48,0,0,0,0-.29.75.75,0,0,0-.2-.35,2.71,2.71,0,0,0-.51-.45l.51-.69a2.39,2.39,0,0,0,.51.3.92.92,0,0,0,.37.08.49.49,0,0,0,.27-.1,1.21,1.21,0,0,0,.22-.23.83.83,0,0,0,.18-.53.68.68,0,0,0-.31-.45.74.74,0,0,0-.46-.15.74.74,0,0,0-.43.14.51.51,0,0,1-.35.1.6.6,0,0,1-.33-.2Z"/><path d="M144.78,51.2a.44.44,0,0,1,.19.27.4.4,0,0,1-.08.31l-.42.58-3.33-2.42.24-.32a.58.58,0,0,1,.46-.27L144.2,49a5.15,5.15,0,0,0,.55-.12,2.37,2.37,0,0,0,.45-.15,3,3,0,0,0,.35-.22,1.63,1.63,0,0,0,.28-.3.73.73,0,0,0,.18-.53.7.7,0,0,0-.3-.45.71.71,0,0,0-.47-.15.75.75,0,0,0-.42.13.5.5,0,0,1-.36.11.6.6,0,0,1-.33-.2l-.46-.48a2.23,2.23,0,0,1,.65-.48,1.75,1.75,0,0,1,1.37-.06,2.52,2.52,0,0,1,.67.35,2.16,2.16,0,0,1,.56.57,1.59,1.59,0,0,1,.27.63,1.43,1.43,0,0,1,0,.65,1.66,1.66,0,0,1-.3.63,1.57,1.57,0,0,1-.42.43,2.22,2.22,0,0,1-.5.28,3.86,3.86,0,0,1-.58.17l-.63.12-1.62.27a2.65,2.65,0,0,1,.42.18,2.18,2.18,0,0,1,.34.2Z"/><path class="cls-7" d="M85,34.51A20.51,20.51,0,1,1,70.82,9.19,20.5,20.5,0,0,1,85,34.51Z"/><path class="cls-1" d="M74.65,31.59A9.79,9.79,0,1,1,67.9,19.5,9.78,9.78,0,0,1,74.65,31.59Z"/><path d="M62.28,26.23a4,4,0,0,1,.79-1.18,3,3,0,0,1,1-.7,3.08,3.08,0,0,1,1.21-.25,4.48,4.48,0,0,1,1.33.18,4,4,0,0,1,1.25.57,3.21,3.21,0,0,1,.81.84,2.59,2.59,0,0,1,.37,1A2.67,2.67,0,0,1,69,27.73a3.5,3.5,0,0,1-.33.8,1.88,1.88,0,0,1-.46.54,1.75,1.75,0,0,1-.59.31,3.09,3.09,0,0,1-.71.13,2.3,2.3,0,0,1,1,2.71,3.1,3.1,0,0,1-.68,1.3,2.94,2.94,0,0,1-1,.76,3.37,3.37,0,0,1-1.28.27,4.68,4.68,0,0,1-1.38-.18,5.53,5.53,0,0,1-1.22-.51,3.11,3.11,0,0,1-.85-.76,3.26,3.26,0,0,1-.51-1,5.93,5.93,0,0,1-.23-1.36l1.05-.12a1.35,1.35,0,0,1,.71.12.71.71,0,0,1,.36.44,2.5,2.5,0,0,0,.42,1,1.28,1.28,0,0,0,.73.48,1.51,1.51,0,0,0,.65.06,1.44,1.44,0,0,0,.53-.18,1.31,1.31,0,0,0,.38-.36,1.6,1.6,0,0,0,.23-.45,3,3,0,0,0,.11-.59.78.78,0,0,0-.12-.51,1.33,1.33,0,0,0-.54-.46,5,5,0,0,0-1.12-.43l.41-1.46a4.47,4.47,0,0,0,1,.19,1.62,1.62,0,0,0,.67-.09.91.91,0,0,0,.39-.33,2.38,2.38,0,0,0,.22-.51,1.35,1.35,0,0,0,0-1A1.14,1.14,0,0,0,66,26a1.35,1.35,0,0,0-.87,0,1.38,1.38,0,0,0-.62.49.87.87,0,0,1-.52.39,1,1,0,0,1-.67-.13Z"/><path class="cls-1" d="M85.56,26.23a11,11,0,0,0-5.3,6.94,11,11,0,0,0,.88,8.7,20.45,20.45,0,0,0,4.42-15.64Z"/><g class="cls-8"><path d="M82.69,37.26a.91.91,0,0,1-.55-.33,1.61,1.61,0,0,1-.31-.7,3.47,3.47,0,0,1,0-1A7.92,7.92,0,0,1,82,33.93a6.2,6.2,0,0,1,.48-1.22,3.05,3.05,0,0,1,.56-.76,1,1,0,0,1,.54-.29.6.6,0,0,1,.47.11,1.17,1.17,0,0,1,.29.3,1,1,0,0,1,.16.37,2,2,0,0,1,0,.44,5,5,0,0,1,0,.53c.35-.74.68-1,1-.76a.77.77,0,0,1,.28.42,2.25,2.25,0,0,1,.08.61,5,5,0,0,1-.06.73c0,.26-.11.52-.18.79s-.16.52-.24.73a3.79,3.79,0,0,1-.28.57,2.5,2.5,0,0,1-.79.84l.07-.61a1.63,1.63,0,0,1,.1-.46.66.66,0,0,1,.18-.29A1.69,1.69,0,0,0,85,35.6a1.64,1.64,0,0,0,.21-.5,2.35,2.35,0,0,0,.08-.4,1.5,1.5,0,0,0,0-.3.64.64,0,0,0-.06-.22.29.29,0,0,0-.11-.11A.35.35,0,0,0,85,34a.23.23,0,0,0-.17.11,1.44,1.44,0,0,0-.21.4,7.54,7.54,0,0,0-.27.81l-.51-.11a6.17,6.17,0,0,0,.18-.77A1.46,1.46,0,0,0,84,34a.49.49,0,0,0-.09-.28.58.58,0,0,0-.19-.15.42.42,0,0,0-.46.08,1.5,1.5,0,0,0-.36.7,1.69,1.69,0,0,0-.07.72.64.64,0,0,0,.18.43.47.47,0,0,1,.13.34,1.73,1.73,0,0,1-.12.53Z"/></g><path class="cls-1" d="M44.9,31.62a11,11,0,0,0,5.31-6.94,11,11,0,0,0-.88-8.7A20.51,20.51,0,0,0,44.9,31.62Z"/><g class="cls-9"><path d="M47.78,20.59a.86.86,0,0,1,.54.33,1.57,1.57,0,0,1,.32.7,3.84,3.84,0,0,1,0,1,7.92,7.92,0,0,1-.24,1.26A6.2,6.2,0,0,1,48,25.14a3.05,3.05,0,0,1-.56.76,1.1,1.1,0,0,1-.55.29.58.58,0,0,1-.46-.11,1.22,1.22,0,0,1-.3-.3,1.38,1.38,0,0,1-.16-.37,2.81,2.81,0,0,1,0-.45,3.28,3.28,0,0,1,0-.52c-.36.74-.69,1-1,.76a.73.73,0,0,1-.28-.42,1.92,1.92,0,0,1-.08-.61,4.88,4.88,0,0,1,.06-.73,6,6,0,0,1,.18-.79c.08-.28.16-.52.24-.73a4.49,4.49,0,0,1,.28-.58,2.22,2.22,0,0,1,.34-.45,2.67,2.67,0,0,1,.44-.38l-.06.61a2.07,2.07,0,0,1-.1.46.91.91,0,0,1-.18.29,1.5,1.5,0,0,0-.34.38,1.64,1.64,0,0,0-.21.5,1.69,1.69,0,0,0-.08.39,1.1,1.1,0,0,0,0,.31.64.64,0,0,0,.06.22.31.31,0,0,0,.12.11.32.32,0,0,0,.16,0,.26.26,0,0,0,.18-.11,2.49,2.49,0,0,0,.21-.41,6.88,6.88,0,0,0,.26-.8l.51.11a6.17,6.17,0,0,0-.18.77,2.26,2.26,0,0,0,0,.49.49.49,0,0,0,.09.28.75.75,0,0,0,.2.15.42.42,0,0,0,.46-.08,1.55,1.55,0,0,0,.36-.7,1.87,1.87,0,0,0,.07-.72.75.75,0,0,0-.18-.43A.49.49,0,0,1,47.3,22a1.74,1.74,0,0,1,.13-.53Z"/></g><path class="cls-1" d="M62.54,8.59a11,11,0,0,0,6.95,5.31A11,11,0,0,0,78.18,13a20.36,20.36,0,0,0-7.36-3.83A20.71,20.71,0,0,0,62.54,8.59Z"/><g class="cls-10"><path d="M73.58,11.47a1,1,0,0,1-.33.55,1.78,1.78,0,0,1-.71.31,3.47,3.47,0,0,1-1,.05,8.14,8.14,0,0,1-1.26-.24A6.46,6.46,0,0,1,69,11.66a2.81,2.81,0,0,1-.75-.56,1.12,1.12,0,0,1-.3-.55.63.63,0,0,1,.11-.46,1.42,1.42,0,0,1,.3-.3,1.11,1.11,0,0,1,.37-.15,1.55,1.55,0,0,1,.45-.05l.52,0c-.73-.35-1-.69-.76-1a.85.85,0,0,1,.42-.28A2.25,2.25,0,0,1,70,8.28a4.88,4.88,0,0,1,.73.06,6,6,0,0,1,.79.18c.28.08.52.16.73.24a4.49,4.49,0,0,1,.58.28,3.22,3.22,0,0,1,.46.34,3.19,3.19,0,0,1,.37.44L73,9.76a1.63,1.63,0,0,1-.46-.1.72.72,0,0,1-.29-.18,1.35,1.35,0,0,0-.38-.34,1.64,1.64,0,0,0-.5-.21A2.26,2.26,0,0,0,71,8.85h-.31a.53.53,0,0,0-.21.06.22.22,0,0,0-.12.11.35.35,0,0,0,0,.17c0,.05,0,.11.12.17a1.31,1.31,0,0,0,.4.21,5.37,5.37,0,0,0,.8.26l-.1.52a6.69,6.69,0,0,0-.78-.18,1.84,1.84,0,0,0-.49,0,.61.61,0,0,0-.28.1.45.45,0,0,0-.14.19.41.41,0,0,0,.07.46,1.55,1.55,0,0,0,.7.36,1.69,1.69,0,0,0,.72.07.69.69,0,0,0,.43-.18.48.48,0,0,1,.34-.13,1.78,1.78,0,0,1,.54.12Z"/></g><path class="cls-1" d="M67.93,49.26A11,11,0,0,0,61,44a11,11,0,0,0-8.7.88,20.54,20.54,0,0,0,15.64,4.43Z"/><g class="cls-11"><path d="M56.9,46.38a1,1,0,0,1,.33-.54,1.61,1.61,0,0,1,.71-.32,3.41,3.41,0,0,1,1-.05,7.72,7.72,0,0,1,1.26.24,6.2,6.2,0,0,1,1.22.48,3.05,3.05,0,0,1,.76.56,1.12,1.12,0,0,1,.3.55.63.63,0,0,1-.12.46,1,1,0,0,1-.29.3,1.2,1.2,0,0,1-.37.15,2.13,2.13,0,0,1-.45.06,3.4,3.4,0,0,1-.53,0c.74.36,1,.69.76,1a.72.72,0,0,1-.41.28,2,2,0,0,1-.61.08,4.78,4.78,0,0,1-.73-.06,5.62,5.62,0,0,1-.79-.18c-.28-.08-.53-.16-.74-.24a5,5,0,0,1-.57-.28,2.6,2.6,0,0,1-.84-.78l.62.06a2.11,2.11,0,0,1,.45.1.8.8,0,0,1,.29.18,1.54,1.54,0,0,0,.39.34,1.57,1.57,0,0,0,.49.21,1.66,1.66,0,0,0,.4.08,1.1,1.1,0,0,0,.31,0,.48.48,0,0,0,.21-.07.22.22,0,0,0,.12-.11.47.47,0,0,0,0-.16.24.24,0,0,0-.12-.18,1.31,1.31,0,0,0-.4-.21,7.93,7.93,0,0,0-.81-.26l.11-.51.78.18a2.23,2.23,0,0,0,.49,0,.47.47,0,0,0,.28-.1.45.45,0,0,0,.14-.19.4.4,0,0,0-.08-.46,1.46,1.46,0,0,0-.69-.36,1.9,1.9,0,0,0-.72-.07.72.72,0,0,0-.43.18.49.49,0,0,1-.34.14,1.86,1.86,0,0,1-.54-.13Z"/></g><path class="cls-12" d="M116.08,5.85a14.33,14.33,0,1,1-20,3.09A14.33,14.33,0,0,1,116.08,5.85Z"/><path class="cls-1" d="M111.65,11.89a6.84,6.84,0,1,1-9.56,1.48A6.85,6.85,0,0,1,111.65,11.89Z"/><path class="cls-1" d="M110.81,3.44a7.68,7.68,0,0,0,3.25,5.17A7.67,7.67,0,0,0,120,10.15a14.36,14.36,0,0,0-9.16-6.71Z"/><g class="cls-13"><path d="M117.07,6a.52.52,0,0,1-.16-.18.15.15,0,0,1,0-.16l.19-.26,2.43,1.8-.08.16a.15.15,0,0,1-.07.09.23.23,0,0,1-.15,0l-1.42,0h-.35a1.08,1.08,0,0,0-.28,0,.51.51,0,0,0-.21.1.46.46,0,0,0-.15.16.4.4,0,0,0,0,.35.77.77,0,0,0,.29.35.81.81,0,0,0,.37.17.41.41,0,0,0,.28-.05.28.28,0,0,1,.23,0,.77.77,0,0,1,.27.18l.42.39a.88.88,0,0,1-.36.28,1,1,0,0,1-.46.07,1.69,1.69,0,0,1-.54-.15,2.45,2.45,0,0,1-.57-.34,2.69,2.69,0,0,1-.52-.48,1.79,1.79,0,0,1-.3-.5,1,1,0,0,1-.08-.46.69.69,0,0,1,.14-.39.65.65,0,0,1,.25-.22,1.1,1.1,0,0,1,.32-.11,2.22,2.22,0,0,1,.37,0h.41l1,0L118,6.64l-.25-.16Z"/><path d="M114.63,5.75a2,2,0,0,1-.46-.27,2.41,2.41,0,0,1-.37-.34,1.29,1.29,0,0,1-.24-.4.72.72,0,0,1,0-.38.55.55,0,0,1,.2-.33.84.84,0,0,1,.38-.18,1.34,1.34,0,0,1,.49,0,2,2,0,0,1,.54.16,2.79,2.79,0,0,1,.57.33,2.89,2.89,0,0,1,.47.44,1.54,1.54,0,0,1,.28.44.88.88,0,0,1,.06.42.73.73,0,0,1-.15.39,1.27,1.27,0,0,1-1,.39l-1.6.12a.58.58,0,0,1-.27,0,1,1,0,0,1-.33-.17l-.8-.59,2.09,0Zm.78-1.08a1.49,1.49,0,0,0-.24-.14l-.24-.06a.54.54,0,0,0-.22,0,.46.46,0,0,0-.17.09.38.38,0,0,0-.1.17.34.34,0,0,0,0,.2.57.57,0,0,0,.12.21,1.46,1.46,0,0,0,.22.2,1.28,1.28,0,0,0,.25.14.71.71,0,0,0,.24.06.66.66,0,0,0,.21,0,.33.33,0,0,0,.17-.12.51.51,0,0,0,.09-.16.37.37,0,0,0,0-.18.77.77,0,0,0-.11-.19A2.3,2.3,0,0,0,115.41,4.67Z"/></g><path class="cls-1" d="M104.41,31.39a8.31,8.31,0,0,0-9.16-6.72,14.33,14.33,0,0,0,9.16,6.72Z"/><g class="cls-14"><path d="M98.43,29.1a.47.47,0,0,1,.16.19.13.13,0,0,1,0,.16l-.18.25L96,27.9l.07-.16a.2.2,0,0,1,.08-.08.28.28,0,0,1,.15,0l1.42.05H98a1.18,1.18,0,0,0,.28,0,1,1,0,0,0,.21-.1.61.61,0,0,0,.15-.17.4.4,0,0,0,0-.35,1,1,0,0,0-.66-.52.4.4,0,0,0-.28.06.33.33,0,0,1-.23,0,.77.77,0,0,1-.27-.18L96.87,26a.83.83,0,0,1,.36-.29.88.88,0,0,1,.46-.06,1.66,1.66,0,0,1,.54.14,2.86,2.86,0,0,1,.57.34,3.08,3.08,0,0,1,.52.49,1.62,1.62,0,0,1,.3.49,1,1,0,0,1,.08.46.74.74,0,0,1-.14.39.78.78,0,0,1-.25.23,1.09,1.09,0,0,1-.32.1,2.25,2.25,0,0,1-.38,0h-.4l-1,0a2.69,2.69,0,0,1,.29.16l.26.17Z"/><path d="M100.87,29.33a2.49,2.49,0,0,1,.46.27,2,2,0,0,1,.37.35,1.37,1.37,0,0,1,.24.39.72.72,0,0,1,0,.38.55.55,0,0,1-.21.34.74.74,0,0,1-.38.17,1.28,1.28,0,0,1-.48,0,2.09,2.09,0,0,1-.54-.17,2.79,2.79,0,0,1-.57-.33,2.86,2.86,0,0,1-.47-.43,1.69,1.69,0,0,1-.28-.44.94.94,0,0,1-.06-.43.73.73,0,0,1,.15-.38,1.27,1.27,0,0,1,1-.4l1.59-.12a.79.79,0,0,1,.28.05,1.3,1.3,0,0,1,.33.17l.8.6-2.09,0Zm-.78,1.08a1,1,0,0,0,.24.14.71.71,0,0,0,.24.06.54.54,0,0,0,.22,0,.4.4,0,0,0,.17-.09.33.33,0,0,0,.1-.17.46.46,0,0,0,0-.2,1.51,1.51,0,0,0-.12-.2,1.6,1.6,0,0,0-.23-.21,1,1,0,0,0-.24-.14.79.79,0,0,0-.24-.05.47.47,0,0,0-.21,0,.52.52,0,0,0-.17.12.65.65,0,0,0-.09.16.37.37,0,0,0,0,.18.62.62,0,0,0,.11.19A1.09,1.09,0,0,0,100.09,30.41Z"/></g><path class="cls-1" d="M93.64,14.21A7.68,7.68,0,0,0,98.81,11a7.67,7.67,0,0,0,1.54-5.91,14.36,14.36,0,0,0-6.71,9.16Z"/><g class="cls-15"><path d="M95.92,8.23a.56.56,0,0,1-.18.17.18.18,0,0,1-.16,0l-.26-.19,1.8-2.42.17.07s0,0,.08.07a.24.24,0,0,1,0,.15l0,1.42c0,.13,0,.25,0,.35a1.78,1.78,0,0,0,.05.28.68.68,0,0,0,.1.21.61.61,0,0,0,.16.16.44.44,0,0,0,.35,0,.8.8,0,0,0,.36-.3.79.79,0,0,0,.16-.37.37.37,0,0,0,0-.28.26.26,0,0,1,0-.22.72.72,0,0,1,.18-.28L99,6.68a.78.78,0,0,1,.28.35,1,1,0,0,1,.07.46,1.66,1.66,0,0,1-.14.54,2.92,2.92,0,0,1-.35.57,2.76,2.76,0,0,1-.48.53,2.21,2.21,0,0,1-.5.3,1.09,1.09,0,0,1-.46.08A.8.8,0,0,1,97,9.37a.68.68,0,0,1-.22-.26,1,1,0,0,1-.11-.32,2.13,2.13,0,0,1,0-.37c0-.13,0-.27,0-.41l0-1-.15.29-.17.25Z"/><path d="M95.69,10.67a2.14,2.14,0,0,1-.26.46,2.55,2.55,0,0,1-.35.38,1.37,1.37,0,0,1-.39.24.76.76,0,0,1-.39,0,.67.67,0,0,1-.33-.21.79.79,0,0,1-.18-.38,1.29,1.29,0,0,1,0-.48,2,2,0,0,1,.16-.55,3.27,3.27,0,0,1,.33-.56,3.48,3.48,0,0,1,.44-.48,1.74,1.74,0,0,1,.44-.27.89.89,0,0,1,.42-.07.82.82,0,0,1,.39.15,1.34,1.34,0,0,1,.4,1l.11,1.59a.75.75,0,0,1,0,.28,1.14,1.14,0,0,1-.18.32l-.59.8,0-2.09Zm-1.08-.78a1.41,1.41,0,0,0-.13.24.9.9,0,0,0-.07.24.79.79,0,0,0,0,.22.32.32,0,0,0,.1.17.28.28,0,0,0,.17.1.31.31,0,0,0,.19,0,.57.57,0,0,0,.21-.12,1.07,1.07,0,0,0,.2-.22,1,1,0,0,0,.14-.25.53.53,0,0,0,.06-.24.39.39,0,0,0,0-.21.41.41,0,0,0-.28-.25.28.28,0,0,0-.18,0,.54.54,0,0,0-.19.11A1.37,1.37,0,0,0,94.61,9.89Z"/></g><path class="cls-1" d="M121.59,20.6a7.68,7.68,0,0,0-5.17,3.26,7.72,7.72,0,0,0-1.55,5.91,14.31,14.31,0,0,0,6.72-9.17Z"/><g class="cls-16"><path d="M119.39,26.57a.43.43,0,0,1,.18-.16.15.15,0,0,1,.16,0l.26.19L118.19,29,118,29a.13.13,0,0,1-.08-.07.19.19,0,0,1,0-.15l0-1.42c0-.13,0-.25,0-.35a1.08,1.08,0,0,0,0-.28.51.51,0,0,0-.1-.21.46.46,0,0,0-.16-.15.4.4,0,0,0-.35-.05.71.71,0,0,0-.35.29.81.81,0,0,0-.17.37.42.42,0,0,0,.06.28.27.27,0,0,1,0,.23.88.88,0,0,1-.17.27l-.39.42a.83.83,0,0,1-.29-.36,1,1,0,0,1-.07-.46,1.69,1.69,0,0,1,.15-.54,2.86,2.86,0,0,1,.34-.57,3,3,0,0,1,.48-.52,1.79,1.79,0,0,1,.5-.3,1,1,0,0,1,.46-.08.75.75,0,0,1,.61.39,1.1,1.1,0,0,1,.11.32,2.22,2.22,0,0,1,0,.37c0,.13,0,.27,0,.41l-.05,1,.16-.29a2.72,2.72,0,0,1,.16-.25Z"/><path d="M119.62,24.13a2.3,2.3,0,0,1,.62-.83,1.15,1.15,0,0,1,.39-.24.63.63,0,0,1,.38,0,.58.58,0,0,1,.34.2.89.89,0,0,1,.17.38,1.59,1.59,0,0,1,0,.49,2.57,2.57,0,0,1-.17.54,2.49,2.49,0,0,1-.33.56,2.3,2.3,0,0,1-.44.48,1.28,1.28,0,0,1-.43.27.83.83,0,0,1-.43.07.73.73,0,0,1-.39-.15,1.31,1.31,0,0,1-.39-1l-.12-1.6a.83.83,0,0,1,0-.28,1.11,1.11,0,0,1,.17-.32l.59-.8,0,2.09Zm1.08.78a1.49,1.49,0,0,0,.14-.24,1.05,1.05,0,0,0,.06-.24.54.54,0,0,0,0-.22.46.46,0,0,0-.09-.17.33.33,0,0,0-.17-.1.34.34,0,0,0-.2,0,.53.53,0,0,0-.2.12,1.11,1.11,0,0,0-.21.22,1.28,1.28,0,0,0-.14.25,1.05,1.05,0,0,0-.06.24.66.66,0,0,0,0,.21.33.33,0,0,0,.12.17.35.35,0,0,0,.16.08.28.28,0,0,0,.18,0,.62.62,0,0,0,.19-.11A1.46,1.46,0,0,0,120.7,24.91Z"/></g><path d="M109.24,19.23a.5.5,0,0,1,.31-.22.45.45,0,0,1,.35.09l.67.5-2.81,3.8-.38-.27a1,1,0,0,1-.19-.22.68.68,0,0,1-.11-.32l-.42-2.72a4.43,4.43,0,0,0-.12-.63,3.52,3.52,0,0,0-.18-.52,2.23,2.23,0,0,0-.24-.4,2.13,2.13,0,0,0-.34-.33.87.87,0,0,0-.61-.21.76.76,0,0,0-.52.34.8.8,0,0,0-.18.54.86.86,0,0,0,.15.49.57.57,0,0,1,.12.4.77.77,0,0,1-.24.39l-.55.52a2.38,2.38,0,0,1-.54-.75,2,2,0,0,1-.19-.79,2.17,2.17,0,0,1,.12-.79,3.23,3.23,0,0,1,.42-.77,2.8,2.8,0,0,1,.65-.64,2.17,2.17,0,0,1,.73-.3,1.78,1.78,0,0,1,.76,0,2,2,0,0,1,.72.35,2.07,2.07,0,0,1,.49.49,2.93,2.93,0,0,1,.31.58,4.58,4.58,0,0,1,.19.66c0,.24.09.48.13.73l.3,1.86a4,4,0,0,1,.21-.47,1.93,1.93,0,0,1,.24-.4Z"/><path d="M108.66,15.1a1.91,1.91,0,0,1,.33-.65,2.1,2.1,0,0,1,.52-.51,1.94,1.94,0,0,1,.68-.29,1.72,1.72,0,0,1,.78,0,2,2,0,0,1,.82.39,2.32,2.32,0,0,1,.62.67,2.65,2.65,0,0,1,.3.84,2.4,2.4,0,0,1-.06.92,2.54,2.54,0,0,1-.45.92,2.75,2.75,0,0,1-.74.71,2.18,2.18,0,0,1-.86.31,2.09,2.09,0,0,1-.89-.07,2.72,2.72,0,0,1-.88-.45,3.35,3.35,0,0,1-1.17-1.82l-.74-2.43a1,1,0,0,1,0-.39,1.15,1.15,0,0,1,.2-.42l.76-1,.73,3Zm2.61,1.65a1,1,0,0,0,.18-.38,1.09,1.09,0,0,0,0-.4,1,1,0,0,0-.15-.38,1,1,0,0,0-.29-.32,1.22,1.22,0,0,0-.42-.22.92.92,0,0,0-.4,0,1,1,0,0,0-.37.14,1.18,1.18,0,0,0-.32.31,1,1,0,0,0-.18.37,1,1,0,0,0,0,.38,1.19,1.19,0,0,0,.16.37,1.33,1.33,0,0,0,.31.32,1.78,1.78,0,0,0,.4.22.79.79,0,0,0,.75-.07A1.16,1.16,0,0,0,111.27,16.75Z"/><path class="cls-17" d="M123.56,34.88a10.54,10.54,0,1,1-14.87,1.19A10.54,10.54,0,0,1,123.56,34.88Z"/><path class="cls-1" d="M120,39.07a5,5,0,1,1-7.1.57A5,5,0,0,1,120,39.07Z"/><path class="cls-1" d="M119.81,32.83a6.11,6.11,0,0,0,6.37,5.42,10.57,10.57,0,0,0-6.37-5.42Z"/><g class="cls-18"><path d="M123.15,35.57h.16a2,2,0,0,1-.45-.3,1.6,1.6,0,0,1-.26-.26,1.54,1.54,0,0,1-.21-.31,1.42,1.42,0,0,1-.11-.35.81.81,0,0,1,0-.37.61.61,0,0,1,.23-.27.79.79,0,0,1,.42-.1,1.48,1.48,0,0,1,.56.14,2.39,2.39,0,0,1,.64.4,3.29,3.29,0,0,1,.52.56,1.5,1.5,0,0,1,.22.52.73.73,0,0,1,0,.42.69.69,0,0,1-.26.28,1,1,0,0,1-.46.15,1.5,1.5,0,0,1-.47,0l-.93-.13-.14-.06a.69.69,0,0,1-.17-.11l-.47-.4Zm-.09-1c-.14.21-.06.43.22.67a.73.73,0,0,0,.39.2.33.33,0,0,0,.32-.08.3.3,0,0,0,.09-.15.28.28,0,0,0,0-.18.62.62,0,0,0-.1-.2,1.19,1.19,0,0,0-.19-.2.9.9,0,0,0-.23-.15.63.63,0,0,0-.21,0,.43.43,0,0,0-.17,0A.32.32,0,0,0,123.06,34.56Z"/></g><path class="cls-1" d="M113.62,53a6.11,6.11,0,0,0-6.36-5.42,10.39,10.39,0,0,0,2.62,3.36A10.53,10.53,0,0,0,113.62,53Z"/><g class="cls-19"><path d="M110.28,50.08l-.09,0h-.07a1.63,1.63,0,0,1,.45.29,3.19,3.19,0,0,1,.26.26,1.55,1.55,0,0,1,.2.32,1,1,0,0,1,.11.34.68.68,0,0,1,0,.37.47.47,0,0,1-.23.27.68.68,0,0,1-.41.1,1.56,1.56,0,0,1-.56-.13,2.55,2.55,0,0,1-.64-.41,2.66,2.66,0,0,1-.52-.56,1.27,1.27,0,0,1-.22-.52.63.63,0,0,1,0-.41.62.62,0,0,1,.25-.28.91.91,0,0,1,.46-.16,2,2,0,0,1,.48,0l.93.13.13.06a.88.88,0,0,1,.17.12l.47.39Zm.09,1c.14-.21.06-.43-.23-.67a.91.91,0,0,0-.39-.2.34.34,0,0,0-.31.08.33.33,0,0,0-.1.15.6.6,0,0,0,0,.19.81.81,0,0,0,.11.2,1.7,1.7,0,0,0,.19.2,1,1,0,0,0,.23.14.56.56,0,0,0,.21.06.33.33,0,0,0,.17,0A.25.25,0,0,0,110.37,51.08Z"/></g><path class="cls-1" d="M106.64,39.81a6.11,6.11,0,0,0,5.42-6.37,10.57,10.57,0,0,0-5.42,6.37Z"/><g class="cls-20"><path d="M110.49,36.29l-.4.46-.16.14-.12.07-.9.26a2,2,0,0,1-.47.09,1,1,0,0,1-.48-.09.76.76,0,0,1-.29-.24.78.78,0,0,1-.1-.41,1.23,1.23,0,0,1,.15-.54,2.36,2.36,0,0,1,.43-.63,2.56,2.56,0,0,1,.58-.49,1.5,1.5,0,0,1,.54-.22.82.82,0,0,1,.42,0A.62.62,0,0,1,110,35a.81.81,0,0,1,.1.36,1.13,1.13,0,0,1-.06.36,1.74,1.74,0,0,1-.16.34,3.15,3.15,0,0,1-.22.29,1.93,1.93,0,0,1-.41.36l.08,0,.08,0Zm-1.31-.75a.32.32,0,0,0-.17,0,.47.47,0,0,0-.2.08,1,1,0,0,0-.21.17,1.6,1.6,0,0,0-.16.23.74.74,0,0,0-.07.21.35.35,0,0,0,0,.18.3.3,0,0,0,.11.14.38.38,0,0,0,.33,0,.82.82,0,0,0,.36-.26c.25-.28.29-.5.13-.69A.26.26,0,0,0,109.18,35.54Z"/></g><path class="cls-1" d="M126.8,46a6.11,6.11,0,0,0-5.42,6.36A10.6,10.6,0,0,0,126.8,46Z"/><g class="cls-21"><path d="M124,49.28v.08s0,.06,0,.08a2,2,0,0,1,.3-.45,2.13,2.13,0,0,1,.26-.26,1.49,1.49,0,0,1,.31-.2.89.89,0,0,1,.35-.11.69.69,0,0,1,.37,0,.51.51,0,0,1,.27.23.76.76,0,0,1,.1.41,1.4,1.4,0,0,1-.14.56,2.5,2.5,0,0,1-.4.64,2.93,2.93,0,0,1-.56.52,1.33,1.33,0,0,1-.52.22.72.72,0,0,1-.42,0,.63.63,0,0,1-.28-.26.93.93,0,0,1-.15-.45,1.56,1.56,0,0,1,0-.48l.13-.93a.55.55,0,0,1,0-.13.66.66,0,0,1,.12-.17l.4-.47Zm1-.09c-.21-.14-.43-.06-.67.23a.77.77,0,0,0-.21.38.36.36,0,0,0,.09.32.31.31,0,0,0,.15.1.37.37,0,0,0,.18,0,.47.47,0,0,0,.2-.1,1.18,1.18,0,0,0,.35-.42.54.54,0,0,0,0-.21.47.47,0,0,0,0-.17A.32.32,0,0,0,125,49.19Z"/></g><path d="M116.23,42.51l0,.16,0,.14a1.6,1.6,0,0,1,.35-.7,1.65,1.65,0,0,1,.41-.33,1.2,1.2,0,0,1,.52-.18,1.3,1.3,0,0,1,.58,0,1.5,1.5,0,0,1,.61.34,1.61,1.61,0,0,1,.43.54,1.63,1.63,0,0,1,.19.65,1.71,1.71,0,0,1-.09.7,1.92,1.92,0,0,1-.39.67,2.14,2.14,0,0,1-.59.51,1.81,1.81,0,0,1-.65.2,1.54,1.54,0,0,1-.67-.09,2,2,0,0,1-.63-.37,2.39,2.39,0,0,1-.61-.72,3.43,3.43,0,0,1-.33-.82l-.5-1.93a.58.58,0,0,1,0-.29.86.86,0,0,1,.17-.31l.68-.8Zm1.86.39A.67.67,0,0,0,117,43a.7.7,0,0,0-.19.56.8.8,0,0,0,.31.52,1,1,0,0,0,.3.18.75.75,0,0,0,.29,0,.72.72,0,0,0,.27-.09.79.79,0,0,0,.24-.21.72.72,0,0,0,.15-.27.65.65,0,0,0,0-.28.74.74,0,0,0-.1-.27A1.13,1.13,0,0,0,118.09,42.9Z"/><circle class="cls-22" cx="94.37" cy="48.5" r="8.68" transform="translate(43.25 141.48) rotate(-88.4)"/><path class="cls-1" d="M90.34,47.64a4.15,4.15,0,1,1,3.19,4.92A4.14,4.14,0,0,1,90.34,47.64Z"/><path class="cls-1" d="M85.86,50.19a5,5,0,0,0,1.44-6.73,8.64,8.64,0,0,0-1.44,6.73Z"/><g class="cls-23"><path d="M85.45,48.1a1,1,0,0,1-.74-.67,1.55,1.55,0,0,1-.08-.55,2.47,2.47,0,0,1,.09-.64,2.57,2.57,0,0,1,.22-.61,1.54,1.54,0,0,1,.33-.45,1,1,0,0,1,.43-.24,1.06,1.06,0,0,1,.53,0,1,1,0,0,1,.48.24,1,1,0,0,1,.27.41,1.92,1.92,0,0,1,.08.55,2.47,2.47,0,0,1-.09.64,3.47,3.47,0,0,1-.22.62,2,2,0,0,1-.33.45,1,1,0,0,1-.44.24A1.06,1.06,0,0,1,85.45,48.1Zm.23-.94a1.16,1.16,0,0,0,.39,0,.54.54,0,0,0,.27-.09.55.55,0,0,0,.16-.18.92.92,0,0,0,.09-.23,1,1,0,0,0,0-.24.46.46,0,0,0-.06-.23.55.55,0,0,0-.2-.2,1.22,1.22,0,0,0-.36-.15,1.12,1.12,0,0,0-.39,0,.54.54,0,0,0-.26.09.46.46,0,0,0-.17.17.92.92,0,0,0-.09.23.65.65,0,0,0,0,.24.48.48,0,0,0,.06.24.52.52,0,0,0,.19.2A.85.85,0,0,0,85.68,47.16Z"/></g><path class="cls-1" d="M102.89,46.81a5,5,0,0,0-1.44,6.73,8.73,8.73,0,0,0,1.44-6.73Z"/><g class="cls-24"><path d="M101.91,51.9a1.06,1.06,0,0,1-.29-.4,1.58,1.58,0,0,1-.11-.55,2.94,2.94,0,0,1,0-.65,3.24,3.24,0,0,1,.19-.62,1.61,1.61,0,0,1,.31-.46,1,1,0,0,1,.42-.27,1,1,0,0,1,.53,0,1.06,1.06,0,0,1,.48.22.9.9,0,0,1,.29.4,1.53,1.53,0,0,1,.12.54,2.5,2.5,0,0,1-.06.65,2.36,2.36,0,0,1-.19.62,1.58,1.58,0,0,1-.3.47,1.37,1.37,0,0,1-.42.27,1.17,1.17,0,0,1-1-.2Zm1.06-.71a.67.67,0,0,0,.26-.1.58.58,0,0,0,.16-.19,1,1,0,0,0,.07-.24,1,1,0,0,0,0-.24.49.49,0,0,0-.08-.23.61.61,0,0,0-.2-.19,1.49,1.49,0,0,0-.76-.14.47.47,0,0,0-.26.1.55.55,0,0,0-.16.18,2.09,2.09,0,0,0-.08.23,1,1,0,0,0,0,.25.49.49,0,0,0,.08.23.63.63,0,0,0,.2.2,1.23,1.23,0,0,0,.37.12A1.06,1.06,0,0,0,103,51.19Z"/></g><path class="cls-1" d="M96.06,57a5,5,0,0,0-6.72-1.44A8.71,8.71,0,0,0,96.06,57Z"/><g class="cls-25"><path d="M93.69,57.58a.91.91,0,0,1-.37.27,1.53,1.53,0,0,1-.5.1,2.43,2.43,0,0,1-.59-.05,2.94,2.94,0,0,1-.57-.17,1.47,1.47,0,0,1-.42-.28.82.82,0,0,1-.24-.38.9.9,0,0,1,0-.49,1,1,0,0,1,.19-.44.91.91,0,0,1,.37-.27,1.53,1.53,0,0,1,.5-.1,2.48,2.48,0,0,1,.59,0,2.94,2.94,0,0,1,.57.17,1.47,1.47,0,0,1,.42.28.9.9,0,0,1,.25.39,1,1,0,0,1,0,.48A.86.86,0,0,1,93.69,57.58Zm-.65-1a.67.67,0,0,0-.09-.24.49.49,0,0,0-.18-.14.52.52,0,0,0-.21-.07.82.82,0,0,0-.22,0,.48.48,0,0,0-.21.07.53.53,0,0,0-.17.19,1.11,1.11,0,0,0-.12.34,1.1,1.1,0,0,0,0,.35.67.67,0,0,0,.09.24.55.55,0,0,0,.17.14.58.58,0,0,0,.21.07.9.9,0,0,0,.23,0,.52.52,0,0,0,.21-.07.47.47,0,0,0,.18-.19A1,1,0,0,0,93,57,1.11,1.11,0,0,0,93,56.62Z"/></g><path class="cls-1" d="M92.68,40a5,5,0,0,0,6.73,1.44A8.64,8.64,0,0,0,92.68,40Z"/><g class="cls-26"><path d="M97.73,40.71a1,1,0,0,1-.4.29,1.38,1.38,0,0,1-.55.11,2.94,2.94,0,0,1-.65,0,2.81,2.81,0,0,1-.62-.19,1.55,1.55,0,0,1-.46-.31,1,1,0,0,1-.27-.42,1,1,0,0,1,0-.53,1,1,0,0,1,.62-.77,1.33,1.33,0,0,1,.54-.11,2.47,2.47,0,0,1,.65.05,2.81,2.81,0,0,1,.62.19,1.6,1.6,0,0,1,.47.31,1.17,1.17,0,0,1,.27.42,1,1,0,0,1,0,.53A1.06,1.06,0,0,1,97.73,40.71ZM97,39.65a.67.67,0,0,0-.1-.26.55.55,0,0,0-.19-.15,1,1,0,0,0-.23-.08.71.71,0,0,0-.25,0,.48.48,0,0,0-.23.07.78.78,0,0,0-.19.21,1.23,1.23,0,0,0-.12.37,1.06,1.06,0,0,0,0,.39.55.55,0,0,0,.1.26.65.65,0,0,0,.18.15.84.84,0,0,0,.48.09.48.48,0,0,0,.23-.07.68.68,0,0,0,.2-.21,1,1,0,0,0,.12-.36A1.13,1.13,0,0,0,97,39.65Z"/></g><path d="M92.87,47.94a3.34,3.34,0,0,1,.36-.93,2,2,0,0,1,.49-.59,1.37,1.37,0,0,1,.6-.28,1.48,1.48,0,0,1,.66,0,1.51,1.51,0,0,1,.6.28A1.35,1.35,0,0,1,96,47a2,2,0,0,1,.16.76,3.7,3.7,0,0,1-.12,1,3.63,3.63,0,0,1-.35.94,2.13,2.13,0,0,1-.5.59,1.28,1.28,0,0,1-.6.28,1.44,1.44,0,0,1-.65,0,1.51,1.51,0,0,1-.6-.28,1.48,1.48,0,0,1-.4-.52,2,2,0,0,1-.16-.76A3.12,3.12,0,0,1,92.87,47.94Zm.93.24a4.2,4.2,0,0,0-.13.73,2.09,2.09,0,0,0,0,.48.59.59,0,0,0,.16.27.48.48,0,0,0,.22.12.53.53,0,0,0,.25,0,.61.61,0,0,0,.26-.17,2,2,0,0,0,.25-.41,4,4,0,0,0,.23-.71,4.37,4.37,0,0,0,.13-.73,1.65,1.65,0,0,0,0-.48A.51.51,0,0,0,95,47a.48.48,0,0,0-.22-.12.53.53,0,0,0-.25,0,.61.61,0,0,0-.26.17,1.62,1.62,0,0,0-.26.41A3.7,3.7,0,0,0,93.8,48.18Z"/><path class="cls-27" d="M124.66,121.78c-.43,0-.86,0-1.29,0l-55-4.49a20,20,0,0,1-17.71-14.82L40,61.91c-1.9-7.2-3.86-14.65-12.26-16.9L3.81,40.09a3.35,3.35,0,1,1,1.35-6.56l24.17,5c12.24,3.22,15.06,13.9,17.12,21.69l.13.53,10.58,40A13.34,13.34,0,0,0,69,110.57l55,4.48a9.15,9.15,0,0,0,9.56-6.67l10.12-36.71L73.4,65.9a4.65,4.65,0,0,0-4.89,5.78l3.13,12.39a10.12,10.12,0,0,0,8.76,7.56L113.49,95a3.58,3.58,0,1,0,.69-7.13L86.39,85.26A3.35,3.35,0,1,1,87,78.59l27.79,2.57a10.28,10.28,0,1,1-2,20.46L79.73,98.29A16.82,16.82,0,0,1,65.15,85.71L62,73.33A11.35,11.35,0,0,1,74,59.23l78.25,6.43-12.28,44.5A15.85,15.85,0,0,1,124.66,121.78Z"/><circle class="cls-28" cx="67.12" cy="130.03" r="9.11"/><circle class="cls-28" cx="116.04" cy="132.8" r="5.51"/><path class="cls-27" d="M188.55,129.51a30.32,30.32,0,0,1-12.16-11.32,33.18,33.18,0,0,1,0-33,30.35,30.35,0,0,1,12.16-11.33,37,37,0,0,1,17.42-4,38.31,38.31,0,0,1,15.86,3.14A29.53,29.53,0,0,1,233.33,82l-13,11.59q-5.66-7.15-13.32-7.15a13.61,13.61,0,0,0-10.37,4.14q-3.93,4.14-3.92,11.11t3.92,11.11A13.64,13.64,0,0,0,207,116.92q7.66,0,13.32-7.14l13,11.59a29.53,29.53,0,0,1-11.5,9.06A38.31,38.31,0,0,1,206,133.56,37,37,0,0,1,188.55,129.51Z"/><path class="cls-27" d="M279.15,89.26q6.62,5.63,6.62,17.3v25.61h-18.3V125.9Q264.08,133,254,133a21.56,21.56,0,0,1-9.63-2,13.77,13.77,0,0,1-8.05-12.85q0-7,5.4-10.72t16.38-3.65H266q-1-5.58-9-5.58a22.67,22.67,0,0,0-6.53,1,18.48,18.48,0,0,0-5.67,2.75l-6.27-13a34.57,34.57,0,0,1,9.89-4A47.68,47.68,0,0,1,260,83.64Q272.54,83.64,279.15,89.26Zm-15.51,30.8a6.54,6.54,0,0,0,2.44-3.4v-3.31H261.2q-6,0-6,4a3.46,3.46,0,0,0,1.26,2.74,5.08,5.08,0,0,0,3.45,1.09A6.42,6.42,0,0,0,263.64,120.06Z"/><path class="cls-27" d="M328.46,83.64v17.43a30.23,30.23,0,0,0-4.36-.35Q314,100.72,314,111v21.17H294.31V84.52H313v5.14Q318.26,83.65,328.46,83.64Z"/><path class="cls-27" d="M368.18,83.64v17.43a30.1,30.1,0,0,0-4.35-.35q-10.11,0-10.11,10.28v21.17H334V84.52h18.73v5.14Q358,83.65,368.18,83.64Z"/><path class="cls-27" d="M375,77.85a9.55,9.55,0,0,1,0-14.37,12.63,12.63,0,0,1,8.58-2.83,13,13,0,0,1,8.63,2.7,8.66,8.66,0,0,1,3.22,7,9.58,9.58,0,0,1-3.22,7.45,12.36,12.36,0,0,1-8.63,2.92A12.63,12.63,0,0,1,375,77.85Zm-1.26,6.67h19.69v47.65H373.76Z"/><path class="cls-27" d="M437.27,130.51Q432.83,133,425.16,133q-10,0-15.42-4.83t-5.4-14.51V101.5H397.8V87.13h6.54V73.8H424V87.13h9.75V101.5H424v12a4.76,4.76,0,0,0,1.13,3.39,3.82,3.82,0,0,0,3,1.22,7.68,7.68,0,0,0,4.44-1.3Z"/><path class="cls-27" d="M451.86,129.86a24.45,24.45,0,0,1-9.89-8.8,24.59,24.59,0,0,1,0-25.52,24.15,24.15,0,0,1,9.89-8.76,34.06,34.06,0,0,1,28.57,0,23.78,23.78,0,0,1,9.85,8.76,24.83,24.83,0,0,1,0,25.52,24.08,24.08,0,0,1-9.85,8.8,33.67,33.67,0,0,1-28.57,0Zm19.82-14.63a10.19,10.19,0,0,0,2.18-6.93,10,10,0,0,0-2.18-6.88,7.59,7.59,0,0,0-11.15,0,10,10,0,0,0-2.18,6.88,10.19,10.19,0,0,0,2.18,6.93,7.51,7.51,0,0,0,11.15,0Z"/></svg>