<?xml version="1.0" encoding="UTF-8" standalone="no"?>
<!DOCTYPE svg PUBLIC "-//W3C//DTD SVG 1.1//EN"
 "http://www.w3.org/Graphics/SVG/1.1/DTD/svg11.dtd">
<!-- Generated by graphviz version 2.47.0 (20210316.0004)
 -->
<!-- Title: dependencies Pages: 1 -->
<svg width="1271pt" height="284pt"
 viewBox="0.00 0.00 1271.00 284.00" xmlns="http://www.w3.org/2000/svg" xmlns:xlink="http://www.w3.org/1999/xlink">
<g id="graph0" class="graph" transform="scale(1 1) rotate(0) translate(4 280)">
<title>dependencies</title>
<polygon fill="white" stroke="transparent" points="-4,4 -4,-280 1267,-280 1267,4 -4,4"/>
<text text-anchor="start" x="610.51" y="-42.4" font-family="Times-12" font-weight="bold" font-size="14.00">Legend</text>
<polygon fill="#ffffb3" stroke="transparent" points="397.5,-10 397.5,-30 417.5,-30 417.5,-10 397.5,-10"/>
<text text-anchor="start" x="421.13" y="-15.4" font-family="Times-12" font-size="14.00"> &#160;Declarations</text>
<polygon fill="#8dd3c7" stroke="transparent" points="510.5,-10 510.5,-30 530.5,-30 530.5,-10 510.5,-10"/>
<text text-anchor="start" x="534.23" y="-15.4" font-family="Times-12" font-size="14.00"> &#160;Module</text>
<polygon fill="#80b1d3" stroke="transparent" points="596.5,-10 596.5,-30 616.5,-30 616.5,-10 596.5,-10"/>
<text text-anchor="start" x="620.28" y="-15.4" font-family="Times-12" font-size="14.00"> &#160;Bootstrap</text>
<polygon fill="#fdb462" stroke="transparent" points="693.5,-10 693.5,-30 713.5,-30 713.5,-10 693.5,-10"/>
<text text-anchor="start" x="717.17" y="-15.4" font-family="Times-12" font-size="14.00"> &#160;Providers</text>
<polygon fill="#fb8072" stroke="transparent" points="789.5,-10 789.5,-30 809.5,-30 809.5,-10 789.5,-10"/>
<text text-anchor="start" x="813.23" y="-15.4" font-family="Times-12" font-size="14.00"> &#160;Exports</text>
<g id="clust1" class="cluster">
<title>cluster_AppModule</title>
<polygon fill="none" stroke="black" stroke-dasharray="1,5" points="8,-70 8,-268 1255,-268 1255,-70 8,-70"/>
</g>
<g id="clust2" class="cluster">
<title>cluster_AppModule_declarations</title>
<polygon fill="none" stroke="black" points="1125,-78 1125,-130 1247,-130 1247,-78 1125,-78"/>
</g>
<g id="clust4" class="cluster">
<title>cluster_AppModule_imports</title>
<polygon fill="none" stroke="black" points="16,-78 16,-130 1117,-130 1117,-78 16,-78"/>
</g>
<g id="clust6" class="cluster">
<title>cluster_AppModule_bootstrap</title>
<polygon fill="none" stroke="black" points="478,-208 478,-260 602,-260 602,-208 478,-208"/>
</g>
<!-- AppComponent -->
<g id="node1" class="node">
<title>AppComponent</title>
<polygon fill="#ffffb3" stroke="black" points="1238.94,-122 1133.06,-122 1133.06,-86 1238.94,-86 1238.94,-122"/>
<text text-anchor="middle" x="1186" y="-99.8" font-family="Times,serif" font-size="14.00">AppComponent</text>
</g>
<!-- AppModule -->
<g id="node2" class="node">
<title>AppModule</title>
<polygon fill="#8dd3c7" stroke="black" points="581.66,-187 578.66,-191 557.66,-191 554.66,-187 498.34,-187 498.34,-151 581.66,-151 581.66,-187"/>
<text text-anchor="middle" x="540" y="-164.8" font-family="Times,serif" font-size="14.00">AppModule</text>
</g>
<!-- AppComponent&#45;&gt;AppModule -->
<g id="edge1" class="edge">
<title>AppComponent&#45;&gt;AppModule</title>
<path fill="none" stroke="black" d="M1186,-122.01C1186,-144.49 1186,-180 1186,-180 1186,-180 591.89,-180 591.89,-180"/>
<polygon fill="black" stroke="black" points="591.89,-176.5 581.89,-180 591.89,-183.5 591.89,-176.5"/>
</g>
<!-- AppComponent  -->
<g id="node11" class="node">
<title>AppComponent </title>
<polygon fill="#80b1d3" stroke="black" points="594.44,-252 485.56,-252 485.56,-216 594.44,-216 594.44,-252"/>
<text text-anchor="middle" x="540" y="-229.8" font-family="Times,serif" font-size="14.00">AppComponent </text>
</g>
<!-- AppModule&#45;&gt;AppComponent  -->
<g id="edge10" class="edge">
<title>AppModule&#45;&gt;AppComponent </title>
<path fill="none" stroke="black" stroke-dasharray="1,5" d="M540,-187.11C540,-187.11 540,-205.99 540,-205.99"/>
<polygon fill="black" stroke="black" points="536.5,-205.99 540,-215.99 543.5,-205.99 536.5,-205.99"/>
</g>
<!-- AdministracionModule -->
<g id="node3" class="node">
<title>AdministracionModule</title>
<polygon fill="#8dd3c7" stroke="black" points="1109.14,-122 1106.14,-126 1085.14,-126 1082.14,-122 962.86,-122 962.86,-86 1109.14,-86 1109.14,-122"/>
<text text-anchor="middle" x="1036" y="-99.8" font-family="Times,serif" font-size="14.00">AdministracionModule</text>
</g>
<!-- AdministracionModule&#45;&gt;AppModule -->
<g id="edge2" class="edge">
<title>AdministracionModule&#45;&gt;AppModule</title>
<path fill="none" stroke="black" d="M1036,-122.13C1036,-142.57 1036,-173 1036,-173 1036,-173 591.86,-173 591.86,-173"/>
<polygon fill="black" stroke="black" points="591.86,-169.5 581.86,-173 591.86,-176.5 591.86,-169.5"/>
</g>
<!-- AppRoutingModule -->
<g id="node4" class="node">
<title>AppRoutingModule</title>
<polygon fill="#8dd3c7" stroke="black" points="944.27,-122 941.27,-126 920.27,-126 917.27,-122 815.73,-122 815.73,-86 944.27,-86 944.27,-122"/>
<text text-anchor="middle" x="880" y="-99.8" font-family="Times,serif" font-size="14.00">AppRoutingModule</text>
</g>
<!-- AppRoutingModule&#45;&gt;AppModule -->
<g id="edge3" class="edge">
<title>AppRoutingModule&#45;&gt;AppModule</title>
<path fill="none" stroke="black" d="M880,-122.27C880,-140.56 880,-166 880,-166 880,-166 591.69,-166 591.69,-166"/>
<polygon fill="black" stroke="black" points="591.69,-162.5 581.69,-166 591.69,-169.5 591.69,-162.5"/>
</g>
<!-- CodigosPromocionalesModule -->
<g id="node5" class="node">
<title>CodigosPromocionalesModule</title>
<polygon fill="#8dd3c7" stroke="black" points="797.93,-122 794.93,-126 773.93,-126 770.93,-122 608.07,-122 608.07,-86 797.93,-86 797.93,-122"/>
<text text-anchor="middle" x="703" y="-99.8" font-family="Times,serif" font-size="14.00">CodigosPromocionalesModule</text>
</g>
<!-- CodigosPromocionalesModule&#45;&gt;AppModule -->
<g id="edge4" class="edge">
<title>CodigosPromocionalesModule&#45;&gt;AppModule</title>
<path fill="none" stroke="black" d="M703,-122.01C703,-138.05 703,-159 703,-159 703,-159 591.98,-159 591.98,-159"/>
<polygon fill="black" stroke="black" points="591.98,-155.5 581.98,-159 591.98,-162.5 591.98,-155.5"/>
</g>
<!-- LoteriaModule -->
<g id="node6" class="node">
<title>LoteriaModule</title>
<polygon fill="#8dd3c7" stroke="black" points="589.97,-122 586.97,-126 565.97,-126 562.97,-122 490.03,-122 490.03,-86 589.97,-86 589.97,-122"/>
<text text-anchor="middle" x="540" y="-99.8" font-family="Times,serif" font-size="14.00">LoteriaModule</text>
</g>
<!-- LoteriaModule&#45;&gt;AppModule -->
<g id="edge5" class="edge">
<title>LoteriaModule&#45;&gt;AppModule</title>
<path fill="none" stroke="black" d="M540,-122.11C540,-122.11 540,-140.99 540,-140.99"/>
<polygon fill="black" stroke="black" points="536.5,-140.99 540,-150.99 543.5,-140.99 536.5,-140.99"/>
</g>
<!-- LottoModule -->
<g id="node7" class="node">
<title>LottoModule</title>
<polygon fill="#8dd3c7" stroke="black" points="471.88,-122 468.88,-126 447.88,-126 444.88,-122 382.12,-122 382.12,-86 471.88,-86 471.88,-122"/>
<text text-anchor="middle" x="427" y="-99.8" font-family="Times,serif" font-size="14.00">LottoModule</text>
</g>
<!-- LottoModule&#45;&gt;AppModule -->
<g id="edge6" class="edge">
<title>LottoModule&#45;&gt;AppModule</title>
<path fill="none" stroke="black" d="M427,-122.01C427,-138.05 427,-159 427,-159 427,-159 488.24,-159 488.24,-159"/>
<polygon fill="black" stroke="black" points="488.24,-162.5 498.24,-159 488.24,-155.5 488.24,-162.5"/>
</g>
<!-- MillonariaModule -->
<g id="node8" class="node">
<title>MillonariaModule</title>
<polygon fill="#8dd3c7" stroke="black" points="364.15,-122 361.15,-126 340.15,-126 337.15,-122 245.85,-122 245.85,-86 364.15,-86 364.15,-122"/>
<text text-anchor="middle" x="305" y="-99.8" font-family="Times,serif" font-size="14.00">MillonariaModule</text>
</g>
<!-- MillonariaModule&#45;&gt;AppModule -->
<g id="edge7" class="edge">
<title>MillonariaModule&#45;&gt;AppModule</title>
<path fill="none" stroke="black" d="M305,-122.27C305,-140.56 305,-166 305,-166 305,-166 488.26,-166 488.26,-166"/>
<polygon fill="black" stroke="black" points="488.26,-169.5 498.26,-166 488.26,-162.5 488.26,-169.5"/>
</g>
<!-- PozoModule -->
<g id="node9" class="node">
<title>PozoModule</title>
<polygon fill="#8dd3c7" stroke="black" points="227.55,-122 224.55,-126 203.55,-126 200.55,-122 140.45,-122 140.45,-86 227.55,-86 227.55,-122"/>
<text text-anchor="middle" x="184" y="-99.8" font-family="Times,serif" font-size="14.00">PozoModule</text>
</g>
<!-- PozoModule&#45;&gt;AppModule -->
<g id="edge8" class="edge">
<title>PozoModule&#45;&gt;AppModule</title>
<path fill="none" stroke="black" d="M184,-122.13C184,-142.57 184,-173 184,-173 184,-173 488.12,-173 488.12,-173"/>
<polygon fill="black" stroke="black" points="488.12,-176.5 498.12,-173 488.12,-169.5 488.12,-176.5"/>
</g>
<!-- SharedModule -->
<g id="node10" class="node">
<title>SharedModule</title>
<polygon fill="#8dd3c7" stroke="black" points="122.42,-122 119.42,-126 98.42,-126 95.42,-122 23.58,-122 23.58,-86 122.42,-86 122.42,-122"/>
<text text-anchor="middle" x="73" y="-99.8" font-family="Times,serif" font-size="14.00">SharedModule</text>
</g>
<!-- SharedModule&#45;&gt;AppModule -->
<g id="edge9" class="edge">
<title>SharedModule&#45;&gt;AppModule</title>
<path fill="none" stroke="black" d="M73,-122.01C73,-144.49 73,-180 73,-180 73,-180 488.15,-180 488.15,-180"/>
<polygon fill="black" stroke="black" points="488.15,-183.5 498.15,-180 488.15,-176.5 488.15,-183.5"/>
</g>
</g>
</svg>
