<svg id="Capa_1" data-name="Capa 1" xmlns="http://www.w3.org/2000/svg" viewBox="0 0 500 500"><title>iconos new menu lotwria nacional</title><path d="M159.65,30.46A240.69,240.69,0,0,0,80,423.83a240.54,240.54,0,0,0,340.48,0,240.56,240.56,0,0,0,0-340.49A241.1,241.1,0,0,0,159.65,30.46ZM69.66,355a164.93,164.93,0,0,1-31.74-25.54,227,227,0,0,1-7.33-126.48A203.57,203.57,0,0,1,46,177.35c1.79-2.52,3.45-5.15,5.37-7.6l54.33,32.15v1.36a419,419,0,0,0,8.73,86.82,2.72,2.72,0,0,0,.07.33L72.37,356.48C71.46,356,70.54,355.51,69.66,355ZM231.2,466.64a207.92,207.92,0,0,0,28.93,12.11A225.75,225.75,0,0,1,138,449.16l91.08,16.23C229.75,465.83,230.46,466.26,231.2,466.64Zm-.33-16.44L123.39,431a335.71,335.71,0,0,1-33.6-48.69c-2.48-4.39-5.24-8.65-7.34-13.24l42.1-66c.93.23,2,.48,3.15.79a698.33,698.33,0,0,0,80.12,16c1.57.21,2.89.41,4,.53l50.46,87.24q-13.14,18.46-26.66,36.66C234.13,446.34,232.54,448.28,230.87,450.2ZM409.69,413a223.5,223.5,0,0,1-27.15,23.16,206.45,206.45,0,0,0-8.13-37l53.84-100.44c14.83-6.75,29.13-14.41,42.41-23.91a18.8,18.8,0,0,0,4.3-4.11A224.35,224.35,0,0,1,409.69,413ZM407.3,282.77q3,5.73,6,11.59l-52,97c-.3.07-.59.13-.89.17a473.94,473.94,0,0,1-85,8.18L223.45,310q12.12-22.49,24-45.11c5.39-10.22,10.69-20.51,16-30.79l107.4-11C384,242.35,396.47,262.05,407.3,282.77ZM385.51,167.71c-5.1,13.46-10.55,26.78-16,40.13L264.9,218.58c-1.25-1.65-2.54-3.27-3.91-4.82-12.35-14-24.79-27.9-37.2-41.85.11-.14.22-.24.34-.37l-15-15,29.13-87.7a41.11,41.11,0,0,1,6.08-1.2C260.12,66,276,64.19,291.85,63.27a230.25,230.25,0,0,1,29.38-.16l72.07,81.23C390.82,152.18,388.4,160,385.51,167.71Zm24.18-73.56A224.27,224.27,0,0,1,455.85,161a228.53,228.53,0,0,0-43-23.11c-2.36-1-4.77-1.83-7.23-2.68l-70.94-80a90.39,90.39,0,0,0,.86-10.4A224.24,224.24,0,0,1,409.69,94.15ZM178,40.66a2.94,2.94,0,0,0,.58.43c16.21,5.6,31,13.85,44.87,23.64l-27.22,82a2.7,2.7,0,0,0-.4.14c-5.57,2.3-11.25,4.36-16.73,6.86-22.59,10.26-44.61,21.63-65.35,35.27l-53.7-31.77a16.31,16.31,0,0,1,.93-4.9c3.61-9.61,7.16-19.27,11.23-28.68a215.88,215.88,0,0,1,10.63-21.11c2.56-2.82,5.2-5.61,7.93-8.34a224.14,224.14,0,0,1,87.73-54.31C178.38,40.1,178.2,40.38,178,40.66Z"/></svg>