<svg id="Capa_1" data-name="Capa 1" xmlns="http://www.w3.org/2000/svg" xmlns:xlink="http://www.w3.org/1999/xlink" viewBox="0 0 500 170"><defs><style>.cls-1{fill:#eae9ce;}.cls-2{fill:red;}.cls-3{clip-path:url(#clip-path);}.cls-4{clip-path:url(#clip-path-2);}.cls-5{clip-path:url(#clip-path-3);}.cls-6{clip-path:url(#clip-path-4);}.cls-7{fill:#8200ff;}.cls-8{clip-path:url(#clip-path-5);}.cls-9{clip-path:url(#clip-path-6);}.cls-10{clip-path:url(#clip-path-7);}.cls-11{clip-path:url(#clip-path-8);}.cls-12{fill:#39b200;}.cls-13{clip-path:url(#clip-path-9);}.cls-14{clip-path:url(#clip-path-10);}.cls-15{clip-path:url(#clip-path-11);}.cls-16{clip-path:url(#clip-path-12);}.cls-17{fill:#00d1cb;}.cls-18{clip-path:url(#clip-path-13);}.cls-19{clip-path:url(#clip-path-14);}.cls-20{clip-path:url(#clip-path-15);}.cls-21{clip-path:url(#clip-path-16);}.cls-22{fill:#ff6d00;}.cls-23{clip-path:url(#clip-path-17);}.cls-24{clip-path:url(#clip-path-18);}.cls-25{clip-path:url(#clip-path-19);}.cls-26{clip-path:url(#clip-path-20);}.cls-27{fill:#b51f20;}.cls-28{fill:#333;}</style><clipPath id="clip-path"><path class="cls-1" d="M155.67,43.43a7.4,7.4,0,0,0-5.82,8.26,12.6,12.6,0,0,0,3.76-3.53A12.43,12.43,0,0,0,155.67,43.43Z"/></clipPath><clipPath id="clip-path-2"><path class="cls-1" d="M130.72,38.2a6.85,6.85,0,0,0,4.54-3,6.87,6.87,0,0,0,1.28-5.28,12.79,12.79,0,0,0-5.82,8.26Z"/></clipPath><clipPath id="clip-path-3"><path class="cls-1" d="M145.81,28.34a7.4,7.4,0,0,0,8.26,5.82,12.7,12.7,0,0,0-8.26-5.82Z"/></clipPath><clipPath id="clip-path-4"><path class="cls-1" d="M140.58,53.29a7.38,7.38,0,0,0-8.26-5.82,12.89,12.89,0,0,0,3.53,3.77A12.7,12.7,0,0,0,140.58,53.29Z"/></clipPath><clipPath id="clip-path-5"><path class="cls-1" d="M85.79,19.79a11.07,11.07,0,0,0-5.31,7,11,11,0,0,0,.89,8.69,20.56,20.56,0,0,0,4.42-15.64Z"/></clipPath><clipPath id="clip-path-6"><path class="cls-1" d="M45.13,25.18a11,11,0,0,0,5.31-6.94,11,11,0,0,0-.88-8.7,20.51,20.51,0,0,0-4.43,15.64Z"/></clipPath><clipPath id="clip-path-7"><path class="cls-1" d="M62.77,2.16a11.07,11.07,0,0,0,6.95,5.31,11,11,0,0,0,8.69-.89A20.56,20.56,0,0,0,62.77,2.16Z"/></clipPath><clipPath id="clip-path-8"><path class="cls-1" d="M68.16,42.82a11,11,0,0,0-6.94-5.31,11.05,11.05,0,0,0-8.7.88,20.54,20.54,0,0,0,15.64,4.43Z"/></clipPath><clipPath id="clip-path-9"><path class="cls-1" d="M111-3a7.7,7.7,0,0,0,3.26,5.17,7.67,7.67,0,0,0,5.91,1.54A14.34,14.34,0,0,0,111-3Z"/></clipPath><clipPath id="clip-path-10"><path class="cls-1" d="M104.64,25a7.68,7.68,0,0,0-3.25-5.17,7.67,7.67,0,0,0-5.91-1.54A14.36,14.36,0,0,0,104.64,25Z"/></clipPath><clipPath id="clip-path-11"><path class="cls-1" d="M93.86,7.78A7.7,7.7,0,0,0,99,4.52a7.67,7.67,0,0,0,1.54-5.91,14.18,14.18,0,0,0-4.3,3.89A14.35,14.35,0,0,0,93.86,7.78Z"/></clipPath><clipPath id="clip-path-12"><path class="cls-1" d="M121.82,14.17a7.66,7.66,0,0,0-5.17,3.25,7.68,7.68,0,0,0-1.55,5.91,14.33,14.33,0,0,0,6.72-9.16Z"/></clipPath><clipPath id="clip-path-13"><path class="cls-1" d="M120,26.39a6.11,6.11,0,0,0,6.36,5.42A10.52,10.52,0,0,0,120,26.39Z"/></clipPath><clipPath id="clip-path-14"><path class="cls-1" d="M113.85,46.55a5.71,5.71,0,0,0-2.11-4,5.64,5.64,0,0,0-4.26-1.45,10.56,10.56,0,0,0,2.63,3.36A10.38,10.38,0,0,0,113.85,46.55Z"/></clipPath><clipPath id="clip-path-15"><path class="cls-1" d="M106.87,33.37A6.11,6.11,0,0,0,112.29,27a10.32,10.32,0,0,0-3.37,2.62A10.5,10.5,0,0,0,106.87,33.37Z"/></clipPath><clipPath id="clip-path-16"><path class="cls-1" d="M127,39.56a5.71,5.71,0,0,0-4,2.11,5.64,5.64,0,0,0-1.45,4.26A10.56,10.56,0,0,0,125,43.3,10.38,10.38,0,0,0,127,39.56Z"/></clipPath><clipPath id="clip-path-17"><path class="cls-1" d="M86.08,43.75A5,5,0,0,0,87.53,37a8.69,8.69,0,0,0-1.42,3.22A8.83,8.83,0,0,0,86.08,43.75Z"/></clipPath><clipPath id="clip-path-18"><path class="cls-1" d="M103.12,40.37a4.67,4.67,0,0,0-2.05,3.08,4.61,4.61,0,0,0,.61,3.65,8.73,8.73,0,0,0,1.44-6.73Z"/></clipPath><clipPath id="clip-path-19"><path class="cls-1" d="M96.29,50.58a5,5,0,0,0-6.72-1.44,8.71,8.71,0,0,0,6.72,1.44Z"/></clipPath><clipPath id="clip-path-20"><path class="cls-1" d="M92.91,33.55A5,5,0,0,0,99.64,35a8.75,8.75,0,0,0-6.73-1.44Z"/></clipPath></defs><title>iconos new menu loteria nacional carrito</title><circle class="cls-2" cx="143.19" cy="40.82" r="12.75" transform="translate(45.1 152.83) rotate(-64.7)"/><path class="cls-1" d="M148.14,44.3a6.09,6.09,0,1,1-1.47-8.48A6.08,6.08,0,0,1,148.14,44.3Z"/><path class="cls-1" d="M155.67,43.43a7.4,7.4,0,0,0-5.82,8.26,12.6,12.6,0,0,0,3.76-3.53A12.43,12.43,0,0,0,155.67,43.43Z"/><g class="cls-3"><path d="M151.16,49.9a.78.78,0,0,1-.28-.29.76.76,0,0,1-.11-.37,1.14,1.14,0,0,1,.07-.43,2,2,0,0,1,.25-.45,1.83,1.83,0,0,1,.38-.4,1.29,1.29,0,0,1,.39-.22,1,1,0,0,1,.36-.05.67.67,0,0,1,.3.11,1.08,1.08,0,0,1,.19.17.48.48,0,0,1,.08.18.5.5,0,0,1,0,.21,1.12,1.12,0,0,1-.06.23c.31-.27.59-.31.82-.16a.58.58,0,0,1,.21.26.89.89,0,0,1,0,.33,1,1,0,0,1-.1.35,1.31,1.31,0,0,1-.21.36,2.24,2.24,0,0,1-.26.32,1.86,1.86,0,0,1-.28.21,1.07,1.07,0,0,1-.31.13,1.45,1.45,0,0,1-.37,0l.1-.29a.49.49,0,0,1,.11-.2.33.33,0,0,1,.16-.09,1.07,1.07,0,0,0,.3-.09.76.76,0,0,0,.21-.19.85.85,0,0,0,.1-.18,1,1,0,0,0,0-.16.28.28,0,0,0,0-.12.3.3,0,0,0-.08-.08A.38.38,0,0,0,153,49a.27.27,0,0,0-.15,0,.89.89,0,0,0-.18.14,2,2,0,0,0-.26.32l-.36-.18a1.62,1.62,0,0,0,.19-.31.48.48,0,0,0,.06-.21.17.17,0,0,0,0-.14.4.4,0,0,0-.12-.1.36.36,0,0,0-.3,0,.52.52,0,0,0-.28.22.46.46,0,0,0-.11.29.33.33,0,0,0,.07.23.18.18,0,0,1,.05.18.41.41,0,0,1-.13.21Z"/><path d="M155.16,46.64a.29.29,0,0,1,.13-.12.1.1,0,0,1,.11,0l.18.21-1.29,1.81-.12-.09a.28.28,0,0,1-.06-.08.27.27,0,0,1,0-.13l0-1.24c0-.12,0-.22,0-.32a1.09,1.09,0,0,0,0-.26.87.87,0,0,0-.2-.38.27.27,0,0,0-.26-.11.43.43,0,0,0-.27.2.63.63,0,0,0-.12.31.53.53,0,0,0,0,.26.29.29,0,0,1,0,.22.41.41,0,0,1-.13.21l-.29.31a1,1,0,0,1-.22-.38,1,1,0,0,1-.06-.43,1.32,1.32,0,0,1,.1-.47,2,2,0,0,1,.26-.47,1.73,1.73,0,0,1,.37-.39,1.05,1.05,0,0,1,.37-.18.59.59,0,0,1,.35,0,.66.66,0,0,1,.29.21.91.91,0,0,1,.17.28,1.5,1.5,0,0,1,.07.32,1.83,1.83,0,0,1,0,.34c0,.12,0,.24,0,.36l0,.87a2.4,2.4,0,0,1,.11-.23,1.57,1.57,0,0,1,.12-.19Z"/></g><path class="cls-1" d="M130.72,38.2a6.85,6.85,0,0,0,4.54-3,6.87,6.87,0,0,0,1.28-5.28,12.79,12.79,0,0,0-5.82,8.26Z"/><g class="cls-4"><path d="M135.24,31.82a.87.87,0,0,1,.29.28,1,1,0,0,1,.11.38,1.11,1.11,0,0,1-.08.42,1.88,1.88,0,0,1-.25.46,1.79,1.79,0,0,1-.37.4,1.54,1.54,0,0,1-.39.22.8.8,0,0,1-.37,0,.63.63,0,0,1-.3-.1.74.74,0,0,1-.18-.17.47.47,0,0,1-.09-.39,1.12,1.12,0,0,1,.06-.23c-.32.26-.59.31-.82.16a.64.64,0,0,1-.21-.26.72.72,0,0,1,0-.33,1.28,1.28,0,0,1,.11-.35,1.9,1.9,0,0,1,.2-.37,2.86,2.86,0,0,1,.27-.31,1.31,1.31,0,0,1,.27-.21,1.13,1.13,0,0,1,.32-.13,2,2,0,0,1,.37,0l-.1.3a.67.67,0,0,1-.12.2.29.29,0,0,1-.16.09,1.07,1.07,0,0,0-.3.09.76.76,0,0,0-.21.19l-.09.18a.31.31,0,0,0,0,.16.27.27,0,0,0,0,.12l.08.08a.42.42,0,0,0,.14.06.23.23,0,0,0,.14,0,.59.59,0,0,0,.19-.15,2.44,2.44,0,0,0,.26-.31l.35.17a2,2,0,0,0-.19.32.48.48,0,0,0-.06.21.21.21,0,0,0,0,.14.4.4,0,0,0,.12.1.39.39,0,0,0,.31.05.53.53,0,0,0,.28-.23.5.5,0,0,0,.11-.28.33.33,0,0,0-.07-.23.22.22,0,0,1-.06-.18.5.5,0,0,1,.13-.21Z"/><path d="M131.25,35.08a.27.27,0,0,1-.14.11.08.08,0,0,1-.11,0l-.17-.21,1.29-1.81.11.09a.12.12,0,0,1,.06.08.24.24,0,0,1,0,.13l0,1.24V35a2,2,0,0,0,0,.26,1,1,0,0,0,.07.21.66.66,0,0,0,.12.17.32.32,0,0,0,.27.11.4.4,0,0,0,.26-.2.56.56,0,0,0,.13-.31.44.44,0,0,0,0-.26.44.44,0,0,1,0-.22.63.63,0,0,1,.13-.21l.29-.31a1,1,0,0,1,.23.37,1.09,1.09,0,0,1,.06.44,1.58,1.58,0,0,1-.1.47,2.42,2.42,0,0,1-.26.47,2,2,0,0,1-.37.39,1.09,1.09,0,0,1-.38.18.69.69,0,0,1-.35,0,.75.75,0,0,1-.29-.22.92.92,0,0,1-.16-.27,1.67,1.67,0,0,1-.08-.32c0-.11,0-.22,0-.34s0-.24,0-.36l0-.87a2.4,2.4,0,0,1-.11.23l-.12.19Z"/></g><path class="cls-1" d="M145.81,28.34a7.4,7.4,0,0,0,8.26,5.82,12.7,12.7,0,0,0-8.26-5.82Z"/><g class="cls-5"><path d="M152.27,33a.89.89,0,0,1-.29.29.79.79,0,0,1-.37.1,1.11,1.11,0,0,1-.43-.07,2,2,0,0,1-.45-.25,2.14,2.14,0,0,1-.41-.37,1.25,1.25,0,0,1-.21-.39.81.81,0,0,1-.05-.37.64.64,0,0,1,.11-.3.59.59,0,0,1,.17-.18.44.44,0,0,1,.18-.09.49.49,0,0,1,.21,0l.23.06c-.27-.32-.32-.59-.16-.82a.52.52,0,0,1,.26-.21.69.69,0,0,1,.32,0,1.78,1.78,0,0,1,.36.1,3.35,3.35,0,0,1,.36.21,3,3,0,0,1,.31.26,1.42,1.42,0,0,1,.22.28,1.66,1.66,0,0,1,.12.31,1.52,1.52,0,0,1,.05.38l-.29-.1a.56.56,0,0,1-.2-.12.24.24,0,0,1-.09-.16.81.81,0,0,0-.1-.3.63.63,0,0,0-.19-.21.76.76,0,0,0-.18-.09.26.26,0,0,0-.15,0,.21.21,0,0,0-.12,0,.24.24,0,0,0-.09.08l-.06.13a.26.26,0,0,0,0,.15.65.65,0,0,0,.14.19,2.67,2.67,0,0,0,.32.26l-.18.35a2,2,0,0,0-.31-.19.57.57,0,0,0-.21-.06.24.24,0,0,0-.15,0,.38.38,0,0,0-.09.12.36.36,0,0,0-.05.3.49.49,0,0,0,.22.29.53.53,0,0,0,.29.11.31.31,0,0,0,.22-.08.29.29,0,0,1,.19,0,.51.51,0,0,1,.21.13Z"/><path d="M149,29a.27.27,0,0,1-.11-.14.11.11,0,0,1,0-.11l.21-.18,1.81,1.29-.08.12-.08.06a.27.27,0,0,1-.13,0l-1.25,0a1.6,1.6,0,0,0-.31,0l-.26,0a.65.65,0,0,0-.21.07.71.71,0,0,0-.18.12.35.35,0,0,0-.11.26.41.41,0,0,0,.21.27.63.63,0,0,0,.3.12.47.47,0,0,0,.27,0,.27.27,0,0,1,.21,0,.47.47,0,0,1,.22.13l.3.29a1,1,0,0,1-.37.23,1.07,1.07,0,0,1-.44.06,1.39,1.39,0,0,1-.47-.11,1.88,1.88,0,0,1-.46-.25,1.55,1.55,0,0,1-.39-.37.87.87,0,0,1-.18-.38.59.59,0,0,1,0-.35.72.72,0,0,1,.21-.29.78.78,0,0,1,.28-.16,1.09,1.09,0,0,1,.31-.08l.34,0h.37l.87,0-.23-.11-.2-.13Z"/></g><path class="cls-1" d="M140.58,53.29a7.38,7.38,0,0,0-8.26-5.82,12.89,12.89,0,0,0,3.53,3.77A12.7,12.7,0,0,0,140.58,53.29Z"/><g class="cls-6"><path d="M134.11,48.68a.87.87,0,0,1,.28-.29.79.79,0,0,1,.37-.1,1,1,0,0,1,.43.07,2.34,2.34,0,0,1,.46.25,2,2,0,0,1,.4.37,1.54,1.54,0,0,1,.22.39,1,1,0,0,1,0,.37.64.64,0,0,1-.11.3.73.73,0,0,1-.16.18.48.48,0,0,1-.19.09h-.2a1,1,0,0,1-.23-.06c.26.32.31.59.15.82a.58.58,0,0,1-.26.21.67.67,0,0,1-.32,0,2,2,0,0,1-.36-.1,3.35,3.35,0,0,1-.36-.21,3,3,0,0,1-.31-.26,1.08,1.08,0,0,1-.21-.28,1.13,1.13,0,0,1-.13-.32,1.38,1.38,0,0,1-.05-.37l.3.1a.62.62,0,0,1,.19.12.26.26,0,0,1,.1.16.66.66,0,0,0,.09.3.63.63,0,0,0,.19.21.76.76,0,0,0,.18.09.28.28,0,0,0,.15,0,.21.21,0,0,0,.12,0,.24.24,0,0,0,.09-.08l.06-.13a.26.26,0,0,0,0-.15.54.54,0,0,0-.14-.19,2.67,2.67,0,0,0-.32-.26l.18-.35a2,2,0,0,0,.31.19.56.56,0,0,0,.22.06.23.23,0,0,0,.14,0,.63.63,0,0,0,.1-.12.43.43,0,0,0,.05-.31.59.59,0,0,0-.23-.28A.53.53,0,0,0,135,49a.33.33,0,0,0-.22.08.28.28,0,0,1-.18,0,.41.41,0,0,1-.21-.13Z"/><path d="M137.37,52.67a.27.27,0,0,1,.11.14.11.11,0,0,1,0,.11l-.21.17-1.81-1.28.09-.12s0,0,.07-.06a.27.27,0,0,1,.13,0l1.25,0h.31l.26,0a.65.65,0,0,0,.21-.07.57.57,0,0,0,.18-.12.35.35,0,0,0,.11-.27.4.4,0,0,0-.2-.26.57.57,0,0,0-.31-.12.48.48,0,0,0-.27,0,.27.27,0,0,1-.21,0,.63.63,0,0,1-.21-.13l-.31-.29a1,1,0,0,1,.37-.23,1.09,1.09,0,0,1,.44-.06,1.39,1.39,0,0,1,.47.11,2.15,2.15,0,0,1,.47.25,2,2,0,0,1,.39.37,1.18,1.18,0,0,1,.18.38.69.69,0,0,1,0,.35.72.72,0,0,1-.21.29.78.78,0,0,1-.28.16,1.41,1.41,0,0,1-.31.08l-.34,0h-.37l-.87,0,.23.11a1,1,0,0,1,.2.13Z"/></g><path d="M140.38,37.61a2.14,2.14,0,0,1,.65-.47,1.75,1.75,0,0,1,.69-.17,1.84,1.84,0,0,1,.69.1,2.58,2.58,0,0,1,.67.36,2.21,2.21,0,0,1,.55.55,1.77,1.77,0,0,1,.27.6,1.51,1.51,0,0,1,0,.6,1.34,1.34,0,0,1-.25.54,2,2,0,0,1-.33.37,1.09,1.09,0,0,1-.35.19.92.92,0,0,1-.37,0,1.53,1.53,0,0,1-.41-.07,1.31,1.31,0,0,1,0,1.64,1.91,1.91,0,0,1-.62.56,1.61,1.61,0,0,1-.7.2,1.93,1.93,0,0,1-.74-.11,2.57,2.57,0,0,1-.69-.37,2.48,2.48,0,0,1-.55-.51,1.56,1.56,0,0,1-.3-.57,1.74,1.74,0,0,1-.07-.65,3.31,3.31,0,0,1,.14-.77l.58.15a.71.71,0,0,1,.36.2.38.38,0,0,1,.1.3,1.52,1.52,0,0,0,0,.62.77.77,0,0,0,.29.4,1,1,0,0,0,.34.16.81.81,0,0,0,.31,0,.61.61,0,0,0,.28-.11.8.8,0,0,0,.21-.2,1.81,1.81,0,0,0,.17-.29.42.42,0,0,0,0-.29.75.75,0,0,0-.2-.35,3.08,3.08,0,0,0-.51-.45l.51-.69a2.39,2.39,0,0,0,.51.3.92.92,0,0,0,.37.08.52.52,0,0,0,.27-.1,1,1,0,0,0,.22-.23.75.75,0,0,0,.17-.52.59.59,0,0,0-.3-.45.7.7,0,0,0-.46-.16.74.74,0,0,0-.43.14.51.51,0,0,1-.35.1.6.6,0,0,1-.33-.2Z"/><path d="M145,44.76a.47.47,0,0,1,.19.28.38.38,0,0,1-.08.3l-.43.59-3.32-2.43.23-.32a1.11,1.11,0,0,1,.19-.18.62.62,0,0,1,.28-.09l2.36-.38a5.33,5.33,0,0,0,.55-.11,3.9,3.9,0,0,0,.45-.16,2.07,2.07,0,0,0,.35-.22,1.94,1.94,0,0,0,.28-.29.87.87,0,0,0,.18-.54.7.7,0,0,0-.3-.45.77.77,0,0,0-.47-.15.68.68,0,0,0-.42.14.54.54,0,0,1-.36.1.6.6,0,0,1-.33-.2l-.46-.48a2.11,2.11,0,0,1,.64-.47,2,2,0,0,1,.69-.18,1.85,1.85,0,0,1,.69.11,2.43,2.43,0,0,1,.67.36,2.13,2.13,0,0,1,.56.56,1.59,1.59,0,0,1,.27.63,1.47,1.47,0,0,1,0,.66,1.73,1.73,0,0,1-.3.63,1.68,1.68,0,0,1-.42.42,2,2,0,0,1-.51.28,3.43,3.43,0,0,1-.57.17c-.2,0-.41.08-.63.12l-1.62.28a2.63,2.63,0,0,1,.42.17,1.63,1.63,0,0,1,.34.21Z"/><path class="cls-7" d="M85.2,28.07A20.51,20.51,0,1,1,71.05,2.76,20.51,20.51,0,0,1,85.2,28.07Z"/><path class="cls-1" d="M74.88,25.15a9.79,9.79,0,1,1-6.75-12.08A9.79,9.79,0,0,1,74.88,25.15Z"/><path d="M62.51,19.79a3.81,3.81,0,0,1,.79-1.18,3.19,3.19,0,0,1,1-.7,3.27,3.27,0,0,1,1.21-.25,4.48,4.48,0,0,1,1.33.18,4,4,0,0,1,1.25.58,3,3,0,0,1,.81.83,2.42,2.42,0,0,1,.36,1,2.49,2.49,0,0,1-.07,1.05,3.5,3.5,0,0,1-.33.8,1.88,1.88,0,0,1-.46.54,1.75,1.75,0,0,1-.59.31,3.18,3.18,0,0,1-.72.13,2.3,2.3,0,0,1,1,2.72,3.24,3.24,0,0,1-.68,1.29,2.94,2.94,0,0,1-1,.76,3.37,3.37,0,0,1-1.28.27,5.11,5.11,0,0,1-2.6-.69,3.11,3.11,0,0,1-.85-.76,3.49,3.49,0,0,1-.52-1A6,6,0,0,1,61,24.26l1-.11a1.21,1.21,0,0,1,.7.11.71.71,0,0,1,.37.45,2.32,2.32,0,0,0,.42,1,1.34,1.34,0,0,0,.73.49,1.65,1.65,0,0,0,.65.05,1.51,1.51,0,0,0,.53-.18,1.4,1.4,0,0,0,.38-.35,1.49,1.49,0,0,0,.22-.46,2.94,2.94,0,0,0,.12-.59.78.78,0,0,0-.12-.51,1.41,1.41,0,0,0-.54-.46,5,5,0,0,0-1.12-.42l.41-1.46a4.37,4.37,0,0,0,1,.18,1.62,1.62,0,0,0,.67-.09.79.79,0,0,0,.39-.33,2.18,2.18,0,0,0,.22-.51,1.35,1.35,0,0,0,0-1,1.17,1.17,0,0,0-.78-.56,1.32,1.32,0,0,0-.86,0,1.38,1.38,0,0,0-.62.49.93.93,0,0,1-.52.4,1.18,1.18,0,0,1-.68-.14Z"/><path class="cls-1" d="M85.79,19.79a11.07,11.07,0,0,0-5.31,7,11,11,0,0,0,.89,8.69,20.56,20.56,0,0,0,4.42-15.64Z"/><g class="cls-8"><path d="M82.92,30.83a.94.94,0,0,1-.55-.34,1.68,1.68,0,0,1-.32-.7,3.87,3.87,0,0,1,0-1,6.31,6.31,0,0,1,.24-1.26,6.2,6.2,0,0,1,.48-1.22,3.05,3.05,0,0,1,.56-.76,1.07,1.07,0,0,1,.54-.29.61.61,0,0,1,.47.11,1.17,1.17,0,0,1,.29.3,1,1,0,0,1,.16.37,2,2,0,0,1,0,.45,5,5,0,0,1,0,.52c.35-.73.68-1,1-.76a.85.85,0,0,1,.28.42,2.25,2.25,0,0,1,.08.61,4.88,4.88,0,0,1-.06.73c0,.26-.11.52-.18.79a6.16,6.16,0,0,1-.25.73,3.48,3.48,0,0,1-.27.58,4.22,4.22,0,0,1-.34.46,2.78,2.78,0,0,1-.45.37l.06-.61a2.07,2.07,0,0,1,.11-.46.66.66,0,0,1,.18-.29,1.72,1.72,0,0,0,.34-.38,1.64,1.64,0,0,0,.21-.5,2.26,2.26,0,0,0,.08-.39,1.6,1.6,0,0,0,0-.31.64.64,0,0,0-.06-.22.29.29,0,0,0-.11-.11.35.35,0,0,0-.17,0s-.11,0-.18.12a1.62,1.62,0,0,0-.2.4,6.57,6.57,0,0,0-.27.8l-.51-.1a6.69,6.69,0,0,0,.18-.78,2.26,2.26,0,0,0,0-.49.49.49,0,0,0-.09-.28.45.45,0,0,0-.19-.14.39.39,0,0,0-.46.07,1.55,1.55,0,0,0-.36.7,1.69,1.69,0,0,0-.07.72.64.64,0,0,0,.18.43.48.48,0,0,1,.13.34,1.78,1.78,0,0,1-.12.54Z"/></g><path class="cls-1" d="M45.13,25.18a11,11,0,0,0,5.31-6.94,11,11,0,0,0-.88-8.7,20.51,20.51,0,0,0-4.43,15.64Z"/><g class="cls-9"><path d="M48,14.15a.86.86,0,0,1,.54.33,1.61,1.61,0,0,1,.32.71,3.74,3.74,0,0,1,.05,1,6.84,6.84,0,0,1-.25,1.26,5.66,5.66,0,0,1-.47,1.22,3.05,3.05,0,0,1-.56.76,1,1,0,0,1-.55.29.61.61,0,0,1-.47-.11,1.17,1.17,0,0,1-.29-.3,1.38,1.38,0,0,1-.16-.37,2,2,0,0,1-.05-.44,3.4,3.4,0,0,1,0-.53c-.36.74-.69,1-1,.76a.71.71,0,0,1-.27-.42,1.92,1.92,0,0,1-.08-.61,3.91,3.91,0,0,1,.06-.73,6,6,0,0,1,.18-.79,7,7,0,0,1,.24-.73,4.33,4.33,0,0,1,.28-.57,2.29,2.29,0,0,1,.34-.46,2.67,2.67,0,0,1,.44-.38l-.06.62a1.65,1.65,0,0,1-.11.45.76.76,0,0,1-.17.29,1.59,1.59,0,0,0-.35.39,2.25,2.25,0,0,0-.21.49,4,4,0,0,0-.08.4,1.5,1.5,0,0,0,0,.3.64.64,0,0,0,.06.22.23.23,0,0,0,.11.11.38.38,0,0,0,.17,0,.23.23,0,0,0,.18-.11,2.31,2.31,0,0,0,.21-.4c.07-.19.16-.46.26-.81l.51.11a6.17,6.17,0,0,0-.18.77,2.29,2.29,0,0,0,0,.49.49.49,0,0,0,.09.28.59.59,0,0,0,.2.15.4.4,0,0,0,.45-.08,1.42,1.42,0,0,0,.37-.69,1.94,1.94,0,0,0,.07-.73.75.75,0,0,0-.18-.43.48.48,0,0,1-.14-.34,1.53,1.53,0,0,1,.13-.53Z"/></g><path class="cls-1" d="M62.77,2.16a11.07,11.07,0,0,0,6.95,5.31,11,11,0,0,0,8.69-.89A20.56,20.56,0,0,0,62.77,2.16Z"/><g class="cls-10"><path d="M73.81,5a.94.94,0,0,1-.34.55,1.56,1.56,0,0,1-.7.31,3.47,3.47,0,0,1-1,.05,6.31,6.31,0,0,1-1.26-.24,6.2,6.2,0,0,1-1.22-.48,3.05,3.05,0,0,1-.76-.56,1.07,1.07,0,0,1-.29-.54.61.61,0,0,1,.11-.47,1.17,1.17,0,0,1,.3-.29A1,1,0,0,1,69,3.2a2,2,0,0,1,.45-.05l.52,0c-.73-.35-1-.68-.76-1a.85.85,0,0,1,.42-.28,2.25,2.25,0,0,1,.61-.08A4.88,4.88,0,0,1,71,1.9l.79.18a6.16,6.16,0,0,1,.73.25,3.48,3.48,0,0,1,.58.27,3.31,3.31,0,0,1,.45.34,2.38,2.38,0,0,1,.38.45l-.61-.06a2.07,2.07,0,0,1-.46-.11A.66.66,0,0,1,72.52,3a1.72,1.72,0,0,0-.38-.34,1.64,1.64,0,0,0-.5-.21,2.26,2.26,0,0,0-.39-.08,1.6,1.6,0,0,0-.31,0,.64.64,0,0,0-.22.06.29.29,0,0,0-.11.11.35.35,0,0,0,0,.17s0,.11.12.18a1.62,1.62,0,0,0,.4.2,6.57,6.57,0,0,0,.8.27l-.1.51A6.69,6.69,0,0,0,71,3.73a2.26,2.26,0,0,0-.49,0,.49.49,0,0,0-.28.09A.45.45,0,0,0,70.1,4a.39.39,0,0,0,.07.46,1.55,1.55,0,0,0,.7.36,1.69,1.69,0,0,0,.72.07A.64.64,0,0,0,72,4.69a.48.48,0,0,1,.34-.13,1.78,1.78,0,0,1,.54.12Z"/></g><path class="cls-1" d="M68.16,42.82a11,11,0,0,0-6.94-5.31,11.05,11.05,0,0,0-8.7.88,20.54,20.54,0,0,0,15.64,4.43Z"/><g class="cls-11"><path d="M57.13,39.94a1,1,0,0,1,.33-.54,1.61,1.61,0,0,1,.71-.32,3.43,3.43,0,0,1,1,0,6.05,6.05,0,0,1,1.26.24,5.17,5.17,0,0,1,1.22.48,3,3,0,0,1,.76.55,1,1,0,0,1,.29.55.61.61,0,0,1-.11.47.92.92,0,0,1-.3.29,1.25,1.25,0,0,1-.37.16,2,2,0,0,1-.44,0,3.4,3.4,0,0,1-.53,0c.74.36,1,.69.76,1a.71.71,0,0,1-.42.27,2.18,2.18,0,0,1-.61.09,3.8,3.8,0,0,1-.72-.07,6.09,6.09,0,0,1-.8-.18,7,7,0,0,1-.73-.24,3.78,3.78,0,0,1-.57-.28,2.29,2.29,0,0,1-.46-.34,3.25,3.25,0,0,1-.38-.44l.62.06a1.65,1.65,0,0,1,.45.11.69.69,0,0,1,.29.17,1.59,1.59,0,0,0,.39.35,2.25,2.25,0,0,0,.49.21l.4.08H60a.65.65,0,0,0,.21-.06.26.26,0,0,0,.12-.11.59.59,0,0,0,0-.17.24.24,0,0,0-.12-.18,2,2,0,0,0-.4-.21c-.19-.07-.46-.16-.81-.26l.11-.51a5.88,5.88,0,0,0,.78.18,2.23,2.23,0,0,0,.49,0,.45.45,0,0,0,.42-.29.38.38,0,0,0-.08-.45,1.3,1.3,0,0,0-.69-.36,1.74,1.74,0,0,0-.72-.08.72.72,0,0,0-.43.18.49.49,0,0,1-.34.14,1.58,1.58,0,0,1-.54-.13Z"/></g><path class="cls-12" d="M116.31-.59a14.33,14.33,0,1,1-20,3.09A14.34,14.34,0,0,1,116.31-.59Z"/><path class="cls-1" d="M111.88,5.45a6.85,6.85,0,1,1-9.56,1.48A6.85,6.85,0,0,1,111.88,5.45Z"/><path class="cls-1" d="M111-3a7.7,7.7,0,0,0,3.26,5.17,7.67,7.67,0,0,0,5.91,1.54A14.34,14.34,0,0,0,111-3Z"/><g class="cls-13"><path d="M117.3-.46a.43.43,0,0,1-.16-.18.15.15,0,0,1,0-.16l.19-.26,2.43,1.8-.08.17s0,0-.07.08a.24.24,0,0,1-.15,0L118,1a2,2,0,0,0-.35,0l-.28.05a.68.68,0,0,0-.21.1.81.81,0,0,0-.16.16.4.4,0,0,0,0,.35.77.77,0,0,0,.29.36.79.79,0,0,0,.37.16.37.37,0,0,0,.28,0,.28.28,0,0,1,.23,0,.77.77,0,0,1,.27.18l.41.39a.73.73,0,0,1-.35.28A1,1,0,0,1,118,3a1.47,1.47,0,0,1-.54-.15,2.45,2.45,0,0,1-.57-.34,2.69,2.69,0,0,1-.52-.48,1.66,1.66,0,0,1-.3-.5,1,1,0,0,1-.08-.46.71.71,0,0,1,.14-.39.65.65,0,0,1,.25-.22,1.1,1.1,0,0,1,.32-.11,2.22,2.22,0,0,1,.37,0l.41,0,1,0-.29-.15L118,0Z"/><path d="M114.86-.69a2.41,2.41,0,0,1-.46-.26A2.55,2.55,0,0,1,114-1.3a1.59,1.59,0,0,1-.23-.39.67.67,0,0,1,0-.39.58.58,0,0,1,.2-.33.79.79,0,0,1,.38-.18,1.34,1.34,0,0,1,.49,0,2,2,0,0,1,.54.16,2.49,2.49,0,0,1,.56.33,2.61,2.61,0,0,1,.48.44,1.31,1.31,0,0,1,.27.44.89.89,0,0,1,.07.42.73.73,0,0,1-.15.39,1.31,1.31,0,0,1-1,.4L114,.1a.64.64,0,0,1-.28,0,1.11,1.11,0,0,1-.32-.17l-.8-.59,2.09,0Zm.78-1.08a1.41,1.41,0,0,0-.24-.13.9.9,0,0,0-.24-.07.79.79,0,0,0-.22,0,.32.32,0,0,0-.17.1.3.3,0,0,0-.1.17.31.31,0,0,0,0,.19.57.57,0,0,0,.12.21,1.07,1.07,0,0,0,.22.2,1.28,1.28,0,0,0,.25.14.53.53,0,0,0,.24.06.47.47,0,0,0,.21,0,.39.39,0,0,0,.17-.11A.44.44,0,0,0,116-1.2a.28.28,0,0,0,0-.18.77.77,0,0,0-.11-.19A2.3,2.3,0,0,0,115.64-1.77Z"/></g><path class="cls-1" d="M104.64,25a7.68,7.68,0,0,0-3.25-5.17,7.67,7.67,0,0,0-5.91-1.54A14.36,14.36,0,0,0,104.64,25Z"/><g class="cls-14"><path d="M98.66,22.66a.54.54,0,0,1,.16.19.13.13,0,0,1,0,.16l-.18.25L96.2,21.47l.07-.17a.2.2,0,0,1,.08-.08.26.26,0,0,1,.14,0l1.43,0h.35l.28,0a1,1,0,0,0,.21-.1.5.5,0,0,0,.15-.17.38.38,0,0,0,0-.34.8.8,0,0,0-.3-.36.76.76,0,0,0-.36-.16.36.36,0,0,0-.28.05.28.28,0,0,1-.23,0,.77.77,0,0,1-.27-.18l-.42-.39a.91.91,0,0,1,.36-.29,1,1,0,0,1,.46-.06,1.66,1.66,0,0,1,.54.14,3.88,3.88,0,0,1,.57.34,3.08,3.08,0,0,1,.52.49,1.75,1.75,0,0,1,.3.49,1.16,1.16,0,0,1,.08.47.8.8,0,0,1-.14.39.75.75,0,0,1-.25.22,1.19,1.19,0,0,1-.32.1,2.25,2.25,0,0,1-.38,0h-.4l-1,0a2.64,2.64,0,0,1,.29.15l.26.17Z"/><path d="M101.1,22.89a2.68,2.68,0,0,1,.45.27,2.13,2.13,0,0,1,.38.35,1.37,1.37,0,0,1,.24.39.75.75,0,0,1,0,.39.55.55,0,0,1-.21.33.79.79,0,0,1-.38.18,1.29,1.29,0,0,1-.48,0,2.51,2.51,0,0,1-.54-.16,3.42,3.42,0,0,1-.57-.34,2.48,2.48,0,0,1-.47-.43,1.69,1.69,0,0,1-.28-.44.8.8,0,0,1-.06-.42.73.73,0,0,1,.15-.39,1.27,1.27,0,0,1,1-.4L102,22.1a1.11,1.11,0,0,1,.28,0,1.35,1.35,0,0,1,.33.18l.8.59-2.09,0ZM100.32,24a1.08,1.08,0,0,0,.48.21.78.78,0,0,0,.22,0,.32.32,0,0,0,.17-.09.42.42,0,0,0,.1-.17.41.41,0,0,0,0-.19.8.8,0,0,0-.13-.21,1.12,1.12,0,0,0-.22-.21,1.49,1.49,0,0,0-.24-.14.79.79,0,0,0-.24,0,.36.36,0,0,0-.21,0,.39.39,0,0,0-.17.11.56.56,0,0,0-.09.17.38.38,0,0,0,0,.18.58.58,0,0,0,.11.18A.72.72,0,0,0,100.32,24Z"/></g><path class="cls-1" d="M93.86,7.78A7.7,7.7,0,0,0,99,4.52a7.67,7.67,0,0,0,1.54-5.91,14.18,14.18,0,0,0-4.3,3.89A14.35,14.35,0,0,0,93.86,7.78Z"/><g class="cls-15"><path d="M96.15,1.79A.47.47,0,0,1,96,2a.15.15,0,0,1-.16,0l-.26-.18,1.8-2.43.16.07s.06,0,.09.07a.24.24,0,0,1,0,.15l0,1.43a2,2,0,0,0,0,.35,1.08,1.08,0,0,0,0,.27.64.64,0,0,0,.1.22.57.57,0,0,0,.16.15.4.4,0,0,0,.35.05.8.8,0,0,0,.36-.3.79.79,0,0,0,.16-.37.43.43,0,0,0-.05-.28.25.25,0,0,1,0-.22.63.63,0,0,1,.18-.27l.39-.42a.84.84,0,0,1,.28.35,1.06,1.06,0,0,1,.07.47,1.42,1.42,0,0,1-.15.53,2.73,2.73,0,0,1-.34.58,2.69,2.69,0,0,1-.48.52,2.45,2.45,0,0,1-.5.3,1.09,1.09,0,0,1-.46.08.8.8,0,0,1-.39-.14.74.74,0,0,1-.22-.25,1.17,1.17,0,0,1-.11-.33,2.13,2.13,0,0,1,0-.37c0-.13,0-.27,0-.41l0-1-.15.29-.17.26Z"/><path d="M95.92,4.24a2.09,2.09,0,0,1-.26.45,3.22,3.22,0,0,1-.35.38,1.29,1.29,0,0,1-.4.24.72.72,0,0,1-.38,0,.55.55,0,0,1-.33-.21A.79.79,0,0,1,94,4.76a1.29,1.29,0,0,1,0-.48,2.11,2.11,0,0,1,.16-.55,3,3,0,0,1,.33-.56A3.48,3.48,0,0,1,95,2.69a1.74,1.74,0,0,1,.44-.27.89.89,0,0,1,.42-.07.83.83,0,0,1,.39.16,1.31,1.31,0,0,1,.4,1l.11,1.59a.62.62,0,0,1,0,.28,1,1,0,0,1-.17.33l-.59.79,0-2.09Zm-1.08-.79a1.19,1.19,0,0,0-.13.25.7.7,0,0,0-.06.45.4.4,0,0,0,.1.18.37.37,0,0,0,.17.1.32.32,0,0,0,.19,0,.57.57,0,0,0,.21-.12,1.07,1.07,0,0,0,.2-.22.89.89,0,0,0,.14-.25.71.71,0,0,0,.06-.24.76.76,0,0,0,0-.21.41.41,0,0,0-.28-.25.37.37,0,0,0-.18,0,.54.54,0,0,0-.19.11A1.37,1.37,0,0,0,94.84,3.45Z"/></g><path class="cls-1" d="M121.82,14.17a7.66,7.66,0,0,0-5.17,3.25,7.68,7.68,0,0,0-1.55,5.91,14.33,14.33,0,0,0,6.72-9.16Z"/><g class="cls-16"><path d="M119.62,20.13a.52.52,0,0,1,.18-.16.15.15,0,0,1,.16,0l.26.19-1.8,2.43-.16-.07a.23.23,0,0,1-.09-.08.22.22,0,0,1,0-.15l0-1.42a2,2,0,0,0,0-.35,1.16,1.16,0,0,0,0-.28A.51.51,0,0,0,118,20a.46.46,0,0,0-.16-.15.4.4,0,0,0-.35-.05.84.84,0,0,0-.36.29,1,1,0,0,0-.16.37.47.47,0,0,0,0,.28.28.28,0,0,1,0,.23.77.77,0,0,1-.18.27l-.39.42a.88.88,0,0,1-.28-.36,1,1,0,0,1-.07-.46,1.69,1.69,0,0,1,.15-.54,2.45,2.45,0,0,1,.34-.57,2.69,2.69,0,0,1,.48-.52,1.79,1.79,0,0,1,.5-.3,1,1,0,0,1,.46-.08.77.77,0,0,1,.39.14.65.65,0,0,1,.22.25,1.1,1.1,0,0,1,.11.32,2.25,2.25,0,0,1,0,.38c0,.13,0,.26,0,.4l0,1a2.69,2.69,0,0,1,.16-.29,3,3,0,0,1,.16-.26Z"/><path d="M119.85,17.69a2,2,0,0,1,.27-.46,2.41,2.41,0,0,1,.34-.37,1.29,1.29,0,0,1,.4-.24.72.72,0,0,1,.38,0,.55.55,0,0,1,.33.2.84.84,0,0,1,.18.38,1.34,1.34,0,0,1,0,.49,2,2,0,0,1-.16.54,2.79,2.79,0,0,1-.33.57,2.89,2.89,0,0,1-.44.47,1.54,1.54,0,0,1-.44.28.88.88,0,0,1-.42.06.73.73,0,0,1-.39-.15,1.27,1.27,0,0,1-.39-1l-.12-1.6a.58.58,0,0,1,0-.27,1,1,0,0,1,.17-.33l.59-.8,0,2.09Zm1.08.78a1.49,1.49,0,0,0,.14-.24,1.05,1.05,0,0,0,.06-.24.54.54,0,0,0,0-.22.46.46,0,0,0-.09-.17.38.38,0,0,0-.17-.1.45.45,0,0,0-.2,0,1.13,1.13,0,0,0-.21.12,1.57,1.57,0,0,0-.2.23,1,1,0,0,0-.14.24,1.2,1.2,0,0,0-.06.24.66.66,0,0,0,0,.21.33.33,0,0,0,.12.17.51.51,0,0,0,.16.09.37.37,0,0,0,.18,0,.77.77,0,0,0,.19-.11A1.5,1.5,0,0,0,120.93,18.47Z"/></g><path d="M109.46,12.79a.6.6,0,0,1,.32-.22.43.43,0,0,1,.35.1l.67.49L108,17l-.38-.27a1,1,0,0,1-.19-.22.64.64,0,0,1-.11-.32l-.42-2.72a5,5,0,0,0-.12-.63,3,3,0,0,0-.18-.51,2.33,2.33,0,0,0-.24-.41,1.72,1.72,0,0,0-.34-.32,1,1,0,0,0-.61-.22.74.74,0,0,0-.52.35.84.84,0,0,0-.19.53.92.92,0,0,0,.16.49.58.58,0,0,1,.12.41.79.79,0,0,1-.24.38l-.56.53a2.58,2.58,0,0,1-.53-.75,2.12,2.12,0,0,1-.19-.8,2.17,2.17,0,0,1,.12-.79,3.43,3.43,0,0,1,.42-.77,2.57,2.57,0,0,1,.65-.63,2,2,0,0,1,.73-.31,1.73,1.73,0,0,1,.75,0,2,2,0,0,1,.73.35,1.86,1.86,0,0,1,.48.49,2.52,2.52,0,0,1,.32.58,4.37,4.37,0,0,1,.19.67c0,.23.09.47.13.72l.3,1.86c.06-.16.13-.32.2-.47a3,3,0,0,1,.25-.4Z"/><path d="M108.88,8.66a2.14,2.14,0,0,1,.34-.65,2.1,2.1,0,0,1,.52-.51,1.84,1.84,0,0,1,1.46-.28,2.19,2.19,0,0,1,.82.39,2.23,2.23,0,0,1,.62.68,2.48,2.48,0,0,1,.3.84,2.43,2.43,0,0,1-.06.92,2.58,2.58,0,0,1-.45.91,2.64,2.64,0,0,1-.75.71,2.09,2.09,0,0,1-.85.31,1.94,1.94,0,0,1-.89-.07,2.38,2.38,0,0,1-.88-.45,3.3,3.3,0,0,1-1.17-1.81l-.74-2.44a1,1,0,0,1,0-.38,1.12,1.12,0,0,1,.2-.43l.76-1,.73,3Zm2.62,1.65a1,1,0,0,0,.18-.38,1.09,1.09,0,0,0,0-.4,1.37,1.37,0,0,0-.15-.38,1.1,1.1,0,0,0-.29-.32,1.42,1.42,0,0,0-.42-.22.92.92,0,0,0-.4,0,.85.85,0,0,0-.37.15,1,1,0,0,0-.32.3,1,1,0,0,0-.18.37,1,1,0,0,0,0,.38,1.31,1.31,0,0,0,.15.37,1.39,1.39,0,0,0,.32.32,1.33,1.33,0,0,0,.4.22.86.86,0,0,0,.38.06.77.77,0,0,0,.36-.12A1.24,1.24,0,0,0,111.5,10.31Z"/><path class="cls-17" d="M123.78,28.44a10.54,10.54,0,1,1-14.86,1.19A10.54,10.54,0,0,1,123.78,28.44Z"/><path class="cls-1" d="M120.21,32.64a5,5,0,1,1-7.1.56A5,5,0,0,1,120.21,32.64Z"/><path class="cls-1" d="M120,26.39a6.11,6.11,0,0,0,6.36,5.42A10.52,10.52,0,0,0,120,26.39Z"/><g class="cls-18"><path d="M123.38,29.13h.16a2.25,2.25,0,0,1-.46-.3,2.16,2.16,0,0,1-.46-.57,1.42,1.42,0,0,1-.11-.35.75.75,0,0,1,0-.36.58.58,0,0,1,.23-.28.76.76,0,0,1,.41-.1,1.69,1.69,0,0,1,.57.14,2.68,2.68,0,0,1,.64.4,3,3,0,0,1,.52.57,1.38,1.38,0,0,1,.22.51.82.82,0,0,1,0,.42.7.7,0,0,1-.26.28,1,1,0,0,1-.46.15,1.86,1.86,0,0,1-.47,0l-.93-.14-.14-.05-.17-.12-.47-.4Zm-.09-1c-.14.21-.06.43.22.67a.84.84,0,0,0,.39.21.37.37,0,0,0,.32-.09.24.24,0,0,0,.09-.15.28.28,0,0,0,0-.18.62.62,0,0,0-.1-.2,1,1,0,0,0-.2-.2.65.65,0,0,0-.23-.15.53.53,0,0,0-.2-.05.43.43,0,0,0-.17,0A.43.43,0,0,0,123.29,28.12Z"/></g><path class="cls-1" d="M113.85,46.55a5.71,5.71,0,0,0-2.11-4,5.64,5.64,0,0,0-4.26-1.45,10.56,10.56,0,0,0,2.63,3.36A10.38,10.38,0,0,0,113.85,46.55Z"/><g class="cls-19"><path d="M110.5,43.64h-.15a2.28,2.28,0,0,1,.45.29,2.23,2.23,0,0,1,.26.27,1.49,1.49,0,0,1,.2.31,1,1,0,0,1,.11.34.67.67,0,0,1-.05.37.58.58,0,0,1-.23.28.75.75,0,0,1-.41.09,1.37,1.37,0,0,1-.56-.13,2.59,2.59,0,0,1-.65-.41,2.38,2.38,0,0,1-.51-.56,1.46,1.46,0,0,1-.23-.52.7.7,0,0,1,0-.41.62.62,0,0,1,.25-.28,1.15,1.15,0,0,1,.46-.16,2.64,2.64,0,0,1,.48,0l.93.14a.31.31,0,0,1,.13.05.88.88,0,0,1,.17.12l.47.39Zm.1,1c.13-.21.06-.43-.23-.66a.84.84,0,0,0-.39-.21.37.37,0,0,0-.32.09.29.29,0,0,0-.09.15.36.36,0,0,0,0,.18.81.81,0,0,0,.11.2,1.17,1.17,0,0,0,.19.2,1.5,1.5,0,0,0,.23.15.54.54,0,0,0,.21,0,.33.33,0,0,0,.17,0A.25.25,0,0,0,110.6,44.64Z"/></g><path class="cls-1" d="M106.87,33.37A6.11,6.11,0,0,0,112.29,27a10.32,10.32,0,0,0-3.37,2.62A10.5,10.5,0,0,0,106.87,33.37Z"/><g class="cls-20"><path d="M110.72,29.85l-.41.46a1,1,0,0,1-.15.14.4.4,0,0,1-.12.07l-.91.27a2.46,2.46,0,0,1-.46.08,1,1,0,0,1-.48-.09.57.57,0,0,1-.29-.24.68.68,0,0,1-.1-.41,1.23,1.23,0,0,1,.15-.54,2.72,2.72,0,0,1,.43-.63,2.56,2.56,0,0,1,.58-.49,1.31,1.31,0,0,1,.54-.21.65.65,0,0,1,.42,0,.62.62,0,0,1,.27.24.73.73,0,0,1,.09.35,1.49,1.49,0,0,1,0,.36,2.11,2.11,0,0,1-.16.34,2.21,2.21,0,0,1-.22.29,1.93,1.93,0,0,1-.41.36l.08,0,.08,0Zm-1.31-.75a.32.32,0,0,0-.17,0,.56.56,0,0,0-.2.08.84.84,0,0,0-.21.18,1.53,1.53,0,0,0-.16.22.74.74,0,0,0-.07.21.35.35,0,0,0,0,.18.3.3,0,0,0,.11.14.35.35,0,0,0,.33,0,.82.82,0,0,0,.36-.26c.24-.27.29-.5.13-.69A.42.42,0,0,0,109.41,29.1Z"/></g><path class="cls-1" d="M127,39.56a5.71,5.71,0,0,0-4,2.11,5.64,5.64,0,0,0-1.45,4.26A10.56,10.56,0,0,0,125,43.3,10.38,10.38,0,0,0,127,39.56Z"/><g class="cls-21"><path d="M124.22,42.84v.09s0,0,0,.07a2,2,0,0,1,.3-.45,1.6,1.6,0,0,1,.26-.26,1.49,1.49,0,0,1,.31-.2,1.1,1.1,0,0,1,.35-.11.65.65,0,0,1,.36.05.53.53,0,0,1,.28.23.76.76,0,0,1,.1.41,1.59,1.59,0,0,1-.14.56,2.72,2.72,0,0,1-.4.65,2.91,2.91,0,0,1-.57.51,1.23,1.23,0,0,1-.51.22.65.65,0,0,1-.42,0,.67.67,0,0,1-.28-.25,1,1,0,0,1-.15-.46,2,2,0,0,1,0-.48l.14-.93a.55.55,0,0,1,0-.13.88.88,0,0,1,.12-.17l.4-.47Zm1-.09c-.21-.13-.43-.06-.67.23a.84.84,0,0,0-.21.39.34.34,0,0,0,.09.31.25.25,0,0,0,.15.1.37.37,0,0,0,.18,0,.66.66,0,0,0,.2-.11.89.89,0,0,0,.2-.19.75.75,0,0,0,.15-.23.54.54,0,0,0,.05-.21.47.47,0,0,0,0-.17A.43.43,0,0,0,125.23,42.75Z"/></g><path d="M116.46,36.08l0,.15a.58.58,0,0,0,0,.14,1.6,1.6,0,0,1,.35-.7,1.49,1.49,0,0,1,.41-.33,1.53,1.53,0,0,1,.52-.18,1.46,1.46,0,0,1,.58.05,1.63,1.63,0,0,1,.61.34,1.61,1.61,0,0,1,.43.54,1.68,1.68,0,0,1,.19.65,1.71,1.71,0,0,1-.09.7,1.92,1.92,0,0,1-.39.67,2.14,2.14,0,0,1-.59.51,1.8,1.8,0,0,1-.66.2,1.51,1.51,0,0,1-.66-.09,1.86,1.86,0,0,1-.63-.37,2.39,2.39,0,0,1-.61-.72,3.43,3.43,0,0,1-.33-.82l-.5-1.92a.62.62,0,0,1,0-.3.86.86,0,0,1,.17-.31l.67-.8Zm1.86.39a.76.76,0,0,0-1.27.61.78.78,0,0,0,.31.52.8.8,0,0,0,.3.18.6.6,0,0,0,.29,0,.72.72,0,0,0,.27-.09.85.85,0,0,0,.39-.47.68.68,0,0,0,0-.28.84.84,0,0,0-.31-.51Z"/><circle class="cls-22" cx="94.6" cy="42.06" r="8.68" transform="translate(49.91 135.45) rotate(-88.4)"/><path class="cls-1" d="M90.57,41.2a4.15,4.15,0,1,1,3.19,4.92A4.15,4.15,0,0,1,90.57,41.2Z"/><path class="cls-1" d="M86.08,43.75A5,5,0,0,0,87.53,37a8.69,8.69,0,0,0-1.42,3.22A8.83,8.83,0,0,0,86.08,43.75Z"/><g class="cls-23"><path d="M85.68,41.66a1,1,0,0,1-.47-.25,1,1,0,0,1-.27-.41,1.43,1.43,0,0,1-.08-.56A2.47,2.47,0,0,1,85,39.8a2.57,2.57,0,0,1,.22-.61,1.54,1.54,0,0,1,.33-.45,1.22,1.22,0,0,1,.43-.24,1.06,1.06,0,0,1,.53,0,1,1,0,0,1,.47.24.85.85,0,0,1,.27.42,1.53,1.53,0,0,1,.09.54,3.07,3.07,0,0,1-.09.65A3.36,3.36,0,0,1,87,41a1.77,1.77,0,0,1-.34.45.92.92,0,0,1-.43.24A1,1,0,0,1,85.68,41.66Zm.23-.93a1.09,1.09,0,0,0,.39,0,.54.54,0,0,0,.27-.09.55.55,0,0,0,.16-.18.92.92,0,0,0,.09-.23,1,1,0,0,0,0-.24.46.46,0,0,0-.06-.23.55.55,0,0,0-.2-.2,1.22,1.22,0,0,0-.36-.15,1.12,1.12,0,0,0-.39,0,.54.54,0,0,0-.26.09.46.46,0,0,0-.17.17,1.09,1.09,0,0,0-.09.23,1,1,0,0,0,0,.25.62.62,0,0,0,.07.23.54.54,0,0,0,.19.21A1.22,1.22,0,0,0,85.91,40.73Z"/></g><path class="cls-1" d="M103.12,40.37a4.67,4.67,0,0,0-2.05,3.08,4.61,4.61,0,0,0,.61,3.65,8.73,8.73,0,0,0,1.44-6.73Z"/><g class="cls-24"><path d="M102.14,45.46a1.06,1.06,0,0,1-.29-.4,1.54,1.54,0,0,1-.11-.55,3,3,0,0,1,.05-.65,3.47,3.47,0,0,1,.19-.62,1.76,1.76,0,0,1,.31-.46,1,1,0,0,1,.95-.29,1.06,1.06,0,0,1,.48.22,1,1,0,0,1,.29.4,1.53,1.53,0,0,1,.12.54,3,3,0,0,1-.06.65,2.25,2.25,0,0,1-.19.62,1.33,1.33,0,0,1-.31.47,1.17,1.17,0,0,1-.42.27,1,1,0,0,1-.53,0A1.06,1.06,0,0,1,102.14,45.46Zm1.06-.71a.67.67,0,0,0,.26-.1.45.45,0,0,0,.15-.19.63.63,0,0,0,.08-.23,1.06,1.06,0,0,0,0-.25.7.7,0,0,0-.08-.23.66.66,0,0,0-.21-.19,1.26,1.26,0,0,0-.36-.12,1.08,1.08,0,0,0-.39,0,.57.57,0,0,0-.26.1.55.55,0,0,0-.16.18,2.09,2.09,0,0,0-.08.23,1.07,1.07,0,0,0,0,.25.62.62,0,0,0,.07.23.67.67,0,0,0,.21.2,1.21,1.21,0,0,0,.37.13A1,1,0,0,0,103.2,44.75Z"/></g><path class="cls-1" d="M96.29,50.58a5,5,0,0,0-6.72-1.44,8.71,8.71,0,0,0,6.72,1.44Z"/><g class="cls-25"><path d="M93.92,51.15a1,1,0,0,1-.37.26,1.31,1.31,0,0,1-.5.1,2.9,2.9,0,0,1-1.16-.22,1.29,1.29,0,0,1-.42-.28.82.82,0,0,1-.24-.38.9.9,0,0,1,0-.49,1,1,0,0,1,.19-.44.89.89,0,0,1,.37-.26,1.31,1.31,0,0,1,.5-.11,2.48,2.48,0,0,1,.59.05,2.94,2.94,0,0,1,.57.17,1.31,1.31,0,0,1,.42.29.87.87,0,0,1,.25.38,1,1,0,0,1,0,.48A1,1,0,0,1,93.92,51.15Zm-.65-1a.75.75,0,0,0-.09-.24A.49.49,0,0,0,93,49.8a.86.86,0,0,0-.21-.07.55.55,0,0,0-.22,0,.31.31,0,0,0-.21.07.49.49,0,0,0-.17.18,1,1,0,0,0-.12.34,1.15,1.15,0,0,0,0,.36.69.69,0,0,0,.09.23.49.49,0,0,0,.17.15l.21.07h.23a.58.58,0,0,0,.21-.07.47.47,0,0,0,.18-.19,1,1,0,0,0,.12-.33A1.11,1.11,0,0,0,93.27,50.18Z"/></g><path class="cls-1" d="M92.91,33.55A5,5,0,0,0,99.64,35a8.75,8.75,0,0,0-6.73-1.44Z"/><g class="cls-26"><path d="M98,34.27a1,1,0,0,1-.4.29,1.58,1.58,0,0,1-.55.12,3.74,3.74,0,0,1-.65-.06,2.66,2.66,0,0,1-.62-.19,1.41,1.41,0,0,1-.46-.3,1.08,1.08,0,0,1-.27-.42,1.17,1.17,0,0,1,.2-1,1,1,0,0,1,.4-.29,1.53,1.53,0,0,1,.54-.11,3,3,0,0,1,.65.05,2.81,2.81,0,0,1,.62.19,1.83,1.83,0,0,1,.47.31,1,1,0,0,1,.26.42.94.94,0,0,1,0,.53A1,1,0,0,1,98,34.27Zm-.71-1.05a.57.57,0,0,0-.1-.26A.7.7,0,0,0,97,32.8a1.13,1.13,0,0,0-.24-.08,1,1,0,0,0-.24,0,.48.48,0,0,0-.23.07.78.78,0,0,0-.19.21,1.21,1.21,0,0,0-.13.37,1,1,0,0,0,0,.39A.55.55,0,0,0,96,34a.52.52,0,0,0,.18.15.9.9,0,0,0,.23.08.69.69,0,0,0,.25,0,.48.48,0,0,0,.23-.07.61.61,0,0,0,.19-.2,1.15,1.15,0,0,0,.13-.37A1.08,1.08,0,0,0,97.25,33.22Z"/></g><path d="M93.1,41.51a3.78,3.78,0,0,1,.35-.94A2.13,2.13,0,0,1,94,40a1.37,1.37,0,0,1,.6-.28,1.48,1.48,0,0,1,.66,0,1.41,1.41,0,0,1,.59.28,1.33,1.33,0,0,1,.4.53,1.89,1.89,0,0,1,.16.75,3.77,3.77,0,0,1-.12,1,3.34,3.34,0,0,1-.36.93,2.14,2.14,0,0,1-.49.6,1.41,1.41,0,0,1-.6.27,1.59,1.59,0,0,1-.65,0,1.68,1.68,0,0,1-.6-.29,1.3,1.3,0,0,1-.4-.52A2,2,0,0,1,93,42.5,3,3,0,0,1,93.1,41.51Zm.93.23a3.53,3.53,0,0,0-.13.73,1.65,1.65,0,0,0,0,.48.59.59,0,0,0,.16.27.48.48,0,0,0,.22.12.47.47,0,0,0,.5-.17,1.62,1.62,0,0,0,.26-.41,4.09,4.09,0,0,0,.23-.7,4.29,4.29,0,0,0,.12-.74,1.73,1.73,0,0,0,0-.48.51.51,0,0,0-.15-.27.48.48,0,0,0-.22-.12.53.53,0,0,0-.25,0,.56.56,0,0,0-.26.17,1.82,1.82,0,0,0-.26.41A4,4,0,0,0,94,41.74Z"/><path class="cls-27" d="M124.89,115.34c-.43,0-.86,0-1.29,0l-55-4.49A20,20,0,0,1,50.92,96L40.2,55.47c-1.9-7.2-3.86-14.64-12.26-16.9L4,33.65A3.34,3.34,0,1,1,5.39,27.1l24.17,5C41.8,35.29,44.62,46,46.68,53.77l.13.52,10.58,40a13.34,13.34,0,0,0,11.78,9.86l55,4.49a9.15,9.15,0,0,0,9.55-6.68l10.13-36.71L73.63,59.47a4.65,4.65,0,0,0-4.89,5.78l3.13,12.39a10.1,10.1,0,0,0,8.76,7.55l33.09,3.33a3.58,3.58,0,1,0,.69-7.13L86.62,78.82a3.35,3.35,0,1,1,.62-6.67L115,74.72a10.28,10.28,0,1,1-2,20.47L80,91.85A16.81,16.81,0,0,1,65.38,79.28L62.24,66.89a11.36,11.36,0,0,1,11.94-14.1l78.25,6.43-12.28,44.5A15.85,15.85,0,0,1,124.89,115.34Z"/><circle class="cls-28" cx="67.35" cy="123.59" r="9.11"/><circle class="cls-28" cx="116.27" cy="126.36" r="5.51"/><path class="cls-27" d="M188.77,123.07a30.23,30.23,0,0,1-12.15-11.32,31.29,31.29,0,0,1-4.4-16.51,31.29,31.29,0,0,1,4.4-16.51A30.32,30.32,0,0,1,188.77,67.4a37.08,37.08,0,0,1,17.43-4.05,38.23,38.23,0,0,1,15.85,3.14,29.39,29.39,0,0,1,11.5,9.06l-13,11.59Q214.92,80,207.24,80a13.6,13.6,0,0,0-10.36,4.14Q193,88.27,193,95.24t3.92,11.11a13.6,13.6,0,0,0,10.36,4.14q7.66,0,13.33-7.15l13,11.59a29.39,29.39,0,0,1-11.5,9.06,38.23,38.23,0,0,1-15.85,3.14A37,37,0,0,1,188.77,123.07Z"/><path class="cls-27" d="M279.38,82.83Q286,88.44,286,100.12v25.61H267.7v-6.27q-3.39,7.14-13.5,7.14a21.5,21.5,0,0,1-9.63-2,13.8,13.8,0,0,1-8.06-12.85q0-7,5.41-10.71t16.37-3.66h7.93q-1-5.58-9-5.58a22.79,22.79,0,0,0-6.54,1,18.54,18.54,0,0,0-5.66,2.75l-6.27-13a34.45,34.45,0,0,1,9.89-4,48.17,48.17,0,0,1,11.54-1.43Q272.75,77.21,279.38,82.83Zm-15.51,30.79a6.5,6.5,0,0,0,2.44-3.4v-3.31h-4.88q-6,0-6,4a3.48,3.48,0,0,0,1.26,2.75,5.12,5.12,0,0,0,3.44,1.08A6.43,6.43,0,0,0,263.87,113.62Z"/><path class="cls-27" d="M328.69,77.21V94.63a30.23,30.23,0,0,0-4.36-.35q-10.11,0-10.11,10.28v21.17H294.54V78.08h18.73v5.14Q318.49,77.2,328.69,77.21Z"/><path class="cls-27" d="M368.41,77.21V94.63a30.21,30.21,0,0,0-4.35-.35Q354,94.28,354,104.56v21.17H334.26V78.08H353v5.14Q358.23,77.2,368.41,77.21Z"/><path class="cls-27" d="M375.25,71.41a9.53,9.53,0,0,1,0-14.37,12.63,12.63,0,0,1,8.58-2.83,13,13,0,0,1,8.63,2.7,8.66,8.66,0,0,1,3.22,7,9.6,9.6,0,0,1-3.22,7.45,12.4,12.4,0,0,1-8.63,2.91A12.63,12.63,0,0,1,375.25,71.41ZM374,78.08h19.69v47.65H374Z"/><path class="cls-27" d="M437.5,124.08q-4.46,2.52-12.11,2.52-10,0-15.42-4.83t-5.4-14.51V95.07H398V80.69h6.54V67.36h19.68V80.69H434V95.07h-9.76v12a4.8,4.8,0,0,0,1.14,3.4,3.85,3.85,0,0,0,3,1.22,7.71,7.71,0,0,0,4.44-1.31Z"/><path class="cls-27" d="M452.09,123.42a24.45,24.45,0,0,1-9.89-8.8,24.59,24.59,0,0,1,0-25.52,24.15,24.15,0,0,1,9.89-8.76,34.16,34.16,0,0,1,28.57,0,23.85,23.85,0,0,1,9.85,8.76,24.83,24.83,0,0,1,0,25.52,24.14,24.14,0,0,1-9.85,8.8,33.67,33.67,0,0,1-28.57,0Zm19.82-14.63a10.19,10.19,0,0,0,2.18-6.93A10,10,0,0,0,471.91,95a7.59,7.59,0,0,0-11.15,0c-1.46,1.62-2.18,3.92-2.18,6.88a10.14,10.14,0,0,0,2.18,6.93,7.51,7.51,0,0,0,11.15,0Z"/></svg>