<svg id="Capa_1" data-name="Capa 1" xmlns="http://www.w3.org/2000/svg" xmlns:xlink="http://www.w3.org/1999/xlink" viewBox="0 0 500 170"><defs><style>.cls-1{fill:#eae9ce;}.cls-2{fill:red;}.cls-3{clip-path:url(#clip-path);}.cls-4{clip-path:url(#clip-path-2);}.cls-5{clip-path:url(#clip-path-3);}.cls-6{clip-path:url(#clip-path-4);}.cls-7{fill:#8200ff;}.cls-8{clip-path:url(#clip-path-5);}.cls-9{clip-path:url(#clip-path-6);}.cls-10{clip-path:url(#clip-path-7);}.cls-11{clip-path:url(#clip-path-8);}.cls-12{fill:#39b200;}.cls-13{clip-path:url(#clip-path-9);}.cls-14{clip-path:url(#clip-path-10);}.cls-15{clip-path:url(#clip-path-11);}.cls-16{clip-path:url(#clip-path-12);}.cls-17{fill:#00d1cb;}.cls-18{clip-path:url(#clip-path-13);}.cls-19{clip-path:url(#clip-path-14);}.cls-20{clip-path:url(#clip-path-15);}.cls-21{clip-path:url(#clip-path-16);}.cls-22{fill:#ff6d00;}.cls-23{clip-path:url(#clip-path-17);}.cls-24{clip-path:url(#clip-path-18);}.cls-25{clip-path:url(#clip-path-19);}.cls-26{clip-path:url(#clip-path-20);}.cls-27{fill:#1976d2;}.cls-28{fill:#333;}</style><clipPath id="clip-path"><path class="cls-1" d="M156.77,57.28A7.4,7.4,0,0,0,151,65.54a12.79,12.79,0,0,0,5.82-8.26Z"/></clipPath><clipPath id="clip-path-2"><path class="cls-1" d="M131.82,52.05a7.4,7.4,0,0,0,5.82-8.26,12.7,12.7,0,0,0-5.82,8.26Z"/></clipPath><clipPath id="clip-path-3"><path class="cls-1" d="M146.91,42.18A7.36,7.36,0,0,0,155.17,48a12.79,12.79,0,0,0-8.26-5.82Z"/></clipPath><clipPath id="clip-path-4"><path class="cls-1" d="M141.68,67.14a7.4,7.4,0,0,0-8.26-5.82,12.79,12.79,0,0,0,8.26,5.82Z"/></clipPath><clipPath id="clip-path-5"><path class="cls-1" d="M86.89,33.64a11,11,0,0,0-5.31,6.94,11,11,0,0,0,.89,8.7,20.56,20.56,0,0,0,4.42-15.64Z"/></clipPath><clipPath id="clip-path-6"><path class="cls-1" d="M46.23,39a11,11,0,0,0,5.31-6.94,11,11,0,0,0-.89-8.7A20.56,20.56,0,0,0,46.23,39Z"/></clipPath><clipPath id="clip-path-7"><path class="cls-1" d="M63.87,16a11,11,0,0,0,6.94,5.3,11,11,0,0,0,8.7-.88A20.45,20.45,0,0,0,63.87,16Z"/></clipPath><clipPath id="clip-path-8"><path class="cls-1" d="M69.26,56.67a11,11,0,0,0-6.94-5.31,11,11,0,0,0-8.7.88,20.54,20.54,0,0,0,15.64,4.43Z"/></clipPath><clipPath id="clip-path-9"><path class="cls-1" d="M112.13,10.85A7.7,7.7,0,0,0,115.39,16a7.67,7.67,0,0,0,5.91,1.54,14.18,14.18,0,0,0-3.89-4.3A14.33,14.33,0,0,0,112.13,10.85Z"/></clipPath><clipPath id="clip-path-10"><path class="cls-1" d="M105.74,38.8a8.31,8.31,0,0,0-9.16-6.72,14.33,14.33,0,0,0,9.16,6.72Z"/></clipPath><clipPath id="clip-path-11"><path class="cls-1" d="M95,21.62a7.7,7.7,0,0,0,5.18-3.25,7.71,7.71,0,0,0,1.54-5.91A14.33,14.33,0,0,0,95,21.62Z"/></clipPath><clipPath id="clip-path-12"><path class="cls-1" d="M122.92,28a7.72,7.72,0,0,0-5.18,3.26,7.71,7.71,0,0,0-1.54,5.91A14.4,14.4,0,0,0,122.92,28Z"/></clipPath><clipPath id="clip-path-13"><path class="cls-1" d="M121.14,40.24a6.11,6.11,0,0,0,6.36,5.42,10.52,10.52,0,0,0-6.36-5.42Z"/></clipPath><clipPath id="clip-path-14"><path class="cls-1" d="M114.94,60.4A6.09,6.09,0,0,0,108.58,55a10.6,10.6,0,0,0,6.36,5.42Z"/></clipPath><clipPath id="clip-path-15"><path class="cls-1" d="M108,47.22a6.13,6.13,0,0,0,5.42-6.36A10.52,10.52,0,0,0,108,47.22Z"/></clipPath><clipPath id="clip-path-16"><path class="cls-1" d="M128.12,53.41a6.13,6.13,0,0,0-5.42,6.36,10.52,10.52,0,0,0,5.42-6.36Z"/></clipPath><clipPath id="clip-path-17"><path class="cls-1" d="M87.18,57.6a5,5,0,0,0,1.45-6.73,8.7,8.7,0,0,0-1.45,6.73Z"/></clipPath><clipPath id="clip-path-18"><path class="cls-1" d="M104.22,54.22A5,5,0,0,0,102.77,61a8.68,8.68,0,0,0,1.45-6.73Z"/></clipPath><clipPath id="clip-path-19"><path class="cls-1" d="M97.39,64.43A5,5,0,0,0,90.67,63a8.71,8.71,0,0,0,6.72,1.44Z"/></clipPath><clipPath id="clip-path-20"><path class="cls-1" d="M94,47.4a5,5,0,0,0,6.73,1.44A8.64,8.64,0,0,0,94,47.4Z"/></clipPath></defs><title>iconos new menu loteria nacional carrito</title><circle class="cls-2" cx="144.29" cy="54.66" r="12.75" transform="translate(33.21 161.76) rotate(-64.7)"/><path class="cls-1" d="M149.24,58.15a6.09,6.09,0,1,1-1.47-8.48A6.09,6.09,0,0,1,149.24,58.15Z"/><path class="cls-1" d="M156.77,57.28A7.4,7.4,0,0,0,151,65.54a12.79,12.79,0,0,0,5.82-8.26Z"/><g class="cls-3"><path d="M152.26,63.75a.86.86,0,0,1-.28-.29.67.67,0,0,1-.11-.37,1.14,1.14,0,0,1,.07-.43,2,2,0,0,1,.25-.45,1.63,1.63,0,0,1,.38-.4,1.29,1.29,0,0,1,.39-.22.92.92,0,0,1,.36-.05.77.77,0,0,1,.3.11.79.79,0,0,1,.19.17.48.48,0,0,1,.08.18.5.5,0,0,1,0,.21.75.75,0,0,1-.07.23c.32-.27.6-.32.82-.16a.47.47,0,0,1,.21.26.69.69,0,0,1,0,.32,1.21,1.21,0,0,1-.1.36,1.88,1.88,0,0,1-.21.36,2.24,2.24,0,0,1-.26.32,1.86,1.86,0,0,1-.28.21,1.2,1.2,0,0,1-.31.13,2.21,2.21,0,0,1-.37,0l.09-.29a.56.56,0,0,1,.12-.2.33.33,0,0,1,.16-.09,1.07,1.07,0,0,0,.3-.09.66.66,0,0,0,.21-.2.62.62,0,0,0,.1-.17,1,1,0,0,0,0-.16.56.56,0,0,0,0-.12l-.08-.08-.13-.06a.2.2,0,0,0-.15,0,.9.9,0,0,0-.19.14,2.78,2.78,0,0,0-.25.32l-.36-.18a1.62,1.62,0,0,0,.19-.31.48.48,0,0,0,.06-.21.2.2,0,0,0,0-.14.4.4,0,0,0-.12-.1.36.36,0,0,0-.3-.05.58.58,0,0,0-.29.22.51.51,0,0,0-.1.29.3.3,0,0,0,.07.23.18.18,0,0,1,.05.18.41.41,0,0,1-.13.21Z"/><path d="M156.26,60.48a.27.27,0,0,1,.13-.11.1.1,0,0,1,.11,0l.18.21-1.29,1.8-.12-.08a.28.28,0,0,1-.06-.08.44.44,0,0,1,0-.13l0-1.24c0-.12,0-.22,0-.32a1.09,1.09,0,0,0,0-.26,1,1,0,0,0-.08-.21.66.66,0,0,0-.12-.17.28.28,0,0,0-.26-.11.43.43,0,0,0-.27.2.63.63,0,0,0-.12.3.46.46,0,0,0,0,.27.29.29,0,0,1,0,.22.5.5,0,0,1-.13.21l-.29.31a1.25,1.25,0,0,1-.23-.38,1.54,1.54,0,0,1-.06-.43,1.6,1.6,0,0,1,.11-.47,2,2,0,0,1,.26-.47,1.39,1.39,0,0,1,.37-.39,1.05,1.05,0,0,1,.37-.18.59.59,0,0,1,.35,0,.66.66,0,0,1,.29.21,1.17,1.17,0,0,1,.17.28,1.55,1.55,0,0,1,.07.31,2,2,0,0,1,0,.35c0,.11,0,.24,0,.36l0,.87.12-.23a1.57,1.57,0,0,1,.12-.19Z"/></g><path class="cls-1" d="M131.82,52.05a7.4,7.4,0,0,0,5.82-8.26,12.7,12.7,0,0,0-5.82,8.26Z"/><g class="cls-4"><path d="M136.34,45.67a.87.87,0,0,1,.29.28.82.82,0,0,1,.1.37,1.11,1.11,0,0,1-.07.43,2.09,2.09,0,0,1-.25.46,1.79,1.79,0,0,1-.37.4,1.54,1.54,0,0,1-.39.22.8.8,0,0,1-.37,0,.63.63,0,0,1-.3-.1.74.74,0,0,1-.18-.17.48.48,0,0,1-.09-.19.67.67,0,0,1,0-.2,1.12,1.12,0,0,1,.06-.23c-.32.26-.59.31-.82.16a.6.6,0,0,1-.21-.27.67.67,0,0,1,0-.32,1.69,1.69,0,0,1,.1-.35,2.71,2.71,0,0,1,.21-.37c.09-.12.18-.22.26-.31a1.08,1.08,0,0,1,.28-.21,1.2,1.2,0,0,1,.31-.13,2.18,2.18,0,0,1,.38,0l-.1.3a.67.67,0,0,1-.12.2.29.29,0,0,1-.16.09,1.07,1.07,0,0,0-.3.09.76.76,0,0,0-.21.19l-.09.18a.28.28,0,0,0,0,.15.28.28,0,0,0,0,.13.3.3,0,0,0,.08.08l.13.06a.2.2,0,0,0,.15,0,.54.54,0,0,0,.19-.14,2.44,2.44,0,0,0,.26-.31l.35.17a2.62,2.62,0,0,0-.19.31.56.56,0,0,0-.06.22.23.23,0,0,0,0,.14.4.4,0,0,0,.12.1.43.43,0,0,0,.31,0,.53.53,0,0,0,.28-.23.5.5,0,0,0,.11-.29.33.33,0,0,0-.08-.22.25.25,0,0,1-.05-.18A.41.41,0,0,1,136,46Z"/><path d="M132.35,48.93a.27.27,0,0,1-.14.11.08.08,0,0,1-.11,0l-.17-.21L133.21,47l.12.09a.22.22,0,0,1,.06.07.3.3,0,0,1,0,.14l0,1.24c0,.12,0,.22,0,.32a2,2,0,0,0,0,.26.86.86,0,0,0,.07.21.66.66,0,0,0,.12.17.32.32,0,0,0,.27.11.4.4,0,0,0,.26-.2.63.63,0,0,0,.12-.31.48.48,0,0,0,0-.27.27.27,0,0,1,0-.21.5.5,0,0,1,.13-.21l.29-.31a1,1,0,0,1,.23.37,1.09,1.09,0,0,1,.06.44,1.39,1.39,0,0,1-.11.47,1.94,1.94,0,0,1-.25.47,2,2,0,0,1-.37.39,1.18,1.18,0,0,1-.38.18.69.69,0,0,1-.35,0,.72.72,0,0,1-.29-.21.74.74,0,0,1-.16-.27,1.67,1.67,0,0,1-.08-.32c0-.11,0-.22,0-.34s0-.24,0-.36l0-.87-.11.23c0,.07-.09.13-.13.19Z"/></g><path class="cls-1" d="M146.91,42.18A7.36,7.36,0,0,0,155.17,48a12.79,12.79,0,0,0-8.26-5.82Z"/><g class="cls-5"><path d="M153.36,46.84a.74.74,0,0,1-.65.39,1.11,1.11,0,0,1-.43-.07,2.34,2.34,0,0,1-.46-.25,2.4,2.4,0,0,1-.4-.37,1.41,1.41,0,0,1-.21-.4.75.75,0,0,1-.05-.36.64.64,0,0,1,.11-.3.73.73,0,0,1,.16-.18.37.37,0,0,1,.19-.09.66.66,0,0,1,.2,0l.23.07c-.26-.32-.31-.59-.15-.82a.47.47,0,0,1,.26-.21.69.69,0,0,1,.32,0,1.4,1.4,0,0,1,.36.1,3.35,3.35,0,0,1,.36.21,2.12,2.12,0,0,1,.31.26,1.08,1.08,0,0,1,.21.28,1.2,1.2,0,0,1,.13.31,1.52,1.52,0,0,1,.05.38l-.3-.1a.62.62,0,0,1-.19-.12.26.26,0,0,1-.1-.16.66.66,0,0,0-.09-.3.63.63,0,0,0-.19-.21.51.51,0,0,0-.18-.09l-.15,0-.12,0a.24.24,0,0,0-.09.08l-.06.13a.27.27,0,0,0,0,.15.65.65,0,0,0,.14.19c.07.07.18.15.32.26l-.18.35a2,2,0,0,0-.31-.19.57.57,0,0,0-.21-.06.24.24,0,0,0-.15,0,.63.63,0,0,0-.1.12.41.41,0,0,0-.05.3.6.6,0,0,0,.23.29.62.62,0,0,0,.29.11.33.33,0,0,0,.22-.08.23.23,0,0,1,.18-.05.41.41,0,0,1,.21.13Z"/><path d="M150.1,42.84a.22.22,0,0,1-.11-.13.11.11,0,0,1,0-.11l.21-.18L152,43.71l-.09.12a.22.22,0,0,1-.07.06.27.27,0,0,1-.13,0l-1.25,0a1.6,1.6,0,0,0-.31,0,1.7,1.7,0,0,0-.26,0,1,1,0,0,0-.21.08.71.71,0,0,0-.18.12.33.33,0,0,0-.11.26.42.42,0,0,0,.21.27.63.63,0,0,0,.3.12.48.48,0,0,0,.27,0,.27.27,0,0,1,.21,0,.45.45,0,0,1,.21.13l.31.29a1,1,0,0,1-.37.23,1.61,1.61,0,0,1-.44.06,1.68,1.68,0,0,1-.47-.11,2.68,2.68,0,0,1-.47-.25,2,2,0,0,1-.39-.37,1,1,0,0,1-.17-.38.59.59,0,0,1,0-.35.66.66,0,0,1,.21-.29.78.78,0,0,1,.28-.16,1,1,0,0,1,.31-.08,1.88,1.88,0,0,1,.34,0h.37l.87,0-.23-.12-.2-.12Z"/></g><path class="cls-1" d="M141.68,67.14a7.4,7.4,0,0,0-8.26-5.82,12.79,12.79,0,0,0,8.26,5.82Z"/><g class="cls-6"><path d="M135.2,62.53a.8.8,0,0,1,.29-.29.94.94,0,0,1,.37-.11,1.12,1.12,0,0,1,.43.08,1.69,1.69,0,0,1,.45.25,1.85,1.85,0,0,1,.41.37,1.25,1.25,0,0,1,.21.39.81.81,0,0,1,0,.37.64.64,0,0,1-.11.3.59.59,0,0,1-.17.18.51.51,0,0,1-.18.09.74.74,0,0,1-.21,0l-.23-.06c.27.32.32.59.16.82a.58.58,0,0,1-.26.21.69.69,0,0,1-.32,0,1.34,1.34,0,0,1-.36-.11,2,2,0,0,1-.67-.47,1.37,1.37,0,0,1-.22-.27,1.52,1.52,0,0,1-.12-.32,1.38,1.38,0,0,1-.05-.37l.3.1a.62.62,0,0,1,.19.12.21.21,0,0,1,.09.16.81.81,0,0,0,.1.3.63.63,0,0,0,.19.21.76.76,0,0,0,.18.09.27.27,0,0,0,.15,0,.21.21,0,0,0,.12,0,.2.2,0,0,0,.09-.09l.06-.13a.24.24,0,0,0,0-.14.54.54,0,0,0-.14-.19,2.67,2.67,0,0,0-.32-.26l.18-.35.31.19a.87.87,0,0,0,.21.06.24.24,0,0,0,.15,0,.38.38,0,0,0,.09-.12.45.45,0,0,0,.06-.31.59.59,0,0,0-.23-.28.53.53,0,0,0-.29-.11.31.31,0,0,0-.22.07.25.25,0,0,1-.19.06.55.55,0,0,1-.2-.13Z"/><path d="M138.47,66.52a.3.3,0,0,1,.11.13.12.12,0,0,1,0,.12l-.21.17-1.81-1.29.08-.11a.16.16,0,0,1,.08-.06.27.27,0,0,1,.13,0l1.25,0h.31l.26,0a1,1,0,0,0,.21-.07.55.55,0,0,0,.18-.13.32.32,0,0,0,.11-.26.38.38,0,0,0-.21-.26.56.56,0,0,0-.3-.13.49.49,0,0,0-.27.05.41.41,0,0,1-.21,0,.57.57,0,0,1-.22-.13l-.3-.3A1.07,1.07,0,0,1,138,64a1.09,1.09,0,0,1,.44-.06,1.65,1.65,0,0,1,.47.1,2.75,2.75,0,0,1,.47.26,1.68,1.68,0,0,1,.38.37.83.83,0,0,1,.18.38.59.59,0,0,1,0,.35.72.72,0,0,1-.21.29,1,1,0,0,1-.28.16,1.41,1.41,0,0,1-.31.08l-.34,0h-.37l-.87,0,.23.11.2.12Z"/></g><path d="M141.48,51.46a2.14,2.14,0,0,1,.65-.47,1.91,1.91,0,0,1,.69-.18,1.85,1.85,0,0,1,.69.11,2.58,2.58,0,0,1,.67.36,2.21,2.21,0,0,1,.55.55,2,2,0,0,1,.27.6,1.51,1.51,0,0,1,0,.6,1.48,1.48,0,0,1-.25.54,2,2,0,0,1-.33.36,1,1,0,0,1-.35.2,1,1,0,0,1-.37,0,1.53,1.53,0,0,1-.41-.07,1.31,1.31,0,0,1,0,1.64,1.91,1.91,0,0,1-.62.56,1.65,1.65,0,0,1-.7.2,2.11,2.11,0,0,1-.74-.11,2.71,2.71,0,0,1-.69-.37,2.48,2.48,0,0,1-.55-.51,1.56,1.56,0,0,1-.3-.57,1.74,1.74,0,0,1-.08-.65,4,4,0,0,1,.15-.77l.58.15a.58.58,0,0,1,.35.2.36.36,0,0,1,.11.3,1.37,1.37,0,0,0,0,.62.76.76,0,0,0,.29.4.87.87,0,0,0,.34.16.81.81,0,0,0,.31,0,.64.64,0,0,0,.27-.11.58.58,0,0,0,.21-.2,1.35,1.35,0,0,0,.18-.29.42.42,0,0,0,0-.29.85.85,0,0,0-.2-.35,3.08,3.08,0,0,0-.51-.45l.5-.69a2.69,2.69,0,0,0,.52.3.92.92,0,0,0,.37.08.52.52,0,0,0,.27-.1.93.93,0,0,0,.21-.23.73.73,0,0,0,.18-.53.63.63,0,0,0-.3-.45.74.74,0,0,0-.46-.15.71.71,0,0,0-.43.14.51.51,0,0,1-.35.1.65.65,0,0,1-.34-.2Z"/><path d="M146.11,58.61a.47.47,0,0,1,.19.28.38.38,0,0,1-.08.3l-.43.58-3.32-2.42.23-.32a.82.82,0,0,1,.19-.18.62.62,0,0,1,.28-.09l2.36-.38.55-.11a3.16,3.16,0,0,0,.44-.16,1.82,1.82,0,0,0,.36-.22,1.94,1.94,0,0,0,.28-.29.87.87,0,0,0,.18-.54.7.7,0,0,0-.3-.45.71.71,0,0,0-.47-.15.74.74,0,0,0-.43.14.51.51,0,0,1-.35.1.6.6,0,0,1-.33-.2L145,54a2.27,2.27,0,0,1,.65-.47,1.77,1.77,0,0,1,.69-.18,1.85,1.85,0,0,1,.69.11,2.68,2.68,0,0,1,.67.35,2.16,2.16,0,0,1,.56.57,1.59,1.59,0,0,1,.27.63,1.43,1.43,0,0,1,0,.65,1.77,1.77,0,0,1-.3.64,1.68,1.68,0,0,1-.42.42,2.53,2.53,0,0,1-.51.28,3.43,3.43,0,0,1-.57.17l-.63.12-1.62.27a3.12,3.12,0,0,1,.42.18,1.63,1.63,0,0,1,.34.21Z"/><path class="cls-7" d="M86.3,41.92A20.51,20.51,0,1,1,72.15,16.6,20.52,20.52,0,0,1,86.3,41.92Z"/><path class="cls-1" d="M76,39a9.79,9.79,0,1,1-6.75-12.09A9.79,9.79,0,0,1,76,39Z"/><path d="M63.61,33.64a3.81,3.81,0,0,1,.79-1.18,3.19,3.19,0,0,1,1-.7,3,3,0,0,1,1.21-.25,4.37,4.37,0,0,1,1.32.18,4.19,4.19,0,0,1,1.26.57,3.21,3.21,0,0,1,.81.84,2.57,2.57,0,0,1,.36,1,2.49,2.49,0,0,1-.07,1,3.5,3.5,0,0,1-.33.8,2.05,2.05,0,0,1-.46.54,1.75,1.75,0,0,1-.59.31,3.18,3.18,0,0,1-.72.13,2.32,2.32,0,0,1,1,2.72,3.24,3.24,0,0,1-.68,1.29,2.94,2.94,0,0,1-1,.76,3.41,3.41,0,0,1-1.28.27,4.68,4.68,0,0,1-1.38-.18,5.09,5.09,0,0,1-1.22-.51,3.11,3.11,0,0,1-.85-.76,3.27,3.27,0,0,1-.52-1,6,6,0,0,1-.22-1.36L63.1,38a1.21,1.21,0,0,1,.7.11.65.65,0,0,1,.36.44,2.58,2.58,0,0,0,.42,1,1.37,1.37,0,0,0,.74.49,1.65,1.65,0,0,0,.65.05,1.39,1.39,0,0,0,.52-.18,1.46,1.46,0,0,0,.39-.35,1.49,1.49,0,0,0,.22-.46,3.86,3.86,0,0,0,.12-.59A.78.78,0,0,0,67.1,38a1.33,1.33,0,0,0-.54-.46,5.15,5.15,0,0,0-1.12-.43l.41-1.46a4.47,4.47,0,0,0,1,.19,1.65,1.65,0,0,0,.67-.09.85.85,0,0,0,.39-.33,2,2,0,0,0,.21-.51,1.35,1.35,0,0,0,0-1,1.14,1.14,0,0,0-.78-.56,1.3,1.3,0,0,0-1.48.51.87.87,0,0,1-.52.39,1.09,1.09,0,0,1-.68-.13Z"/><path class="cls-1" d="M86.89,33.64a11,11,0,0,0-5.31,6.94,11,11,0,0,0,.89,8.7,20.56,20.56,0,0,0,4.42-15.64Z"/><g class="cls-8"><path d="M84,44.67a.88.88,0,0,1-.55-.33,1.68,1.68,0,0,1-.32-.7,3.5,3.5,0,0,1,0-1,6.18,6.18,0,0,1,.24-1.26,5.17,5.17,0,0,1,.48-1.22,3.05,3.05,0,0,1,.56-.76,1.07,1.07,0,0,1,.54-.29.61.61,0,0,1,.47.11,1.17,1.17,0,0,1,.29.3,1.12,1.12,0,0,1,.16.37,2,2,0,0,1,.05.44,5,5,0,0,1,0,.53c.35-.74.68-1,1-.76a.85.85,0,0,1,.28.42,2.25,2.25,0,0,1,.08.61,3.9,3.9,0,0,1-.07.73,8,8,0,0,1-.17.79,6.16,6.16,0,0,1-.25.73,3.48,3.48,0,0,1-.27.58,2.69,2.69,0,0,1-.35.45,2.32,2.32,0,0,1-.44.38l.06-.61a2.07,2.07,0,0,1,.11-.46.76.76,0,0,1,.17-.29,1.75,1.75,0,0,0,.35-.38,2.38,2.38,0,0,0,.29-.9,1.5,1.5,0,0,0,0-.3.64.64,0,0,0-.06-.22.29.29,0,0,0-.11-.11.38.38,0,0,0-.17,0,.3.3,0,0,0-.18.11,2.31,2.31,0,0,0-.21.4c-.07.19-.16.46-.26.81l-.51-.11a6.17,6.17,0,0,0,.18-.77,2.29,2.29,0,0,0,0-.49.49.49,0,0,0-.09-.28.7.7,0,0,0-.19-.15.41.41,0,0,0-.46.08,1.46,1.46,0,0,0-.36.7,1.89,1.89,0,0,0-.08.72.69.69,0,0,0,.19.43.47.47,0,0,1,.13.34,1.53,1.53,0,0,1-.13.53Z"/></g><path class="cls-1" d="M46.23,39a11,11,0,0,0,5.31-6.94,11,11,0,0,0-.89-8.7A20.56,20.56,0,0,0,46.23,39Z"/><g class="cls-9"><path d="M49.11,28a.86.86,0,0,1,.54.33A1.57,1.57,0,0,1,50,29a3.5,3.5,0,0,1,0,1,6.18,6.18,0,0,1-.24,1.26,5.17,5.17,0,0,1-.48,1.22,3,3,0,0,1-.55.76,1,1,0,0,1-.55.29.61.61,0,0,1-.47-.11,1.17,1.17,0,0,1-.29-.3,1.38,1.38,0,0,1-.16-.37,2,2,0,0,1-.05-.44,5,5,0,0,1,0-.53c-.35.74-.68,1-1,.76a.74.74,0,0,1-.27-.42,1.91,1.91,0,0,1-.09-.61,4,4,0,0,1,.07-.73,6,6,0,0,1,.18-.79,4.81,4.81,0,0,1,.24-.73,3,3,0,0,1,.28-.57A2,2,0,0,1,47,28.3a2.32,2.32,0,0,1,.44-.38l-.06.61a1.63,1.63,0,0,1-.11.46.76.76,0,0,1-.17.29,1.75,1.75,0,0,0-.35.38,2.38,2.38,0,0,0-.29.9,1.5,1.5,0,0,0,0,.3.64.64,0,0,0,.06.22.29.29,0,0,0,.11.11.38.38,0,0,0,.17,0,.23.23,0,0,0,.18-.11,2.31,2.31,0,0,0,.21-.4c.07-.19.16-.46.26-.81L48,30a6.17,6.17,0,0,0-.18.77,2.29,2.29,0,0,0,0,.49.49.49,0,0,0,.09.28.62.62,0,0,0,.2.15.4.4,0,0,0,.45-.08,1.34,1.34,0,0,0,.36-.7,1.71,1.71,0,0,0,.08-.72.75.75,0,0,0-.18-.43.48.48,0,0,1-.14-.34,1.53,1.53,0,0,1,.13-.53Z"/></g><path class="cls-1" d="M63.87,16a11,11,0,0,0,6.94,5.3,11,11,0,0,0,8.7-.88A20.45,20.45,0,0,0,63.87,16Z"/><g class="cls-10"><path d="M74.9,18.88a.91.91,0,0,1-.33.55,1.67,1.67,0,0,1-.7.31,3.47,3.47,0,0,1-1,.05,7.92,7.92,0,0,1-1.26-.24,6.2,6.2,0,0,1-1.22-.48,3.05,3.05,0,0,1-.76-.56A1.11,1.11,0,0,1,69.3,18a.6.6,0,0,1,.11-.47,1.42,1.42,0,0,1,.3-.3,1.11,1.11,0,0,1,.37-.15,1.52,1.52,0,0,1,.44-.05l.53,0c-.74-.35-1-.68-.76-1a.85.85,0,0,1,.42-.28,2.25,2.25,0,0,1,.61-.08,5,5,0,0,1,.73.06,8.1,8.1,0,0,1,.79.18c.28.08.52.16.73.24a3.79,3.79,0,0,1,.57.28,2.39,2.39,0,0,1,.46.34,2.67,2.67,0,0,1,.38.44l-.61-.06a1.63,1.63,0,0,1-.46-.1.66.66,0,0,1-.29-.18,1.69,1.69,0,0,0-.38-.34,1.64,1.64,0,0,0-.5-.21,2.35,2.35,0,0,0-.4-.08,1.5,1.5,0,0,0-.3,0,.64.64,0,0,0-.22.06.29.29,0,0,0-.11.11.35.35,0,0,0,0,.17.26.26,0,0,0,.11.17,1.44,1.44,0,0,0,.4.21,6,6,0,0,0,.81.26l-.11.52a6.17,6.17,0,0,0-.77-.18,1.86,1.86,0,0,0-.49,0,.57.57,0,0,0-.28.1.58.58,0,0,0-.15.19.42.42,0,0,0,.08.46,1.55,1.55,0,0,0,.7.36,1.69,1.69,0,0,0,.72.07.64.64,0,0,0,.43-.18.47.47,0,0,1,.34-.13,1.73,1.73,0,0,1,.53.12Z"/></g><path class="cls-1" d="M69.26,56.67a11,11,0,0,0-6.94-5.31,11,11,0,0,0-8.7.88,20.54,20.54,0,0,0,15.64,4.43Z"/><g class="cls-11"><path d="M58.23,53.79a.9.9,0,0,1,.33-.54,1.61,1.61,0,0,1,.71-.32,3.74,3.74,0,0,1,1,0,7.72,7.72,0,0,1,1.26.24,6.2,6.2,0,0,1,1.22.48,3.05,3.05,0,0,1,.76.56,1,1,0,0,1,.29.55.58.58,0,0,1-.11.46,1,1,0,0,1-.3.3,1.38,1.38,0,0,1-.37.16,2.81,2.81,0,0,1-.44,0,3.4,3.4,0,0,1-.53,0c.74.36,1,.69.76,1a.67.67,0,0,1-.42.28,1.92,1.92,0,0,1-.61.08,3.91,3.91,0,0,1-.73-.06,6,6,0,0,1-.79-.18c-.27-.08-.52-.16-.73-.24a5,5,0,0,1-.57-.28,2.29,2.29,0,0,1-.46-.34,2.67,2.67,0,0,1-.38-.44l.62.06a2.11,2.11,0,0,1,.45.1.8.8,0,0,1,.29.18,1.82,1.82,0,0,0,.39.35,1.85,1.85,0,0,0,.49.2,2.46,2.46,0,0,0,.4.09h.3a.64.64,0,0,0,.22-.06.21.21,0,0,0,.11-.12.32.32,0,0,0,0-.16c0-.06,0-.12-.11-.18a2.31,2.31,0,0,0-.4-.21,7.93,7.93,0,0,0-.81-.26l.11-.51a6.17,6.17,0,0,0,.77.18,2.29,2.29,0,0,0,.49,0,.49.49,0,0,0,.28-.09.59.59,0,0,0,.15-.2.4.4,0,0,0-.08-.45,1.42,1.42,0,0,0-.69-.37,1.9,1.9,0,0,0-.72-.07.75.75,0,0,0-.44.18.48.48,0,0,1-.34.14,1.58,1.58,0,0,1-.53-.13Z"/></g><path class="cls-12" d="M117.41,13.26a14.33,14.33,0,1,1-20,3.09A14.32,14.32,0,0,1,117.41,13.26Z"/><path class="cls-1" d="M113,19.3a6.84,6.84,0,1,1-9.56,1.48A6.85,6.85,0,0,1,113,19.3Z"/><path class="cls-1" d="M112.13,10.85A7.7,7.7,0,0,0,115.39,16a7.67,7.67,0,0,0,5.91,1.54,14.18,14.18,0,0,0-3.89-4.3A14.33,14.33,0,0,0,112.13,10.85Z"/><g class="cls-13"><path d="M118.4,13.39a.56.56,0,0,1-.17-.18.18.18,0,0,1,0-.16l.19-.26,2.42,1.8-.07.16s0,.06-.07.09a.24.24,0,0,1-.15,0l-1.42,0h-.35a1.08,1.08,0,0,0-.28,0,.68.68,0,0,0-.21.1.61.61,0,0,0-.16.16.4.4,0,0,0,0,.35.71.71,0,0,0,.29.36.79.79,0,0,0,.37.16A.42.42,0,0,0,119,16a.28.28,0,0,1,.23,0,.77.77,0,0,1,.27.18l.41.39a.73.73,0,0,1-.35.28,1,1,0,0,1-.46.07,1.47,1.47,0,0,1-.54-.15,3.31,3.31,0,0,1-1.09-.82,2.13,2.13,0,0,1-.31-.5.94.94,0,0,1-.07-.46.71.71,0,0,1,.14-.39.65.65,0,0,1,.25-.22,1,1,0,0,1,.32-.11,2.22,2.22,0,0,1,.37,0h.41l1,.05-.29-.16-.25-.16Z"/><path d="M116,13.16a2.14,2.14,0,0,1-.46-.26,3.22,3.22,0,0,1-.38-.35,1.25,1.25,0,0,1-.23-.4.63.63,0,0,1,0-.38.58.58,0,0,1,.2-.33.79.79,0,0,1,.38-.18,1.34,1.34,0,0,1,.49,0,2,2,0,0,1,.54.16,2.73,2.73,0,0,1,.56.33,3,3,0,0,1,.48.44,1.5,1.5,0,0,1,.27.44.89.89,0,0,1,.07.42.73.73,0,0,1-.15.39,1.33,1.33,0,0,1-1,.4l-1.6.11a.62.62,0,0,1-.28,0,1,1,0,0,1-.32-.17l-.8-.59,2.09,0Zm.78-1.08a1.49,1.49,0,0,0-.24-.14l-.24-.06a.79.79,0,0,0-.22,0,.32.32,0,0,0-.17.1.25.25,0,0,0-.1.17.31.31,0,0,0,0,.19.57.57,0,0,0,.12.21,1.07,1.07,0,0,0,.22.2,1,1,0,0,0,.25.14.6.6,0,0,0,.45,0,.41.41,0,0,0,.25-.28.28.28,0,0,0,0-.18.5.5,0,0,0-.1-.19A2.3,2.3,0,0,0,116.74,12.08Z"/></g><path class="cls-1" d="M105.74,38.8a8.31,8.31,0,0,0-9.16-6.72,14.33,14.33,0,0,0,9.16,6.72Z"/><g class="cls-14"><path d="M99.75,36.51a.43.43,0,0,1,.17.19.15.15,0,0,1,0,.16l-.18.25-2.43-1.8.07-.16a.2.2,0,0,1,.08-.08.26.26,0,0,1,.14,0l1.43.05h.35a1.26,1.26,0,0,0,.28,0,1,1,0,0,0,.21-.1.61.61,0,0,0,.15-.17.4.4,0,0,0,0-.35.78.78,0,0,0-.3-.35.83.83,0,0,0-.36-.17.4.4,0,0,0-.28.06.28.28,0,0,1-.23,0,.63.63,0,0,1-.27-.18l-.42-.39a.83.83,0,0,1,.36-.29,1,1,0,0,1,.46-.06,1.55,1.55,0,0,1,.53.14,4,4,0,0,1,.58.34,3.08,3.08,0,0,1,.52.49,1.85,1.85,0,0,1,.3.49A1.14,1.14,0,0,1,101,35a.73.73,0,0,1-.14.38.77.77,0,0,1-.25.23,1.19,1.19,0,0,1-.32.1,2.34,2.34,0,0,1-.38,0h-.41l-1-.05a2.69,2.69,0,0,1,.29.16l.26.17Z"/><path d="M102.2,36.74a2.68,2.68,0,0,1,.45.27,2.11,2.11,0,0,1,.38.35,1.37,1.37,0,0,1,.24.39.75.75,0,0,1,0,.39.55.55,0,0,1-.21.33.78.78,0,0,1-.38.17,1.28,1.28,0,0,1-.48,0,2.09,2.09,0,0,1-.54-.17,2.79,2.79,0,0,1-.57-.33,2.86,2.86,0,0,1-.47-.43,1.69,1.69,0,0,1-.28-.44.93.93,0,0,1-.07-.42.83.83,0,0,1,.16-.39,1.27,1.27,0,0,1,1-.4l1.59-.12a.79.79,0,0,1,.28,0,1.08,1.08,0,0,1,.33.18l.8.59-2.1,0Zm-.78,1.08a.72.72,0,0,0,.24.14.71.71,0,0,0,.24.06.49.49,0,0,0,.21,0,.31.31,0,0,0,.18-.09.42.42,0,0,0,.1-.17.35.35,0,0,0,0-.2.62.62,0,0,0-.12-.2,1.12,1.12,0,0,0-.22-.21,1.23,1.23,0,0,0-.25-.14.68.68,0,0,0-.23,0,.53.53,0,0,0-.22,0,.48.48,0,0,0-.16.12.32.32,0,0,0-.09.17.33.33,0,0,0,0,.17.41.41,0,0,0,.11.19A.87.87,0,0,0,101.42,37.82Z"/></g><path class="cls-1" d="M95,21.62a7.7,7.7,0,0,0,5.18-3.25,7.71,7.71,0,0,0,1.54-5.91A14.33,14.33,0,0,0,95,21.62Z"/><g class="cls-15"><path d="M97.25,15.64a.56.56,0,0,1-.18.17.18.18,0,0,1-.16,0l-.26-.19,1.8-2.42.16.07s.06,0,.09.07a.24.24,0,0,1,0,.15l0,1.42a2,2,0,0,0,0,.35,1.08,1.08,0,0,0,0,.28.46.46,0,0,0,.1.21.49.49,0,0,0,.16.16.43.43,0,0,0,.35,0,.73.73,0,0,0,.35-.3.81.81,0,0,0,.17-.37.43.43,0,0,0,0-.28.25.25,0,0,1,0-.22.72.72,0,0,1,.18-.28l.39-.41a.86.86,0,0,1,.28.35,1,1,0,0,1,.07.47,1.71,1.71,0,0,1-.15.53,2.73,2.73,0,0,1-.34.58,3,3,0,0,1-.48.52,2.45,2.45,0,0,1-.5.3,1.09,1.09,0,0,1-.46.08.77.77,0,0,1-.39-.14.68.68,0,0,1-.22-.26A1,1,0,0,1,98,16.2a2.13,2.13,0,0,1,0-.37c0-.13,0-.27,0-.41l0-1a2.69,2.69,0,0,1-.16.29,2.72,2.72,0,0,1-.16.25Z"/><path d="M97,18.08a1.68,1.68,0,0,1-.27.46,2.49,2.49,0,0,1-.34.38,1.29,1.29,0,0,1-.4.24.72.72,0,0,1-.38,0A.57.57,0,0,1,95.3,19a.79.79,0,0,1-.18-.38,1.29,1.29,0,0,1,0-.48,2,2,0,0,1,.16-.55,3,3,0,0,1,.33-.56,3.48,3.48,0,0,1,.44-.48,1.74,1.74,0,0,1,.44-.27.89.89,0,0,1,.42-.07.83.83,0,0,1,.39.16,1.26,1.26,0,0,1,.39,1l.12,1.59a.62.62,0,0,1,0,.28.9.9,0,0,1-.17.32l-.59.8,0-2.09Zm-1.08-.78a1.49,1.49,0,0,0-.14.24,1.29,1.29,0,0,0-.06.25.49.49,0,0,0,0,.21.39.39,0,0,0,.09.17.41.41,0,0,0,.17.11.35.35,0,0,0,.2,0,.57.57,0,0,0,.21-.12,1.46,1.46,0,0,0,.2-.22.89.89,0,0,0,.14-.25.71.71,0,0,0,.06-.24.76.76,0,0,0,0-.21.31.31,0,0,0-.12-.16.29.29,0,0,0-.16-.09.37.37,0,0,0-.18,0,.54.54,0,0,0-.19.11A1.37,1.37,0,0,0,95.94,17.3Z"/></g><path class="cls-1" d="M122.92,28a7.72,7.72,0,0,0-5.18,3.26,7.71,7.71,0,0,0-1.54,5.91A14.4,14.4,0,0,0,122.92,28Z"/><g class="cls-16"><path d="M120.72,34a.52.52,0,0,1,.18-.16.15.15,0,0,1,.16,0l.26.19-1.8,2.43-.16-.08a.15.15,0,0,1-.09-.07.23.23,0,0,1,0-.15l0-1.42a2,2,0,0,0,0-.35,1.08,1.08,0,0,0-.05-.28.68.68,0,0,0-.1-.21.57.57,0,0,0-.16-.15.4.4,0,0,0-.35,0,.84.84,0,0,0-.36.29.79.79,0,0,0-.16.37.41.41,0,0,0,0,.28.28.28,0,0,1,0,.23.77.77,0,0,1-.18.27l-.39.42a.81.81,0,0,1-.28-.36,1,1,0,0,1-.07-.46,1.47,1.47,0,0,1,.15-.54,2.45,2.45,0,0,1,.34-.57,2.69,2.69,0,0,1,.48-.52,1.79,1.79,0,0,1,.5-.3,1,1,0,0,1,.46-.08.71.71,0,0,1,.39.14.65.65,0,0,1,.22.25,1.1,1.1,0,0,1,.11.32,2.22,2.22,0,0,1,0,.37c0,.14,0,.27,0,.41l0,1,.15-.29.17-.25Z"/><path d="M121,31.54a2.41,2.41,0,0,1,.26-.46,3.11,3.11,0,0,1,.35-.37,1.29,1.29,0,0,1,.4-.24.72.72,0,0,1,.38,0,.58.58,0,0,1,.33.2.84.84,0,0,1,.18.38,1.34,1.34,0,0,1,0,.49,2,2,0,0,1-.16.54,2.49,2.49,0,0,1-.33.56,2.61,2.61,0,0,1-.44.48,1.54,1.54,0,0,1-.44.28.88.88,0,0,1-.42.06.73.73,0,0,1-.39-.15,1.31,1.31,0,0,1-.4-1l-.11-1.6a.58.58,0,0,1,0-.27,1,1,0,0,1,.17-.33l.59-.8,0,2.09Zm1.08.78a1.41,1.41,0,0,0,.13-.24.73.73,0,0,0,.07-.24.79.79,0,0,0,0-.22.37.37,0,0,0-.1-.17.3.3,0,0,0-.17-.1.31.31,0,0,0-.19,0,.57.57,0,0,0-.21.12,1.07,1.07,0,0,0-.2.22,1.28,1.28,0,0,0-.14.25.71.71,0,0,0-.06.24.66.66,0,0,0,0,.21.39.39,0,0,0,.11.17.7.7,0,0,0,.17.09.37.37,0,0,0,.18,0,.77.77,0,0,0,.19-.11A2.3,2.3,0,0,0,122,32.32Z"/></g><path d="M110.56,26.64a.52.52,0,0,1,.32-.22.46.46,0,0,1,.35.09l.67.5-2.82,3.8-.37-.27a.82.82,0,0,1-.19-.22.68.68,0,0,1-.11-.32L108,27.28a4.72,4.72,0,0,0-.12-.63,3,3,0,0,0-.18-.51,2,2,0,0,0-.24-.41,2.13,2.13,0,0,0-.34-.33.94.94,0,0,0-.61-.21.74.74,0,0,0-.52.34.87.87,0,0,0-.19.54.92.92,0,0,0,.16.49.57.57,0,0,1,.12.4.77.77,0,0,1-.24.39l-.56.53a2.33,2.33,0,0,1-.53-.76,2,2,0,0,1-.19-.79,2.17,2.17,0,0,1,.12-.79,2.91,2.91,0,0,1,.42-.77,2.41,2.41,0,0,1,.65-.63,2,2,0,0,1,.73-.31,1.73,1.73,0,0,1,.75,0,2.16,2.16,0,0,1,1.21.84,3,3,0,0,1,.32.58,4.58,4.58,0,0,1,.19.66c0,.24.09.48.13.73l.3,1.86c.06-.16.13-.32.2-.47a3.52,3.52,0,0,1,.24-.4Z"/><path d="M110,22.51a2.14,2.14,0,0,1,.34-.65,2.1,2.1,0,0,1,.52-.51,1.84,1.84,0,0,1,1.46-.28,2.27,2.27,0,0,1,.82.39,2.37,2.37,0,0,1,.62.68A2.29,2.29,0,0,1,114,23a2.21,2.21,0,0,1,0,.92,2.54,2.54,0,0,1-.45.92,2.78,2.78,0,0,1-.75.71,2.12,2.12,0,0,1-1.74.24,2.87,2.87,0,0,1-.89-.45A3.35,3.35,0,0,1,109,23.5l-.74-2.44a.84.84,0,0,1,0-.39,1.15,1.15,0,0,1,.2-.42l.76-1,.73,3Zm2.62,1.65a1,1,0,0,0,.18-.38.9.9,0,0,0,0-.4,1,1,0,0,0-.14-.38.91.91,0,0,0-.3-.32,1.1,1.1,0,0,0-.41-.22,1,1,0,0,0-.41,0,1.12,1.12,0,0,0-.37.14,1.3,1.3,0,0,0-.31.31,1,1,0,0,0-.18.37,1,1,0,0,0,0,.38,1.31,1.31,0,0,0,.15.37,1.61,1.61,0,0,0,.32.32,1.59,1.59,0,0,0,.4.22.84.84,0,0,0,.38.06.69.69,0,0,0,.36-.13A1.06,1.06,0,0,0,112.6,24.16Z"/><path class="cls-17" d="M124.88,42.29A10.54,10.54,0,1,1,110,43.48,10.53,10.53,0,0,1,124.88,42.29Z"/><path class="cls-1" d="M121.31,46.49a5,5,0,1,1-7.1.56A5,5,0,0,1,121.31,46.49Z"/><path class="cls-1" d="M121.14,40.24a6.11,6.11,0,0,0,6.36,5.42,10.52,10.52,0,0,0-6.36-5.42Z"/><g class="cls-18"><path d="M124.48,43h.16a2.25,2.25,0,0,1-.46-.3,2.13,2.13,0,0,1-.26-.26,1.49,1.49,0,0,1-.2-.31,1.42,1.42,0,0,1-.11-.35.69.69,0,0,1,0-.37.55.55,0,0,1,.23-.27.76.76,0,0,1,.41-.1,1.48,1.48,0,0,1,.57.14,2.39,2.39,0,0,1,.64.4,2.84,2.84,0,0,1,.51.56,1.36,1.36,0,0,1,.23.52.73.73,0,0,1,0,.42.66.66,0,0,1-.25.28,1,1,0,0,1-.46.15,1.5,1.5,0,0,1-.47,0l-.93-.13a.48.48,0,0,1-.14,0l-.17-.12-.47-.4Zm-.1-1c-.13.21,0,.43.23.67a.84.84,0,0,0,.39.21.37.37,0,0,0,.32-.09.24.24,0,0,0,.09-.15.28.28,0,0,0,0-.18.62.62,0,0,0-.1-.2,1.26,1.26,0,0,0-.2-.2.65.65,0,0,0-.23-.15.53.53,0,0,0-.2-.05.48.48,0,0,0-.18,0A.6.6,0,0,0,124.38,42Z"/></g><path class="cls-1" d="M114.94,60.4A6.09,6.09,0,0,0,108.58,55a10.6,10.6,0,0,0,6.36,5.42Z"/><g class="cls-19"><path d="M111.6,57.49l-.08,0h-.08a1.77,1.77,0,0,1,.46.29l.26.26a1.55,1.55,0,0,1,.2.32,1,1,0,0,1,.11.34.67.67,0,0,1,0,.37.51.51,0,0,1-.23.27.68.68,0,0,1-.41.1,1.65,1.65,0,0,1-.57-.13,2.74,2.74,0,0,1-.64-.41,2.38,2.38,0,0,1-.51-.56,1.3,1.3,0,0,1-.23-.52.7.7,0,0,1,0-.41.57.57,0,0,1,.25-.28,1.15,1.15,0,0,1,.46-.16,1.87,1.87,0,0,1,.47,0l.93.14a.3.3,0,0,1,.14,0l.17.12.47.39Zm.1,1c.13-.21,0-.43-.23-.67a.91.91,0,0,0-.39-.2.4.4,0,0,0-.32.08.29.29,0,0,0-.09.16.28.28,0,0,0,0,.18.58.58,0,0,0,.11.2,1.17,1.17,0,0,0,.19.2.79.79,0,0,0,.23.14.56.56,0,0,0,.21.06.33.33,0,0,0,.17,0A.25.25,0,0,0,111.7,58.49Z"/></g><path class="cls-1" d="M108,47.22a6.13,6.13,0,0,0,5.42-6.36A10.52,10.52,0,0,0,108,47.22Z"/><g class="cls-20"><path d="M111.82,43.7l-.41.46-.15.14a.4.4,0,0,1-.12.07l-.91.26a2,2,0,0,1-.46.09,1,1,0,0,1-.48-.09.64.64,0,0,1-.29-.24.7.7,0,0,1-.1-.41,1.23,1.23,0,0,1,.15-.54,2.72,2.72,0,0,1,.43-.63,2.56,2.56,0,0,1,.58-.49,1.33,1.33,0,0,1,.53-.21.67.67,0,0,1,.43,0,.57.57,0,0,1,.27.24.73.73,0,0,1,.09.35,1.13,1.13,0,0,1-.06.36,1.47,1.47,0,0,1-.15.34,3.15,3.15,0,0,1-.22.29,2.2,2.2,0,0,1-.41.36l.08,0,.07,0ZM110.51,43a.32.32,0,0,0-.17,0,.42.42,0,0,0-.2.08.84.84,0,0,0-.21.18,1,1,0,0,0-.16.22.52.52,0,0,0-.07.21.27.27,0,0,0,0,.18.3.3,0,0,0,.11.14.35.35,0,0,0,.33,0,.88.88,0,0,0,.36-.26c.24-.27.29-.5.13-.69A.42.42,0,0,0,110.51,43Z"/></g><path class="cls-1" d="M128.12,53.41a6.13,6.13,0,0,0-5.42,6.36,10.52,10.52,0,0,0,5.42-6.36Z"/><g class="cls-21"><path d="M125.32,56.69v.09a.17.17,0,0,0,0,.07,2,2,0,0,1,.3-.45,1.6,1.6,0,0,1,.26-.26,1.49,1.49,0,0,1,.31-.2,1.1,1.1,0,0,1,.35-.11.65.65,0,0,1,.36.05.53.53,0,0,1,.28.23.76.76,0,0,1,.1.41,1.59,1.59,0,0,1-.14.56,2.3,2.3,0,0,1-.41.64,2.44,2.44,0,0,1-.56.52,1.23,1.23,0,0,1-.51.22.72.72,0,0,1-.42,0,.67.67,0,0,1-.28-.25,1.15,1.15,0,0,1-.16-.46,2.61,2.61,0,0,1,0-.48l.14-.93a.31.31,0,0,1,0-.13.88.88,0,0,1,.12-.17l.4-.47Zm1-.09c-.22-.14-.43-.06-.67.23a.79.79,0,0,0-.21.39.34.34,0,0,0,.09.31.31.31,0,0,0,.15.1.37.37,0,0,0,.18,0,.53.53,0,0,0,.2-.1.89.89,0,0,0,.2-.19.75.75,0,0,0,.15-.23.54.54,0,0,0,0-.21.33.33,0,0,0,0-.17A.29.29,0,0,0,126.33,56.6Z"/></g><path d="M117.56,49.93s0,.1,0,.15a.74.74,0,0,0,0,.14,1.6,1.6,0,0,1,.35-.7,1.49,1.49,0,0,1,.41-.33,1.34,1.34,0,0,1,.52-.18,1.3,1.3,0,0,1,.58.05,1.56,1.56,0,0,1,.61.34,1.61,1.61,0,0,1,.43.54,1.63,1.63,0,0,1,.19.65,2.14,2.14,0,0,1-.09.7,2.09,2.09,0,0,1-.39.67,2.14,2.14,0,0,1-.59.51,1.86,1.86,0,0,1-.66.2,1.51,1.51,0,0,1-.66-.09,2,2,0,0,1-.63-.37,2.39,2.39,0,0,1-.61-.72,3.07,3.07,0,0,1-.33-.82l-.5-1.93a.58.58,0,0,1,0-.29.86.86,0,0,1,.17-.31l.67-.8Zm1.86.39a.76.76,0,0,0-1.27.61,1,1,0,0,0,.61.7.75.75,0,0,0,.29,0,.72.72,0,0,0,.27-.09.91.91,0,0,0,.24-.2.85.85,0,0,0,.15-.28.65.65,0,0,0,0-.28,1,1,0,0,0-.1-.27A.9.9,0,0,0,119.42,50.32Z"/><circle class="cls-22" cx="95.7" cy="55.91" r="8.68" transform="translate(37.13 150.01) rotate(-88.4)"/><path class="cls-1" d="M91.67,55.05A4.15,4.15,0,1,1,94.85,60,4.14,4.14,0,0,1,91.67,55.05Z"/><path class="cls-1" d="M87.18,57.6a5,5,0,0,0,1.45-6.73,8.7,8.7,0,0,0-1.45,6.73Z"/><g class="cls-23"><path d="M86.78,55.51a1,1,0,0,1-.47-.25,1,1,0,0,1-.27-.41,1.43,1.43,0,0,1-.08-.56,3,3,0,0,1,.08-.64,2.58,2.58,0,0,1,.23-.61,1.54,1.54,0,0,1,.33-.45,1,1,0,0,1,.43-.24,1.06,1.06,0,0,1,.53,0,.92.92,0,0,1,.47.24,1,1,0,0,1,.27.41,1.63,1.63,0,0,1,.09.55,3.9,3.9,0,0,1-.09.65,3,3,0,0,1-.23.61,1.54,1.54,0,0,1-.33.45.92.92,0,0,1-.43.24A1,1,0,0,1,86.78,55.51Zm.23-.94a1.12,1.12,0,0,0,.39,0,.58.58,0,0,0,.27-.09.55.55,0,0,0,.16-.18.92.92,0,0,0,.09-.23,1,1,0,0,0,0-.24.39.39,0,0,0-.07-.23.52.52,0,0,0-.19-.2,1.22,1.22,0,0,0-.36-.15,1.12,1.12,0,0,0-.39,0,.54.54,0,0,0-.26.09.46.46,0,0,0-.17.17.92.92,0,0,0-.09.23,1,1,0,0,0,0,.24.48.48,0,0,0,.07.24.62.62,0,0,0,.19.21A1,1,0,0,0,87,54.57Z"/></g><path class="cls-1" d="M104.22,54.22A5,5,0,0,0,102.77,61a8.68,8.68,0,0,0,1.45-6.73Z"/><g class="cls-24"><path d="M103.24,59.31a1.06,1.06,0,0,1-.29-.4,1.38,1.38,0,0,1-.11-.55,2.94,2.94,0,0,1,0-.65,3.47,3.47,0,0,1,.19-.62,1.55,1.55,0,0,1,.31-.46,1,1,0,0,1,.42-.27,1,1,0,0,1,.53,0,1,1,0,0,1,.77.62,1.33,1.33,0,0,1,.11.54,2.44,2.44,0,0,1,0,.65,2.81,2.81,0,0,1-.19.62,1.6,1.6,0,0,1-.31.47,1.17,1.17,0,0,1-.42.27,1,1,0,0,1-.53,0A1.06,1.06,0,0,1,103.24,59.31Zm1.06-.71a.67.67,0,0,0,.26-.1.55.55,0,0,0,.15-.19,1,1,0,0,0,.08-.23.71.71,0,0,0,0-.25.48.48,0,0,0-.07-.23.78.78,0,0,0-.21-.19,1.23,1.23,0,0,0-.37-.12,1.06,1.06,0,0,0-.39,0,.47.47,0,0,0-.25.1.55.55,0,0,0-.16.18.84.84,0,0,0-.09.48.48.48,0,0,0,.07.23.81.81,0,0,0,.21.2,1,1,0,0,0,.36.12A1.13,1.13,0,0,0,104.3,58.6Z"/></g><path class="cls-1" d="M97.39,64.43A5,5,0,0,0,90.67,63a8.71,8.71,0,0,0,6.72,1.44Z"/><g class="cls-25"><path d="M95,65a.91.91,0,0,1-.37.27,1.31,1.31,0,0,1-.5.1,2.52,2.52,0,0,1-.6,0,2.44,2.44,0,0,1-.56-.17,1.47,1.47,0,0,1-.42-.28.93.93,0,0,1-.25-.38,1.14,1.14,0,0,1,0-.49,1,1,0,0,1,.2-.44.91.91,0,0,1,.37-.27,1.47,1.47,0,0,1,.49-.1,2.52,2.52,0,0,1,.6,0,3.06,3.06,0,0,1,.56.17,1.39,1.39,0,0,1,.43.28,1,1,0,0,1,.25.39,1.08,1.08,0,0,1,0,.48A.94.94,0,0,1,95,65Zm-.65-1a.53.53,0,0,0-.1-.24.39.39,0,0,0-.17-.14,1,1,0,0,0-.43-.09.48.48,0,0,0-.21.07.66.66,0,0,0-.18.19.91.91,0,0,0-.11.34.87.87,0,0,0,0,.35.67.67,0,0,0,.09.24.46.46,0,0,0,.17.14.58.58,0,0,0,.21.07.9.9,0,0,0,.23,0,.58.58,0,0,0,.21-.07.55.55,0,0,0,.18-.19.85.85,0,0,0,.11-.33A.92.92,0,0,0,94.37,64Z"/></g><path class="cls-1" d="M94,47.4a5,5,0,0,0,6.73,1.44A8.64,8.64,0,0,0,94,47.4Z"/><g class="cls-26"><path d="M99.06,48.12a1,1,0,0,1-.4.29,1.42,1.42,0,0,1-.55.11,2.94,2.94,0,0,1-.65-.05,2.66,2.66,0,0,1-.62-.19,1.43,1.43,0,0,1-.47-.31,1,1,0,0,1-.28-.95,1.06,1.06,0,0,1,.22-.48,1,1,0,0,1,.4-.29,1.53,1.53,0,0,1,.54-.11,3,3,0,0,1,1.27.24,1.6,1.6,0,0,1,.47.31,1,1,0,0,1,.29,1A1.06,1.06,0,0,1,99.06,48.12Zm-.71-1a.55.55,0,0,0-.11-.27.52.52,0,0,0-.18-.15,1.13,1.13,0,0,0-.24-.08.65.65,0,0,0-.24,0,.48.48,0,0,0-.23.07.78.78,0,0,0-.19.21,1.21,1.21,0,0,0-.13.37,1,1,0,0,0,0,.39.55.55,0,0,0,.1.26.44.44,0,0,0,.18.15.9.9,0,0,0,.23.08,1,1,0,0,0,.25,0A.48.48,0,0,0,98,48a.56.56,0,0,0,.19-.21,1,1,0,0,0,.13-.36A1.08,1.08,0,0,0,98.35,47.07Z"/></g><path d="M94.19,55.35a4.1,4.1,0,0,1,.36-.93,2.13,2.13,0,0,1,.5-.59,1.37,1.37,0,0,1,.6-.28,1.66,1.66,0,0,1,1.25.31,1.37,1.37,0,0,1,.4.52,2,2,0,0,1,.16.76,3.81,3.81,0,0,1-.12,1,3.34,3.34,0,0,1-.36.93,2.14,2.14,0,0,1-.49.6,1.47,1.47,0,0,1-.6.27,1.44,1.44,0,0,1-.65,0,1.51,1.51,0,0,1-.6-.28,1.37,1.37,0,0,1-.4-.52,2.18,2.18,0,0,1-.17-.76A3.81,3.81,0,0,1,94.19,55.35Zm.94.24a3.42,3.42,0,0,0-.13.73,1.65,1.65,0,0,0,0,.48.58.58,0,0,0,.15.27.57.57,0,0,0,.23.12.49.49,0,0,0,.24,0,.51.51,0,0,0,.26-.17,1.38,1.38,0,0,0,.25-.41,3.24,3.24,0,0,0,.24-.71,4.2,4.2,0,0,0,.12-.73,1.7,1.7,0,0,0,0-.48.51.51,0,0,0-.15-.27.51.51,0,0,0-.47-.12.56.56,0,0,0-.26.17,1.53,1.53,0,0,0-.26.41A3.7,3.7,0,0,0,95.13,55.59Z"/><path class="cls-27" d="M126,129.19c-.43,0-.86,0-1.29-.05l-55-4.49A20,20,0,0,1,52,109.83L41.3,69.32c-1.9-7.2-3.87-14.65-12.26-16.9L5.14,47.5a3.35,3.35,0,1,1,1.34-6.56l24.18,5c12.24,3.22,15.06,13.9,17.11,21.69l.14.53,10.58,40A13.33,13.33,0,0,0,70.27,118l55,4.48a9.14,9.14,0,0,0,9.55-6.67l10.13-36.71L74.73,73.31a4.66,4.66,0,0,0-4.89,5.78L73,91.48A10.1,10.1,0,0,0,81.73,99l33.09,3.33a3.58,3.58,0,1,0,.69-7.13L87.72,92.67A3.35,3.35,0,0,1,88.33,86l27.79,2.57a10.28,10.28,0,1,1-2,20.47l-33.1-3.34A16.81,16.81,0,0,1,66.48,93.13L63.34,80.74a11.35,11.35,0,0,1,11.94-14.1l78.24,6.43-12.27,44.5A15.86,15.86,0,0,1,126,129.19Z"/><circle class="cls-28" cx="68.44" cy="137.44" r="9.11"/><circle class="cls-28" cx="117.36" cy="140.21" r="5.51"/><path class="cls-27" d="M189.87,136.92a30.23,30.23,0,0,1-12.15-11.32,33.18,33.18,0,0,1,0-33,30.32,30.32,0,0,1,12.15-11.33,37.08,37.08,0,0,1,17.43-4,38.23,38.23,0,0,1,15.85,3.14,29.39,29.39,0,0,1,11.5,9.06l-13,11.59q-5.65-7.14-13.33-7.15A13.59,13.59,0,0,0,198,98q-3.93,4.14-3.93,11.11T198,120.2a13.58,13.58,0,0,0,10.36,4.13q7.66,0,13.33-7.14l13,11.59a29.39,29.39,0,0,1-11.5,9.06A38.23,38.23,0,0,1,207.3,141,37,37,0,0,1,189.87,136.92Z"/><path class="cls-27" d="M280.48,96.67q6.61,5.63,6.62,17.3v25.61H268.8v-6.27q-3.39,7.14-13.5,7.14a21.5,21.5,0,0,1-9.63-2,13.8,13.8,0,0,1-8.06-12.85q0-7,5.4-10.71t16.38-3.66h7.93q-1-5.58-9-5.58a22.79,22.79,0,0,0-6.54,1,18.54,18.54,0,0,0-5.66,2.75l-6.27-13a34.45,34.45,0,0,1,9.89-4,48.17,48.17,0,0,1,11.54-1.43Q273.85,91.06,280.48,96.67ZM265,127.47a6.54,6.54,0,0,0,2.44-3.4v-3.31h-4.88q-6,0-6,4a3.45,3.45,0,0,0,1.26,2.74,5.07,5.07,0,0,0,3.44,1.09A6.45,6.45,0,0,0,265,127.47Z"/><path class="cls-27" d="M329.79,91.06v17.42a30.34,30.34,0,0,0-4.36-.35q-10.11,0-10.11,10.28v21.17H295.63V91.93h18.74v5.14Q319.59,91.06,329.79,91.06Z"/><path class="cls-27" d="M369.51,91.06v17.42a30.23,30.23,0,0,0-4.36-.35q-10.09,0-10.1,10.28v21.17H335.36V91.93h18.73v5.14Q359.33,91.06,369.51,91.06Z"/><path class="cls-27" d="M376.35,85.26a9.53,9.53,0,0,1,0-14.37,12.63,12.63,0,0,1,8.58-2.83,13,13,0,0,1,8.63,2.7,8.69,8.69,0,0,1,3.22,7,9.6,9.6,0,0,1-3.22,7.44,12.36,12.36,0,0,1-8.63,2.92A12.63,12.63,0,0,1,376.35,85.26Zm-1.26,6.67h19.69v47.65H375.09Z"/><path class="cls-27" d="M438.59,137.93q-4.44,2.52-12.1,2.52-10,0-15.42-4.83t-5.41-14.51V108.92h-6.53V94.54h6.53V81.21h19.69V94.54h9.76v14.38h-9.76v12a4.76,4.76,0,0,0,1.14,3.39,3.82,3.82,0,0,0,3,1.22,7.71,7.71,0,0,0,4.44-1.3Z"/><path class="cls-27" d="M453.19,137.27a24.45,24.45,0,0,1-9.89-8.8,24.59,24.59,0,0,1,0-25.52,24.15,24.15,0,0,1,9.89-8.76,34.16,34.16,0,0,1,28.57,0,23.91,23.91,0,0,1,9.85,8.76,24.89,24.89,0,0,1,0,25.52,24.21,24.21,0,0,1-9.85,8.8,33.67,33.67,0,0,1-28.57,0ZM473,122.64a10.19,10.19,0,0,0,2.17-6.93c0-3-.72-5.26-2.17-6.88a7.59,7.59,0,0,0-11.15,0c-1.46,1.62-2.18,3.92-2.18,6.88a10.14,10.14,0,0,0,2.18,6.93,7.51,7.51,0,0,0,11.15,0Z"/></svg>