<svg id="Capa_1" data-name="Capa 1" xmlns="http://www.w3.org/2000/svg" viewBox="0 0 500 500"><defs><style>.cls-1{fill:#fff;}</style></defs><title>iconos new menu lotwria nacional</title><path class="cls-1" d="M481.65,96H98.47a10,10,0,0,0-2.12.43L80.76,44.72a10.68,10.68,0,0,0-.8-1.49,10.26,10.26,0,0,0-10.19-9.54h0L19,33.91a10.36,10.36,0,0,0,0,20.72h0l43-.19,99.14,329a49.15,49.15,0,1,0,78,16.35H382.33a49.14,49.14,0,1,0,17.16-20.71H222a47.57,47.57,0,0,0-42.4-6.18l-14.79-49.06,260.92-.21a10.25,10.25,0,0,0,9.7-7.13,9.9,9.9,0,0,0,.94-2l55.23-203.67a10.24,10.24,0,0,0,.25-3.84c0-.22.12-.39.12-.6A10.35,10.35,0,0,0,481.65,96ZM427.28,391.19a28.48,28.48,0,1,1-28.48,28.48A28.5,28.5,0,0,1,427.28,391.19Zm-233,0a28.48,28.48,0,1,1-28.48,28.48A28.5,28.5,0,0,1,194.27,391.19ZM418.08,303l-259.46.2L102.46,116.76H468.57Z"/></svg>