<svg id="Capa_1" data-name="Capa 1" xmlns="http://www.w3.org/2000/svg" viewBox="0 0 500 500"><title>iconos new menu lotwria nacional</title><path d="M405.45,67.7A238.77,238.77,0,0,0,68.65,93.84c-85.79,100.23-74.08,251,26.15,336.81A238.78,238.78,0,0,0,431.6,404.5C517.38,304.27,505.68,153.48,405.45,67.7Zm46.3,250.77-73-25.17a136.38,136.38,0,0,0,0-88.18L451.7,180a214.57,214.57,0,0,1,.05,138.45ZM455.85,178v0Zm-45.07-68.63-58.12,50.49a138.07,138.07,0,0,0-14.11-14,135.21,135.21,0,0,0-62.26-30.12L291,40.42a212.1,212.1,0,0,1,97.71,47.07A216.51,216.51,0,0,1,410.78,109.35ZM177.63,48.94a210.21,210.21,0,0,1,31.76-8.68L224,115.74a135.39,135.39,0,0,0-76.37,44.06L89.48,109.2A212.66,212.66,0,0,1,177.63,48.94ZM48.51,179.88l73,25.16a136.44,136.44,0,0,0,0,88.18l-73,25.12a214.71,214.71,0,0,1,0-138.46ZM89.35,389.09l58.24-50.59a138.06,138.06,0,0,0,14.11,14A135.21,135.21,0,0,0,224,382.6l-14.74,75.74a212.67,212.67,0,0,1-97.66-47.27A216.52,216.52,0,0,1,89.35,389.09Zm233.23,60.54a212.53,212.53,0,0,1-31.68,8.7L276.21,382.6a135.36,135.36,0,0,0,76.37-44.06l58.21,50.61A212.93,212.93,0,0,1,322.58,449.63Z"/><circle cx="161.71" cy="96.5" r="12.89"/><circle cx="73.7" cy="249.4" r="12.89"/><circle cx="162.11" cy="402.07" r="12.89"/><circle cx="338.54" cy="401.84" r="12.89"/><circle cx="426.54" cy="248.93" r="12.89"/><circle cx="338.13" cy="96.27" r="12.89"/></svg>